<?xml version="1.0" encoding="utf-8"?>
<!-- Generator: Adobe Illustrator 25.0.0, SVG Export Plug-In . SVG Version: 6.00 Build 0)  -->
<svg version="1.1" id="Layer_1" xmlns="http://www.w3.org/2000/svg" xmlns:xlink="http://www.w3.org/1999/xlink" x="0px" y="0px"
	 viewBox="0 0 499.3 373.9" style="enable-background:new 0 0 499.3 373.9;" xml:space="preserve">
<style type="text/css">
	.st0{fill:#FFFFFF;}
	.st1{fill:#E82C2A;}
</style>
<g>
	<path class="st0" d="M346.8,81.9c-5.7-2.1-12.1-0.5-17.8,0.7c-5.7,1.2-11.6,2.7-17.3,1.3c-5.4-1.3-9.8-6.8-10-12.5
		c-0.2-5.6,2.6-10.5,7.2-13.4c0.9-0.5,2.9-1.7,4.3-2c0,0-3.7,2.6-3.8,7.9c-0.1,2.8,1.7,6,4.1,7.4c0.3,0.2,0.6,0.4,0.9,0.4
		c6,3.2,12.1-1.8,15.1-7.2c1-1.8,1.8-3.7,2.5-5.6c1.8-5.1,2.7-10.6,1.9-16c-1.7-11.9-13.2-20.6-25.3-16.2
		c-5.7,2.1-9.7,7.5-13.2,12.2c-3.6,4.6-7.1,9.6-12.4,12.3c-5,2.6-11.8,1.1-15.6-3.1c-3.7-4.1-4.6-9.8-3-15c0.3-1,1.1-3.2,2-4.3
		c0,0-1.1,4.4,2.2,8.6c1.7,2.2,5.1,3.4,7.8,3c0.3-0.1,0.7-0.2,1-0.3c6.6-1.5,8.1-9.2,7-15.4c-0.4-2-1-4.1-1.7-5.9
		c-1.8-5.1-4.6-9.8-8.7-13.5c-8.8-8-23.2-7.2-29.7,4.1c-3,5.3-2.6,12-2.4,17.9c0.2,5.8,0.7,12-1.7,17.6c-2.2,5.2-8.4,8.6-13.8,7.9
		c-5.4-0.8-9.7-4.5-11.8-9.5c-0.3-1-1.1-3.1-1.2-4.7c0,0,1.9,4.1,7,5.2c2.8,0.5,6.1-0.7,7.9-2.8c0.2-0.3,0.4-0.5,0.6-0.8
		c4.1-5.5,0.4-12.3-4.4-16.3c-1.6-1.3-3.3-2.5-5-3.5c-4.7-2.7-9.7-4.5-15.2-4.7c-11.8-0.4-22.4,9.6-20.1,22.5
		c1,6.1,5.7,10.9,9.6,15.3c3.8,4.3,8.2,8.8,9.8,14.6c1.6,5.4-1,12.1-5.7,15c-4.6,2.9-10.3,2.9-15.1,0.4c-0.9-0.4-2.9-1.7-3.8-2.7
		c0,0,4.1,1.9,8.7-0.6c2.4-1.4,4.3-4.5,4.3-7.3c0-0.4,0-0.7-0.1-1c-0.3-6.9-7.5-9.7-13.7-9.6c-2,0-4.1,0.3-6.1,0.6
		c-5.3,1-10.4,2.9-14.6,6.4c-9.3,7.4-11,22-1.2,30.3c4.6,4,11.2,4.7,17,5.6c5.7,0.8,11.8,1.4,16.8,4.8c4.6,3.1,7,9.8,5.2,15.3
		c-1.7,5.3-6,8.9-11.3,10.1c-1,0.2-3.2,0.6-4.7,0.4c0,0,4.3-1.2,6.3-6.2c1-2.6,0.4-6.2-1.4-8.4c-0.2-0.3-0.4-0.5-0.7-0.7
		c-4.6-5-11.9-2.6-16.6,1.6c-1.6,1.3-3,2.8-4.3,4.4c-3.5,4.1-6.1,9-7.2,14.4c-2.4,11.7,5.5,24,18.4,24c6.1,0,11.6-3.7,16.5-6.9
		c4.9-3.1,9.9-6.6,15.8-7.3c5.6-0.6,11.6,3,13.7,8.3c2,5.1,1,10.8-2.3,15.2c-0.6,0.8-2.1,2.6-3.3,3.4c0,0,2.6-3.8,0.9-8.8
		c-0.9-2.7-3.7-5-6.4-5.6c-0.3-0.1-0.6-0.1-1-0.1c-6.7-0.9-10.8,5.8-11.7,12.1c-0.3,2-0.4,4.1-0.4,6.2c0,5.5,1,10.8,3.7,15.7
		c5.6,10.6,19.4,14.8,29.2,6.4c4.6-4,6.5-10.4,8.4-16.1c1.8-5.6,3.4-11.6,7.5-15.9c3.8-4.1,10.8-5.2,15.7-2.6
		c4.8,2.6,7.7,7.6,7.8,13.1c0,1,0,3.4-0.4,4.8c0,0-0.4-4.6-4.9-7.3c-2.4-1.5-6-1.5-8.4-0.1c-0.3,0.2-0.6,0.4-0.9,0.5
		c-5.7,3.7-4.5,11.5-1.3,16.8c1,1.8,2.3,3.4,3.6,5c3.5,4.1,7.7,7.6,12.7,9.6c11,4.5,24.3-1.2,26.5-14.1c1-6.1-1.6-12.2-3.8-17.7
		c-2.2-5.5-4.7-11.1-4.3-17.1c0.3-5.6,5-11,10.4-12.2c5.3-1.1,10.6,0.8,14.3,4.9c0.7,0.8,2.1,2.6,2.7,4c0,0-3.2-3.3-8.4-2.4
		c-2.8,0.4-5.5,2.7-6.5,5.4c-1.1,3.1-0.5,6.7,1.7,9.1c1.9,2,4.6,3.7,7.4,3.7c2.4,0,5-0.9,6.7-2.6c0.9-1,1.8-2.4,2.3-3.6
		c2.2-6.6-2.2-13.3-7-17.4c-1.5-1.1-3-2.3-4.7-3.2c-4.1-2.1-8.6-3-13.2-2.4c-3.7,0.5-7.3,1.9-10.1,4.4c-11.7,10.4-3.7,24.2,0.6,35.8
		c2.3,6.2,2.1,13-3,17.7c-8.6,8.1-20.4,1.8-25.1-7.5c1.6,0.9,3.4,1.3,5,1.1c1.3-0.2,2.9-0.6,4-1.3c5.8-3.6,6.8-11.6,5.6-17.9
		c-0.3-1.9-0.9-3.8-1.7-5.5c-1.7-4.2-4.7-7.9-8.6-10.4c-3.1-1.9-6.9-3.3-10.5-3.2c-15.7,0.3-18.2,16.1-22.2,27.9
		c-2.2,6.2-6.6,11.3-13.5,11.6c-11.7,0.6-16.7-12-14.4-22.1c0.6,1.7,1.7,3.2,3.1,4.1c1,0.7,2.6,1.4,3.9,1.6
		c6.8,1,12.6-4.5,15.7-10.1c0.9-1.7,1.7-3.4,2.3-5.3c1.3-4.4,1.5-9.2,0-13.6c-1.1-3.5-3.2-7-6-9.4c-12.2-10-24.1,0.4-34.7,6.9
		c-5.6,3.4-12.2,4.3-17.7,0.1c-9.4-7.1-5.2-20.1,3-26.4c-0.5,1.7-0.7,3.5-0.2,5.3c0.3,1.2,1,2.7,2,3.8c4.5,5.2,12.4,4.8,18.4,2.5
		c1.7-0.7,3.5-1.6,5-2.6c3.8-2.6,7-6.1,8.6-10.4c1.4-3.4,2-7.4,1.3-11.1c-3-15.5-18.8-15.3-30.9-17.4c-6.4-1.1-12.1-4.6-13.7-11.5
		c-2.7-11.6,8.7-18.8,19-18.3c-1.5,1-2.8,2.3-3.5,3.9c-0.5,1.2-1,2.8-0.9,4.1c0.2,7,6.5,11.8,12.5,13.8c1.7,0.6,3.7,1.1,5.5,1.3
		c4.5,0.6,9.1-0.2,13.2-2.4c3.2-1.8,6.2-4.4,8-7.7c7.6-13.8-4.7-24-12.6-33.4c-4.3-5-6.4-11.4-3.2-17.6c5.3-10.7,18.6-8.7,26.1-1.6
		c-1.7-0.3-3.6-0.1-5.1,0.7c-1.1,0.6-2.5,1.6-3.3,2.6c-4.3,5.5-2.4,13.3,0.8,18.8c1,1.6,2.1,3.2,3.4,4.6c3.1,3.4,7.1,5.8,11.6,6.8
		c3.6,0.8,7.6,0.7,11-0.6c14.6-5.6,11.7-21.4,11.5-33.9c-0.1-6.6,2.3-12.9,8.8-15.6c10.8-4.7,19.7,5.5,21.1,15.8
		c-1.1-1.3-2.7-2.4-4.3-2.8c-1.3-0.4-3-0.4-4.2-0.2c-6.7,1.4-10.3,8.6-11.3,14.9c-0.3,1.9-0.4,3.9-0.3,5.7c0.3,4.6,1.7,9.1,4.6,12.8
		c2.3,2.9,5.3,5.5,8.8,6.6c14.8,5.1,22.5-8.8,30.3-18.4c4.1-5.1,10-8.3,16.6-6.3c11.2,3.4,11.7,17.1,6.1,25.8c0-1.8-0.5-3.6-1.6-5
		c-0.8-1.1-2-2.2-3.1-2.9c-6-3.3-13.3-0.2-18.1,4.1c-1.4,1.2-2.8,2.6-3.9,4.1c-2.8,3.7-4.4,8.1-4.6,12.8c-0.1,3.7,0.6,7.7,2.5,10.8
		c8.1,13.6,22.8,7.9,34.9,5.6c6.4-1.2,12.9,0.2,16.7,6c6.4,10.1-2,20.8-11.8,23.8c0.3-0.4,0.5-0.8,0.7-1.2c0.7-1.5,1-3.2,1-4.8
		c-0.1-1.7-0.8-3.3-1.8-4.6c-1.6-2.5-4.4-3.4-7.2-3.5c-5.3-0.1-10.5,5.6-9.3,11c1.9,7.9,10.4,8.4,16.7,5.9c1.9-0.7,3.7-1.7,5.5-2.6
		c4.7-2.7,8.7-6.4,11.6-11C362.1,100.7,358.9,86.4,346.8,81.9"/>
	<path class="st1" d="M341.1,149.1c-3-5.3-9-8.3-14.1-11.1c-5.1-2.7-10.6-5.4-14.2-10.2c-3.3-4.6-3.2-11.6,0.3-16.1
		c2.6-3.4,6.8-5.6,11.1-5.7c1.7-0.1,3.6,0.2,5.3,0.6c0.4,0.1,1.4,0.4,1.6,0.5c-5.3,0-9.7,4.1-9.7,9.3c0,5.1,4.3,9.3,9.7,9.3
		c5.3,0,9.7-4.1,9.7-9.3c0-0.4,0-0.8-0.1-1.1l0,0c0-0.4-0.1-0.6-0.1-1l-0.1-0.4l-0.1-0.4c-0.1-0.3-0.1-0.5-0.2-0.8
		c-0.9-3.1-3.4-5.3-6.2-6.6c-1.5-0.7-3.1-1.4-4.7-1.7c-6.4-1.4-13.7-0.4-19,3.5c-1.4,1-2.8,2.1-3.8,3.4c-2.4,2.7-4.3,6.3-5,10
		c-2.4,15.7,12.4,21,23.1,27c2.3,1.2,4.3,2.8,5.8,4.9c1.6,1.9,2.8,4.2,3,6.8c0.3,3.1-0.1,6.2-1.6,8.9c-2,3.8-5.9,6.1-9.9,6.9
		c-2.2,0.4-4.5,0.4-6.7,0.2c-1.9-0.3-3.8-0.7-5.6-1.5c4.2-1.1,7.2-4.8,7.2-9.1c0-5.2-4.3-9.4-9.7-9.4c-5.3,0-9.7,4.2-9.7,9.4
		c0,2.8,1.5,5.4,3.5,7.2c2.3,2.1,5.2,3.5,8.2,4.4c4,1.2,8.2,1.8,12.4,1.6c1.3-0.1,2.5-0.2,3.8-0.4c1.4-0.3,2.7-0.6,4-1.1
		C341.1,173.5,347.6,160.4,341.1,149.1"/>
</g>
<g>
	<g>
		<g>
			<path class="st0" d="M17.1,287c-2-1.1-3.7-2.1-4.9-2.8c-1.2-0.7-2.2-1.5-3.1-2.4c-0.8-0.8-1.5-1.7-1.9-2.8
				c-0.4-1.1-0.6-2.3-0.6-3.7c0-1.8,0.4-3.4,1.1-4.8s1.7-2.4,3-3.2c1.3-0.8,2.8-1.2,4.5-1.2c2.6,0,4.7,0.8,6.2,2.4
				c1.6,1.6,2.5,3.5,2.8,5.6l0.1,0.6h1.8v-11.4h-1.7l-0.1,0.5c-0.2,0.9-0.6,0.9-0.8,0.9c-0.5,0-0.8-0.1-1.2-0.2
				c-5.2-1.7-10.3-1.4-14.3,0.8c-2.3,1.3-4,3-5.2,5.1s-1.9,4.4-1.9,6.7c0,2,0.4,3.8,1,5.4c0.7,1.6,1.6,2.9,2.8,4.1
				c1.1,1.1,2.3,2,3.4,2.7s2.7,1.6,5.1,2.9c3.2,1.7,5.6,3.4,7.2,5c1.5,1.5,2.2,3.6,2.2,6c0,1.2-0.3,2.4-0.8,3.6
				c-0.5,1.1-1.4,2.1-2.7,3c-1.3,0.8-3.1,1.2-5.4,1.2c-3,0-5.6-0.8-7.7-2.5s-3.5-4.2-4.3-7.5l-0.1-0.5H0v13.2h1.8l0.1-0.5
				c0.3-1.3,0.4-1.8,0.5-2c0,0,0-0.1,0.3-0.1c0,0,0.3,0,1,0.3c1.6,0.8,3.1,1.4,4.7,1.8c1.5,0.4,3.3,0.6,5.3,0.6
				c3.2,0,5.9-0.6,8.1-1.9s3.9-2.9,4.9-4.9c1.1-2,1.6-4,1.6-6.1c0-3.5-1-6.2-3.1-8.2C23.3,290.8,20.6,288.9,17.1,287"/>
			<path class="st0" d="M34.9,266.2h0.7c1.2,0,2.3,0.3,3.1,1c0.8,0.6,1.2,1.8,1.2,3.5v35.8c0,1.6-0.4,2.8-1.2,3.5
				c-0.9,0.7-1.9,1.1-3.1,1.1h-0.7v1.8h16.3v-1.8h-0.7c-1.1,0-2.1-0.4-3.1-1.1c-0.9-0.7-1.3-1.8-1.3-3.4v-35.8
				c0-1.6,0.4-2.8,1.2-3.4c0.9-0.7,1.9-1,3.2-1h0.7v-1.9H34.9V266.2z"/>
			<path class="st0" d="M101.5,266.2v-1.9H88.2v1.8l0.5,0.1c0.4,0.1,0.7,0.2,1.1,0.3c0.3,0.1,0.5,0.3,0.8,0.6
				c0.2,0.3,0.4,0.7,0.4,1.3c0,0.6-0.3,1.8-1.9,4.1l-8.2,12.3l-9.3-13.7c-0.9-1.4-1.1-2.1-1.1-2.5c0-0.5,0.2-1,0.6-1.5
				c0.3-0.5,1.3-0.8,2.8-0.8h0.7v-1.9H56.4v1.9H57c1.6,0,2.9,0.4,3.8,0.9c0.9,0.6,2,1.8,3.2,3.7l12,17.7v17.9c0,1.5-0.4,2.7-1.1,3.3
				c-0.8,0.7-1.8,1.1-3.2,1.1h-0.6v1.8h16.3v-1.8h-0.7c-1.3,0-2.4-0.4-3.3-1.2c-0.9-0.7-1.3-1.8-1.3-3.3v-18.7L93,271.3
				c0.7-1,1.4-1.8,1.9-2.5c0.6-0.6,1.4-1.3,2.4-1.9s2.1-0.9,3.4-0.9L101.5,266.2z"/>
			<path class="st0" d="M127.4,290.6h-13.2l6.4-19.8L127.4,290.6z M142.5,310.5c-0.3-0.1-0.9-0.5-1.6-1.5c-0.6-0.9-1.3-2.4-2-4.4
				l-14.3-40.9h-4.4l-13.5,41.1c-0.7,2.1-1.5,3.6-2.3,4.6c-0.8,0.9-1.9,1.5-3.4,1.6l-0.6,0.1v1.8h12.4v-1.8h-0.7
				c-1.1,0-1.9-0.2-2.5-0.6c-0.5-0.3-0.7-1-0.7-2.1c0-0.9,0.3-2.1,0.7-3.6l3.6-11.1h15.4l4,12c0,0.1,0.1,0.3,0.2,0.5
				c0.4,1.2,0.6,2.1,0.6,2.7c0,1.5-0.6,1.7-0.8,1.8c-0.8,0.3-1.9,0.4-3.4,0.4h-0.7v1.8h16.7v-1.8l-0.6-0.1
				C143.7,310.9,143,310.7,142.5,310.5"/>
			<path class="st0" d="M203.4,311c-2,0-3.2-0.5-3.8-1.3c-0.6-1-0.9-2.1-1-3.5l-1.6-35V271c0-0.1,0-0.1,0-0.2v-0.2
				c0.1-1.4,0.2-2.1,0.3-2.4s0.4-0.7,1.1-1.3c0.4-0.3,0.7-0.5,1-0.5c0.4-0.1,1-0.2,1.9-0.3l0.6-0.1v-1.8h-11l-14.4,37.4l-14.2-37.4
				h-12.1v1.8h0.6c0.9,0.1,1.7,0.1,2.2,0.2c0.4,0.1,1,0.3,1.7,0.7c0.3,0.2,0.6,0.4,1,0.7c0.3,0.3,0.6,0.6,0.9,0.9
				c0.2,0.2,0.2,0.3,0.2,0.3l-1.9,34.5c-0.1,1.8-0.3,3.2-0.5,4.2c-0.2,0.9-0.7,1.7-1.3,2.3c-0.7,0.6-1.7,0.9-3,0.9h-0.7v1.8h13.2
				v-1.7l-0.6-0.1c-1.2-0.2-2.2-0.5-2.8-0.9c-0.5-0.3-1-1-1.2-1.8c-0.3-0.9-0.4-2.3-0.3-4l1.6-30.6l15.4,40.3l16.3-41.9l1.5,33.4
				c0.1,1.8-0.2,3.2-0.8,4s-1.8,1.3-3.6,1.5l-0.6,0.1v1.8h16.6v-1.8L203.4,311z"/>
		</g>
	</g>
	<path class="st0" d="M299.4,264.3v1.4c-1.9,0.1-3.5,0.9-4.8,2.4c-1.3,1.4-2.5,3.9-3.8,7.5l-13.6,37.9h-1.5l-13.2-35.8l-12.8,35.8
		h-1.4l-14.8-40c-0.8-2.2-1.6-3.8-2.2-4.9c-0.6-1.1-1.3-1.8-2.1-2.2c-0.7-0.4-2.1-0.6-3.9-0.6v-1.4h18v1.4c-2.8,0.3-4.3,1.4-4.3,3.1
		c0,0.7,0.2,1.6,0.6,2.7l11.4,30.8l10.3-28.2l-1.1-3.1c-0.7-2-1.5-3.3-2.5-4.1c-1-0.8-2.4-1.2-4.2-1.2v-1.4h17.7v1.4
		c-3.1,0-4.7,1-4.7,2.9c0,0.8,0.2,1.8,0.7,3.1l11.3,30.7l9.9-27.1c0.8-2.2,1.2-4,1.2-5.4c0-2.8-1.6-4.2-4.8-4.2v-1.3h14.6V264.3z"/>
	<path class="st0" d="M298.5,288.3c0-7.2,2.5-13.2,7.4-18c5-4.8,11.1-7.2,18.6-7.2c7.2,0,13.3,2.4,18.3,7.3s7.5,10.8,7.5,17.9
		c0,7.2-2.5,13.3-7.5,18.2c-5,5-11.1,7.4-18.4,7.4c-7.2,0-13.3-2.5-18.3-7.4C301,301.6,298.5,295.5,298.5,288.3z M306,288.4
		c0,7.1,1.7,12.8,5,17.2c3.4,4.4,7.8,6.5,13.2,6.5c5.5,0,10-2.2,13.4-6.7s5.1-10,5.1-16.7c0-7.2-1.7-12.9-5-17.3
		c-3.4-4.3-7.7-6.5-13.1-6.5c-5.7,0-10.2,2.1-13.6,6.4C307.7,275.6,306,281.3,306,288.4z"/>
	<path class="st0" d="M370.4,290.3h-3.9v13.3c0,2.9,0.4,4.9,1.2,6c0.8,1.1,2.3,1.7,4.3,1.7v1.4h-17.4v-1.4c2.2,0,3.6-0.6,4.4-1.7
		s1.1-3.1,1.1-6v-30.4c0-2.9-0.4-4.8-1.1-5.9s-2.2-1.6-4.4-1.6v-1.4h19.9c4.9,0,8.8,1.2,11.8,3.6c2.9,2.4,4.4,5.4,4.4,9.1
		c0,6-3.3,9.9-10,11.9c1.5,0.9,2.9,2.2,4.3,3.9c1.4,1.6,3.2,4.4,5.5,8.2c2.5,4.2,4.5,7,5.9,8.3s2.9,2,4.4,2.1v1.4h-9.9
		c-2-2.5-4.5-6.1-7.4-10.8c-3.1-5-5.5-8.2-7.3-9.6S372.5,290.3,370.4,290.3z M371.5,266.2h-5.1v22.2h6c3.6,0,6.3-1,8.4-3.1
		c2-2,3-4.7,3-8.1c0-3.3-1.1-5.9-3.4-8C378.2,267.2,375.2,266.2,371.5,266.2z"/>
	<path class="st0" d="M443.7,302.2h1.4l-3,10.6H407v-1.4c2,0,3.4-0.6,4.2-1.9c0.8-1.2,1.3-3.3,1.3-6.2v-30.5c0-2.6-0.4-4.4-1.2-5.5
		c-0.8-1-2.2-1.6-4.3-1.6v-1.4h17.4v1.4c-1.9,0-3.3,0.6-4.2,1.8c-0.8,1.2-1.3,3.1-1.3,5.9v32.4c0,1.8,0.4,3,1.1,3.7
		c0.8,0.7,2.2,1,4.4,1h9.6c3,0,5.1-0.5,6.2-1.6C441.6,307.8,442.7,305.6,443.7,302.2z"/>
	<path class="st0" d="M449.5,312.8v-1.4c2.1,0,3.5-0.6,4.3-1.7s1.2-3.1,1.2-6v-30.2c0-2.9-0.4-4.9-1.2-6c-0.8-1.1-2.2-1.7-4.3-1.7
		v-1.4h22.4c8.3,0,14.9,2.4,19.9,7.1s7.5,10.7,7.5,18c0,7.1-2.4,12.8-7.1,17.1c-4.7,4.2-11.3,6.4-19.7,6.4h-23L449.5,312.8
		L449.5,312.8z M470.6,266.2h-9.2v35.7c0,3.4,0.4,5.8,1.2,7.1c0.8,1.3,2.5,1.9,5,1.9h5c6,0,10.6-1.9,14.1-5.8
		c3.4-3.8,5.1-9.1,5.1-15.7c0-7.1-1.9-12.7-5.6-16.9C482.4,268.3,477.3,266.2,470.6,266.2z"/>
</g>
<g>
	<path class="st0" d="M150.6,369v-21.3l-2.3-4.3h5.5c0,0.5,0,0.7,0,0.9c0,1.2,0.2,2.2,0.8,3.3l9.7,19.2l8.6-18.1
		c0.7-1.4,1-2.8,1-4.1c0-0.4,0-0.6-0.1-1.2h4.7c-0.8,1.4-0.9,2.1-0.9,4.4V369c0,2.3,0.1,3.1,0.9,4.4H173c0.8-1.4,0.9-2.1,0.9-4.4
		v-15.2l-9.7,19.7L154,353.8V369c0,2.3,0.1,3.1,0.9,4.4h-5.1C150.5,372.1,150.6,371.4,150.6,369z"/>
	<path class="st0" d="M186.2,369l11.7-27.2l12.2,27.5c1,2.3,1.5,3.2,2.2,4.2h-5.6c0.1-0.7,0.2-1.3,0.2-1.6c0-0.7-0.3-1.7-0.8-2.8
		l-2.6-6h-11.3l-2.4,5.8c-0.4,1-0.6,2-0.6,2.9c0,0.6,0.1,1,0.3,1.8H184C184.6,372.4,185.4,370.9,186.2,369z M202.5,360.6l-4.7-11
		l-4.6,11H202.5z"/>
	<path class="st0" d="M219,369.1v-21.3c0-2.3-0.1-3.1-0.9-4.4h5.4c-0.8,1.3-0.9,2.1-0.9,4.4v23.3h3.7c3.3,0,5.4-0.5,8.3-1.9
		l-1.9,4.3h-14.5C218.9,372.1,219,371.4,219,369.1z"/>
	<path class="st0" d="M241.4,369v-21.2c0-2.3-0.1-3.1-0.9-4.4h6c5.2,0,9.3,1.4,12.4,4.1c3.1,2.8,4.7,6.7,4.7,11.2
		c0,4.8-1.8,8.6-5.3,11.3c-3,2.3-6.8,3.4-11.8,3.4h-5.9C241.2,372.1,241.4,371.4,241.4,369z M254,369.2c3.6-2.1,5.6-5.9,5.6-10.6
		c0-5.1-2.4-9.4-6.4-11.3c-2.1-1-4.6-1.5-8.2-1.5v25.3C249,371,251.7,370.5,254,369.2z"/>
	<path class="st0" d="M271.2,369v-21.2c0-2.3-0.1-3.1-0.9-4.4h5.4c-0.8,1.4-0.9,2.1-0.9,4.4V369c0,2.3,0.1,3.1,0.9,4.4h-5.4
		C271,372.1,271.2,371.4,271.2,369z"/>
	<path class="st0" d="M284.2,349.2c-1-2.8-1.8-4.5-2.8-5.9h5.3c0,0.5,0,0.7,0,1c0,1.2,0.3,2.4,1,4.5l6.9,19.3l6.8-19
		c0.5-1.6,0.9-3,0.9-4.1c0-0.6,0-1-0.3-1.8h5.2c-0.7,1.2-1.4,2.7-2.7,6.1l-8.8,24h-2.5L284.2,349.2z"/>
	<path class="st0" d="M313.9,369.1v-21.3c0-2.3-0.1-3.1-0.9-4.4h16.5l-2,3.6c-1.3-0.9-2.9-1.2-6.1-1.2h-4v10.9h10.7l-2.1,3.7
		c-1.6-1.1-3-1.4-5.9-1.4h-2.8v12.2h4.2c3.5,0,5.3-0.3,8.3-1.4l-1.8,3.8h-15C313.8,372.1,313.9,371.4,313.9,369.1z"/>
	<path class="st0" d="M351,348.4c-2.3-2.1-4.1-2.9-6.3-2.9c-3.2,0-5.6,2.5-5.6,5.8c0,1.3,0.4,2.5,1,3.2c0.7,0.9,1.1,1.2,4.1,3.1
		c5.1,3.3,6.8,5.4,6.8,8.6c0,4.6-4,7.8-9.5,7.8c-1.6,0-3.2-0.2-4.6-0.6v-4c2,1.4,3.7,1.9,5.7,1.9c3,0,4.9-1.8,4.9-4.5
		c0-2.6-1.2-4.1-5.4-6.7c-2.7-1.7-3.5-2.3-4.4-3.2c-1.4-1.4-2.1-3.3-2.1-5.3c0-5,4.3-8.9,9.9-8.9c1.9,0,3.7,0.4,5.6,1.2v4.5H351z"/>
</g>
</svg>
