<svg id="Group_1690" data-name="Group 1690" xmlns="http://www.w3.org/2000/svg" width="26.839" height="19.74" viewBox="0 0 26.839 19.74">
  <g id="Group_10" data-name="Group 10" transform="translate(9.041)">
    <path id="Path_17" data-name="Path 17" d="M5236.2,1405.033l-.45-.466a15.722,15.722,0,0,1-1.964-2.657,11.593,11.593,0,0,1,0-12.916,15.722,15.722,0,0,1,1.964-2.657l.45-.467.451.467a15.737,15.737,0,0,1,1.964,2.656,11.595,11.595,0,0,1,0,12.917,15.737,15.737,0,0,1-1.964,2.656Zm0-17.3c-.961,1.179-3.127,4.225-3.127,7.724s2.164,6.546,3.125,7.723c.962-1.179,3.127-4.225,3.127-7.723S5237.16,1388.905,5236.2,1387.728Z" transform="translate(-5231.818 -1385.87)" fill="#ff5000"/>
  </g>
  <g id="Group_11" data-name="Group 11" transform="translate(15.263 4.364)">
    <path id="Path_18" data-name="Path 18" d="M5238.667,1405.61a.627.627,0,0,1-.107-1.245c.05-.009,5.111-.935,7.75-4.549,2.069-2.834,2.112-6.564,2.03-8.082a14.493,14.493,0,0,0-5.734,2.924.627.627,0,1,1-.832-.937,15.8,15.8,0,0,1,7.021-3.376l.639-.111.089.642a15.819,15.819,0,0,1,.02,3.3,11.6,11.6,0,0,1-7.617,10.432,15.829,15.829,0,0,1-3.151.988A.679.679,0,0,1,5238.667,1405.61Z" transform="translate(-5238.041 -1390.234)" fill="#ff5000"/>
  </g>
  <g id="Group_12" data-name="Group 12" transform="translate(0 4.364)">
    <path id="Path_19" data-name="Path 19" d="M5233.728,1405.61a.654.654,0,0,1-.108-.01,15.77,15.77,0,0,1-3.152-.987,11.6,11.6,0,0,1-7.617-10.433,15.768,15.768,0,0,1,.02-3.3l.089-.643.639.111a15.82,15.82,0,0,1,7.021,3.376.627.627,0,0,1-.832.938,14.433,14.433,0,0,0-5.732-2.925c-.081,1.519-.035,5.255,2.029,8.082,2.646,3.625,7.7,4.54,7.75,4.549a.627.627,0,0,1-.107,1.245Z" transform="translate(-5222.777 -1390.234)" fill="#ff5000"/>
  </g>
</svg>
