<svg xmlns="http://www.w3.org/2000/svg" width="27.139" height="32.67" viewBox="0 0 27.139 32.67">
  <g id="noun_Fishing_850356" transform="translate(-14.873 -3.812)">
    <g id="Group_1696" data-name="Group 1696" transform="translate(24.103 3.812)">
      <path id="Path_37" data-name="Path 37" d="M39.654,16.389a.378.378,0,0,1-.378-.378V4.19a.378.378,0,1,1,.756,0V16.01A.378.378,0,0,1,39.654,16.389Z" transform="translate(-39.276 -3.812)" fill="#ff5000"/>
    </g>
    <g id="Group_1697" data-name="Group 1697" transform="translate(28.9 9.571)">
      <path id="Path_38" data-name="Path 38" d="M62.861,45.95H54.167a.378.378,0,0,1-.293-.618l2.949-3.6c-1.918-2.08-4.865-6.021-4.865-10.589a15.039,15.039,0,0,1,3.161-8.514,21.8,21.8,0,0,1,3.15-3.5.378.378,0,0,1,.49,0,21.824,21.824,0,0,1,3.15,3.5,15.039,15.039,0,0,1,3.161,8.514c0,4.569-2.948,8.509-4.866,10.589l2.949,3.6a.378.378,0,0,1-.292.618Zm-7.9-.756h7.1l-2.653-3.239a.378.378,0,0,1,.018-.5c1.825-1.923,4.886-5.82,4.886-10.312,0-5.5-4.667-10.165-5.8-11.216-1.133,1.052-5.8,5.722-5.8,11.216,0,4.49,3.061,8.388,4.886,10.312a.378.378,0,0,1,.018.5Z" transform="translate(-51.958 -19.039)" fill="#ff5000"/>
    </g>
    <g id="Group_1698" data-name="Group 1698" transform="translate(32.339 19.687)">
      <path id="Path_39" data-name="Path 39" d="M64.169,47.771c-1.777,0-3.117-.691-3.117-1.607a.378.378,0,1,1,.756,0c0,.339.941.851,2.36.851s2.36-.512,2.36-.851a.378.378,0,1,1,.756,0C67.285,47.08,65.946,47.771,64.169,47.771Z" transform="translate(-61.052 -45.785)" fill="#ff5000"/>
    </g>
    <g id="Group_1699" data-name="Group 1699" transform="translate(32.339 17.04)">
      <path id="Path_40" data-name="Path 40" d="M64.169,40.771c-1.777,0-3.117-.691-3.117-1.607a.378.378,0,0,1,.756,0c0,.339.941.851,2.36.851s2.36-.512,2.36-.851a.378.378,0,0,1,.756,0C67.285,40.08,65.946,40.771,64.169,40.771Z" transform="translate(-61.052 -38.785)" fill="#ff5000"/>
    </g>
    <g id="Group_1700" data-name="Group 1700" transform="translate(33.682 13.973)">
      <circle id="Ellipse_1" data-name="Ellipse 1" cx="0.64" cy="0.64" r="0.64" transform="translate(0 0)" fill="#ff5000"/>
    </g>
    <g id="Group_1703" data-name="Group 1703" transform="translate(34.132 34.028)">
      <g id="Group_1701" data-name="Group 1701">
        <path id="Path_41" data-name="Path 41" d="M66.17,86.02a.378.378,0,0,1-.378-.378V84.079a.378.378,0,1,1,.756,0v1.563A.378.378,0,0,1,66.17,86.02Z" transform="translate(-65.792 -83.701)" fill="#ff5000"/>
      </g>
      <g id="Group_1702" data-name="Group 1702" transform="translate(1.891)">
        <path id="Path_42" data-name="Path 42" d="M71.17,86.02a.378.378,0,0,1-.378-.378V84.079a.378.378,0,1,1,.756,0v1.563A.378.378,0,0,1,71.17,86.02Z" transform="translate(-70.792 -83.701)" fill="#ff5000"/>
      </g>
    </g>
    <g id="Group_1706" data-name="Group 1706" transform="translate(14.873 16.076)">
      <g id="Group_1704" data-name="Group 1704" transform="translate(0 0)">
        <path id="Path_43" data-name="Path 43" d="M20.178,56.642a5.3,5.3,0,0,1-5.279-5.1.348.348,0,0,1-.026-.13V49.272A.378.378,0,0,1,15.519,49L17.613,51.1a.378.378,0,0,1,.16.309.371.371,0,0,1-.382.378h-.533a3.349,3.349,0,0,0,6.67-.428V40.427a2.206,2.206,0,1,1,1.934-.014V51.358A5.29,5.29,0,0,1,20.178,56.642ZM15.63,51.284a.341.341,0,0,1,.023.119,4.527,4.527,0,0,0,9.053-.046V40.162a.379.379,0,0,1,.253-.357,1.448,1.448,0,1,0-.933.008.378.378,0,0,1,.259.359V51.358a4.105,4.105,0,0,1-8.211.055.378.378,0,0,1,.378-.383h.022l-.844-.844v1.1Z" transform="translate(-14.873 -36.236)" fill="#ff5000"/>
      </g>
      <g id="Group_1705" data-name="Group 1705" transform="translate(8.317 0.912)">
        <path id="Path_44" data-name="Path 44" d="M38.153,41.231a1.292,1.292,0,1,1,1.292-1.292A1.293,1.293,0,0,1,38.153,41.231Zm0-1.826a.535.535,0,1,0,.535.535A.536.536,0,0,0,38.153,39.4Z" transform="translate(-36.862 -38.648)" fill="#ff5000"/>
      </g>
    </g>
  </g>
</svg>
