<?xml version="1.0" encoding="utf-8"?>
<!-- Generator: Adobe Illustrator 24.2.1, SVG Export Plug-In . SVG Version: 6.00 Build 0)  -->
<svg version="1.1" id="Layer_1" xmlns="http://www.w3.org/2000/svg" xmlns:xlink="http://www.w3.org/1999/xlink" x="0px" y="0px"
	 viewBox="0 0 20.1 34" style="enable-background:new 0 0 20.1 34;" xml:space="preserve">
<style type="text/css">
	.st0{fill:#FF5000;}
</style>
<path id="noun_Kid_1986117" class="st0" d="M13.8,15.4c0.7-0.5,1.4-1.1,1.8-1.8l0.1,0c0.4,0.1,0.8,0,1.2-0.2
	c0.7-0.3,1.1-1.1,0.9-1.9c-0.2-0.5-0.6-0.8-1.1-0.9l0,0c0-0.1,0.1-0.1,0.1-0.2c0.6-0.7,0.7-3,0.7-3.3c0-0.2,0-0.4,0-0.6
	c0.1-0.9,0-1.7-0.4-2.5c-0.4-0.6-1-1.1-1.6-1.3c-0.2-0.1-0.4-0.1-0.6-0.2c-0.2,0-0.3-0.1-0.5-0.2c-0.1,0-0.1,0-0.2-0.2
	c-1.5-2.7-4.6-2.1-7-1.7C6.1,0.6,4.9,0.8,4.2,0.5C4.1,0.4,3.9,0.5,3.8,0.6C3.7,0.7,3.4,1,4.6,2.6C3.9,2.9,3.4,3.3,3,3.9
	C2.7,4.7,2.5,5.5,2.6,6.4c0,0.2,0,0.4,0,0.6c0,0.2,0.1,2.6,0.7,3.3c0,0,0.1,0.1,0.1,0.1c-0.6,0.1-1,0.4-1.2,1
	C2,12.2,2.4,13,3.2,13.3c0.4,0.2,0.8,0.3,1.2,0.2l0.1,0c0.5,0.8,1.2,1.4,2,1.8C7.2,15.8,8.1,16,9,16.1v0c-0.9-0.2-1.9,0-2.6,0.6
	c-0.4,0.3-0.6,0.8-0.7,1.4c0,0.2,0,0.4,0.1,0.7c-0.1,0-0.1,0-0.2,0.1C5,19.3,4.4,19.9,4,20.6c-0.5,1-0.8,2.1-0.8,3.2
	c0,0.8,0,1.7,0.1,2.5c0,0.3,0.3,0.4,0.9,0.4c0.2,0,0.5,0,0.8,0c0.4,0,0.9,0,1.3,0h0.8c1,0,2.3,0,3,0c0.6,0,2,0,3,0h0.8
	c0.5,0,0.9,0,1.3,0c0.3,0,0.6,0,0.8,0c0.6,0,0.9-0.1,0.9-0.4c0.1-0.8,0.1-1.7,0.1-2.5c0-1.1-0.3-2.2-0.8-3.2c-0.4-0.7-1-1.3-1.7-1.8
	c0,0-0.1-0.1-0.2-0.1c0.1-0.2,0.1-0.4,0.1-0.7c0-0.5-0.2-1-0.7-1.4c-0.8-0.5-1.7-0.7-2.6-0.6v0C12.1,16.1,13,15.8,13.8,15.4z M9,26
	c-0.6,0-1.3,0-1.9,0H6.7v-1.5c0-0.2-0.1-0.3-0.3-0.4c-0.2,0-0.3,0.1-0.4,0.3c0,0,0,0,0,0V26c-0.4,0-0.8,0-1.1,0c-0.4,0-0.8,0-1,0
	c-0.1-0.7-0.1-1.5-0.1-2.2c0-1,0.2-2,0.7-2.9c0.4-0.6,0.9-1.2,1.5-1.6c0.4,0.7,0.9,1.4,1.4,2c0,0,0,0.1,0,0.1V23
	c0,0.2,0.2,0.3,0.4,0.3c0.2,0,0.3-0.1,0.3-0.3V22c0.4,0.3,0.7,0.6,0.9,0.7L9,26z M9,21.8c-0.9-0.7-2.6-2.3-2.6-3.7
	c0-0.3,0.2-0.7,0.4-0.9c0.6-0.4,1.4-0.6,2.2-0.4L9,21.8z M3.3,7.1c0-0.2,0-0.4,0-0.6c-0.1-0.7,0-1.5,0.3-2.2c0.3-0.5,0.8-0.8,1.3-1
	c0.1,0,0.2-0.1,0.3-0.1C5.4,3,5.5,2.9,5.4,2.7c0,0,0-0.1-0.1-0.1C5.1,2.2,4.8,1.8,4.5,1.3c1,0.1,2,0,3-0.3c2.3-0.4,5-0.9,6.3,1.3
	c0.1,0.2,0.3,0.4,0.5,0.5C14.4,2.9,14.6,3,14.8,3c0.2,0,0.3,0.1,0.5,0.2c0.5,0.2,1,0.6,1.3,1C17,4.9,17.1,5.7,17,6.4
	c0,0.2,0,0.4,0,0.6c0,0.4-0.2,2.4-0.6,2.8c0,0.1-0.1,0.1-0.1,0.2l-0.1,0.1c0-0.2-0.1-0.4-0.1-0.6c0-0.8-0.3-1.5-0.8-2.1
	c-1-0.9-1.4-2.3-1.1-3.6c0.1-0.2,0-0.4-0.2-0.4c-0.1,0-0.2,0-0.3,0c-1.1,0.8-3,0.9-3.9,0.9C8.7,4.5,7.6,4.3,6.6,3.8
	c-0.2-0.1-0.4,0-0.5,0.1c0,0.1-0.1,0.2,0,0.2C6.3,5.4,5.9,6.6,5,7.5C4.4,8,4.1,8.8,4.1,9.5c0,0.2,0,0.4-0.1,0.6L4,10.1
	c0-0.1-0.1-0.1-0.1-0.2C3.5,9.5,3.3,7.5,3.3,7.1L3.3,7.1z M10.5,26h-0.3h0h-0.1H10c0,0,0,0,0,0H9.6v-5.7h0.9L10.5,26z M14.1,19.4
	c0.6,0.4,1.1,1,1.5,1.6c0.5,0.9,0.7,1.9,0.7,2.9c0,0.7,0,1.5-0.1,2.2c-0.2,0-0.6,0-1,0c-0.3,0-0.7,0-1.1,0v-1.5
	c0-0.2-0.1-0.3-0.3-0.4c-0.2,0-0.3,0.1-0.4,0.3c0,0,0,0,0,0V26H13c-0.6,0-1.3,0-1.9,0v-3.3c0.2-0.1,0.5-0.4,0.9-0.7V23
	c0,0.2,0.2,0.3,0.4,0.3c0.2,0,0.3-0.1,0.3-0.3v-1.5c0-0.1,0-0.1,0-0.1C13.3,20.8,13.7,20.1,14.1,19.4L14.1,19.4z M13.3,17.2
	c0.3,0.2,0.4,0.5,0.4,0.9c0,1.4-1.7,3-2.6,3.7v-5C11.9,16.7,12.7,16.8,13.3,17.2L13.3,17.2z M10.8,15.5c-0.2,0-0.3,0.2-0.4,0.3v3.8
	H9.6v-3.8c0-0.2-0.2-0.3-0.4-0.3c-0.9-0.1-1.7-0.3-2.5-0.7c-0.8-0.4-1.4-1-1.8-1.7c-0.2-0.2-0.4-0.2-0.7-0.2c-0.3,0.1-0.5,0-0.8-0.1
	C3,12.4,2.7,12,2.8,11.6C3,11.3,3.4,11.1,4,11.1c0.1,0,0.2,0,0.3-0.1c0.3-0.1,0.4-0.5,0.4-0.6c0.1-0.3,0.1-0.5,0.1-0.8
	C4.8,9,5,8.4,5.4,8c0.9-0.9,1.4-2.1,1.4-3.3c1,0.4,2,0.5,3.1,0.5c1.2,0,2.4-0.2,3.6-0.7c-0.1,1.3,0.4,2.6,1.4,3.5
	c0.4,0.4,0.6,1,0.6,1.7c0,0.3,0.1,0.5,0.1,0.8c0,0.2,0.1,0.3,0.2,0.4c0,0.1,0.2,0.3,0.3,0.2c0.6,0,1,0.2,1.2,0.5s-0.1,0.8-0.7,1.1
	c-0.2,0.1-0.5,0.2-0.8,0.1c-0.2,0-0.5-0.1-0.7,0.2c-0.4,0.7-1,1.3-1.7,1.7C12.7,15.2,11.8,15.4,10.8,15.5z"/>
</svg>
