<svg id="Group_1694" data-name="Group 1694" xmlns="http://www.w3.org/2000/svg" width="26.63" height="26.625" viewBox="0 0 26.63 26.625">
  <path id="Path_32" data-name="Path 32" d="M5249.029,1528.545l-2.542-1.825a2.242,2.242,0,0,0-2.363-.119l-3.59-3.59a10.671,10.671,0,0,0,1.137-1.465l5.982-9.124a3.14,3.14,0,0,0-4.367-4.367l-9.123,5.983a10.7,10.7,0,0,0-1.466,1.136l-3.589-3.589a2.184,2.184,0,0,0-.12-2.363l-1.824-2.543h0a1.226,1.226,0,0,0-.868-.478,1.254,1.254,0,0,0-.957.329l-2.124,2.124a1.256,1.256,0,0,0-.329.957,1.225,1.225,0,0,0,.479.867l2.542,1.825a2.249,2.249,0,0,0,1.287.389,2.3,2.3,0,0,0,1.076-.27l3.59,3.59a10.688,10.688,0,0,0-1.137,1.466l-5.982,9.123a3.17,3.17,0,0,0,.389,3.978h0a3.288,3.288,0,0,0,2.243.927,3.11,3.11,0,0,0,1.735-.538l9.123-5.983a10.642,10.642,0,0,0,1.466-1.136l3.589,3.589a2.184,2.184,0,0,0,.12,2.363l1.824,2.543h0a1.226,1.226,0,0,0,.868.478h.09a1.345,1.345,0,0,0,.867-.359l2.124-2.123a1.259,1.259,0,0,0,.329-.958A1.228,1.228,0,0,0,5249.029,1528.545Zm-14.208-13.52,9.123-5.983a2.071,2.071,0,0,1,1.077-.329,1.884,1.884,0,0,1,1.376.6,1.944,1.944,0,0,1,.269,2.452l-5.982,9.123a13.56,13.56,0,0,1-.987,1.287l-.958-.958a6.929,6.929,0,0,0,1.436-2.512,2.644,2.644,0,0,0-.448-2.722c-1.107-1.107-3.351-.658-5.235.987l-.957-.957A13.2,13.2,0,0,1,5234.821,1515.025Zm2.243,6.191a6.205,6.205,0,0,1-2,1.137,1.731,1.731,0,0,1-1.555-.149,1.632,1.632,0,0,1-.15-1.556,6.238,6.238,0,0,1,1.137-2Zm-1.734-3.409a4.64,4.64,0,0,1,2.751-1.257,1.139,1.139,0,0,1,.808.269,1.736,1.736,0,0,1,.15,1.556,6.228,6.228,0,0,1-1.137,2Zm-7.448-6.581a.988.988,0,0,1-1.287.09l-2.542-1.8,2.153-2.154,1.795,2.543a.986.986,0,0,1-.09,1.286Zm9.691,12.772-9.123,5.983a1.944,1.944,0,0,1-2.453-.27h0a1.944,1.944,0,0,1-.269-2.452l5.982-9.123a13.586,13.586,0,0,1,.987-1.287l.957.958a6.949,6.949,0,0,0-1.435,2.512,2.644,2.644,0,0,0,.448,2.722,2.244,2.244,0,0,0,1.646.6,5.76,5.76,0,0,0,3.589-1.585l.957.957A13.2,13.2,0,0,1,5237.573,1524Zm8.615,7.658h0l-1.795-2.543a.986.986,0,0,1,.09-1.286h.029a.988.988,0,0,1,1.287-.09l2.542,1.795Z" transform="translate(-5222.882 -1506.197)" fill="#ff5000"/>
</svg>
