<svg xmlns="http://www.w3.org/2000/svg" width="33.812" height="21.303" viewBox="0 0 33.812 21.303">
  <g id="noun_Swimming_1667477" transform="translate(-2.062 -24.926)">
    <g id="Group_1707" data-name="Group 1707" transform="translate(2.062 24.926)">
      <path id="Path_45" data-name="Path 45" d="M85.5,54.847A4.447,4.447,0,1,0,89.947,50.4,4.448,4.448,0,0,0,85.5,54.847Zm7.8,0a3.356,3.356,0,1,1-3.356-3.356A3.354,3.354,0,0,1,93.3,54.847Z" transform="translate(-62.734 -43.449)" fill="#ff5000"/>
      <path id="Path_46" data-name="Path 46" d="M35.606,96.55a6.549,6.549,0,0,0-3.629-1.064,4.838,4.838,0,0,0-1.828.546,2.767,2.767,0,0,1-1.364.409,2.6,2.6,0,0,1-1.364-.409,3.661,3.661,0,0,0-1.855-.518h-.027a3.551,3.551,0,0,0-1.828.518,2.5,2.5,0,0,1-1.337.409,2.7,2.7,0,0,1-1.392-.382,3.887,3.887,0,0,0-1.91-.518,3.935,3.935,0,0,0-1.937.491,2.936,2.936,0,0,1-1.473.382A2.726,2.726,0,0,1,14.242,96a3.663,3.663,0,0,0-3.711.027,2.6,2.6,0,0,1-1.364.409A2.751,2.751,0,0,1,7.8,96.058,4.568,4.568,0,0,0,6,95.54a6.772,6.772,0,0,0-3.656.9.543.543,0,0,0,.518.955A5.712,5.712,0,0,1,5.947,96.6a3.785,3.785,0,0,1,1.419.437,3.973,3.973,0,0,0,1.828.464,3.661,3.661,0,0,0,1.855-.518,2.6,2.6,0,0,1,1.364-.409h.027a2.57,2.57,0,0,1,1.337.382,3.688,3.688,0,0,0,1.883.518,3.935,3.935,0,0,0,1.937-.491,3.016,3.016,0,0,1,1.473-.382,2.912,2.912,0,0,1,1.446.409A3.789,3.789,0,0,0,22.4,97.5a3.375,3.375,0,0,0,1.828-.546,2.471,2.471,0,0,1,1.31-.382,2.6,2.6,0,0,1,1.364.409,3.628,3.628,0,0,0,3.738,0,3.1,3.1,0,0,1,1.392-.437,5.314,5.314,0,0,1,3,.9.527.527,0,0,0,.273.082.506.506,0,0,0,.464-.273A.467.467,0,0,0,35.606,96.55Z" transform="translate(-2.062 -76.229)" fill="#ff5000"/>
      <path id="Path_47" data-name="Path 47" d="M35.606,42.027a6.549,6.549,0,0,0-3.629-1.064,4.838,4.838,0,0,0-1.828.546,2.767,2.767,0,0,1-1.364.409,2.6,2.6,0,0,1-1.364-.409,3.661,3.661,0,0,0-1.855-.518h-.027a1.328,1.328,0,0,0-.327.027l-.164-.791-.027-.055c-.628-1.2-1.31-2.456-1.992-3.656-.737-1.282-1.473-2.619-2.128-3.9l6.9-2.483a2.814,2.814,0,0,0,.819-.382,3.68,3.68,0,0,0,.655-.628A2.618,2.618,0,0,0,26.466,25h-.055c-1.364.437-6.112,1.965-9.413,3.274a3.669,3.669,0,0,0-1.883,1.473,3.845,3.845,0,0,0,.136,4.065l1.61,2.783L7.175,41.263A4.2,4.2,0,0,0,6,41.017a6.772,6.772,0,0,0-3.656.9.543.543,0,1,0,.518.955,5.712,5.712,0,0,1,3.083-.791,3.785,3.785,0,0,1,1.419.437,3.973,3.973,0,0,0,1.828.464,3.661,3.661,0,0,0,1.855-.518,2.6,2.6,0,0,1,1.364-.409,2.671,2.671,0,0,1,1.364.382,3.688,3.688,0,0,0,1.883.518,3.935,3.935,0,0,0,1.937-.491,2.89,2.89,0,0,1,2.92.027,3.523,3.523,0,0,0,1.883.491,3.375,3.375,0,0,0,1.828-.546,2.471,2.471,0,0,1,1.31-.382,2.6,2.6,0,0,1,1.364.409,3.628,3.628,0,0,0,3.738,0,3.1,3.1,0,0,1,1.392-.437,5.314,5.314,0,0,1,3,.9.526.526,0,0,0,.273.082.506.506,0,0,0,.464-.273A.464.464,0,0,0,35.606,42.027Zm-13.233-.109a2.775,2.775,0,0,1-1.392-.382,3.887,3.887,0,0,0-1.91-.518,3.935,3.935,0,0,0-1.937.491,2.936,2.936,0,0,1-1.473.382,2.726,2.726,0,0,1-1.419-.409,3.565,3.565,0,0,0-1.828-.491h-.027a3.578,3.578,0,0,0-1.855.518,2.6,2.6,0,0,1-1.364.409,2.388,2.388,0,0,1-.655-.082l9.877-4.775-2.237-3.82a2.515,2.515,0,0,1,1.228-3.956c3.329-1.337,8.295-2.92,9.332-3.247a1.556,1.556,0,0,1,1.719,2.428,1.911,1.911,0,0,1-.409.382,1.81,1.81,0,0,1-.518.246l-8.1,2.892.273.546c.709,1.473,1.583,3,2.4,4.5.655,1.173,1.337,2.374,1.937,3.547l.164.709c-.164.082-.3.136-.437.218A2.6,2.6,0,0,1,22.373,41.918Z" transform="translate(-2.062 -24.926)" fill="#ff5000"/>
    </g>
  </g>
</svg>
