<svg xmlns="http://www.w3.org/2000/svg" width="32.637" height="32.638" viewBox="0 0 32.637 32.638">
  <g id="noun_banner_3380811" transform="translate(-221 7.002)">
    <path id="Path_73" data-name="Path 73" d="M48.093,20.894H47v-1.52a2.082,2.082,0,0,0-3.1-2.766h0a2.082,2.082,0,0,0-.159,2.766v1.52H42.653a.544.544,0,0,0-.544.544V21.6l-.283.106a14.065,14.065,0,0,1-7.341.687l-5.306-.923a15.231,15.231,0,0,0-6.652.331v-.368a.544.544,0,0,0-.544-.544H20.9v-1.52a2.082,2.082,0,0,0-3.1-2.766h0a2.082,2.082,0,0,0-.159,2.766v1.52H16.544a.544.544,0,0,0-.544.544V43.2a.544.544,0,0,0,.544.544h1.088v1.52a2.082,2.082,0,0,0,.159,2.766h0a2.082,2.082,0,0,0,3.1-2.766v-1.52h1.088a.544.544,0,0,0,.544-.544v-.2a14.146,14.146,0,0,1,8.5-1.111l4.083.742a15.039,15.039,0,0,0,6.38-.208l.622-.155V43.2a.544.544,0,0,0,.544.544h1.088v1.52a2.082,2.082,0,0,0,.159,2.766h0A2.082,2.082,0,0,0,47,45.259v-1.52h1.088a.544.544,0,0,0,.544-.544V21.438A.544.544,0,0,0,48.093,20.894ZM44.67,17.377a.995.995,0,1,1-.291.7A.995.995,0,0,1,44.67,17.377Zm.159,2.714a2.091,2.091,0,0,0,1.088,0v.8H44.829Zm-22.3,5.02.2-.056a14.132,14.132,0,0,1,6.268-.333l5.306.923a15.154,15.154,0,0,0,7.811-.7V38.963l-.886.221a13.963,13.963,0,0,1-5.922.193l-4.083-.742a15.247,15.247,0,0,0-8.692.989Zm.2-2.232a14.133,14.133,0,0,1,6.268-.333l5.306.923a15.153,15.153,0,0,0,7.811-.7v1.014l-.283.106a14.065,14.065,0,0,1-7.341.687l-5.306-.923a15.232,15.232,0,0,0-6.652.331V22.936Zm-4.164-5.5a.995.995,0,1,1-.291.7A.995.995,0,0,1,18.56,17.377Zm.159,2.714a2.091,2.091,0,0,0,1.088,0v.8H18.72Zm1.247,27.165a.995.995,0,1,1,.291-.7.995.995,0,0,1-.291.7Zm-.159-2.714a2.091,2.091,0,0,0-1.088,0v-.8h1.088Zm-2.72-1.89V21.982h4.352v20.67ZM41.224,41.36a13.962,13.962,0,0,1-5.922.193l-4.083-.742a15.247,15.247,0,0,0-8.692.989v-.983a14.147,14.147,0,0,1,8.5-1.111l4.083.742a15.038,15.038,0,0,0,6.38-.208l.622-.155v1.054Zm4.853,5.9a.995.995,0,1,1,.291-.7.995.995,0,0,1-.291.7Zm-.159-2.714a2.091,2.091,0,0,0-1.088,0v-.8h1.088Zm1.632-1.89H43.2V21.982h4.352Z" transform="translate(205 -23)" fill="#ff5000"/>
  </g>
</svg>
