<svg xmlns="http://www.w3.org/2000/svg" width="35.373" height="15.044" viewBox="0 0 35.373 15.044">
  <path id="noun_jetski_1881522" d="M38.844,38.312a.571.571,0,0,0-.54-.386H36.687l-1-3.294a.571.571,0,0,0-.546-.4H29.586a.571.571,0,0,0-.544.4l-.27.849H22.85l-.27-.849a.57.57,0,0,0-.544-.4H16.644L15.18,32.5,16.542,31.5l2.219-.135a.57.57,0,1,0-.069-1.139L16.3,30.37a.569.569,0,0,0-.3.111l-1.56,1.152-.156-.183a.568.568,0,0,0-.587-.18c-8.034,2.227-10.067,6.81-10.15,7h0a.55.55,0,0,0-.038.131c0,.015,0,.03,0,.045a.551.551,0,0,0,0,.083.065.065,0,0,0,0,.008c0,.018.007.036.01.054a.546.546,0,0,0,.013.07l0,.014,0,0v0c.055.177.114.35.176.52.034.093.071.181.107.271.029.073.058.147.089.219.053.124.108.244.165.362l.037.076c2.512,5.13,8.489,5.134,13.817,5.134H35.6a.571.571,0,0,0,.523-.342l1.307-2.992h0l.728-1.666.674-1.542a.569.569,0,0,0,.046-.276A.587.587,0,0,0,38.844,38.312Zm-2.314,2.823H6.125a6.758,6.758,0,0,1-.512-.673c-.034-.05-.068-.1-.1-.152q-.087-.139-.17-.284c-.035-.062-.069-.125-.1-.188-.049-.092-.1-.185-.145-.281s-.1-.216-.146-.326c-.024-.055-.049-.107-.072-.162l14.647,0h.008c.014,0,.028,0,.042,0H37.431Zm-14.91-5.766.27.849a.57.57,0,0,0,.544.4h6.757a.571.571,0,0,0,.544-.4l.27-.849h4.716l.776,2.558H19.79l-2.175-2.558Zm-7.967-2.9,2.294,2.7h0l.033.038,2.311,2.72H5.07C5.98,36.621,8.371,34.014,13.652,32.468Zm21.57,11.659h-17.3c-3.87,0-7.83,0-10.52-1.851H36.031Z" transform="translate(-3.502 -30.224)" fill="#ff5000"/>
</svg>
