<svg xmlns="http://www.w3.org/2000/svg" width="20.113" height="33.969" viewBox="0 0 20.113 33.969">
  <path id="noun_Kid_1986117" d="M41.179,29.533A6.857,6.857,0,0,0,43.5,27.208l.128.014a2.213,2.213,0,0,0,1.521-.257,2.152,2.152,0,0,0,1.206-2.444,1.838,1.838,0,0,0-1.394-1.183l.007-.01c.052-.073.1-.143.148-.2.725-.888.906-3.878.9-4.172,0-.262,0-.528.008-.795a5.864,5.864,0,0,0-.542-3.225A4.179,4.179,0,0,0,43.4,13.275a5.273,5.273,0,0,0-.735-.245,4.3,4.3,0,0,1-.591-.194c-.09-.04-.106-.047-.224-.251-1.964-3.391-5.8-2.673-8.873-2.1-1.631.306-3.172.595-4.017.189a.484.484,0,0,0-.606.112c-.105.128-.412.5,1.045,2.544a4.048,4.048,0,0,0-1.951,1.6,5.864,5.864,0,0,0-.542,3.225c.006.267.012.532.008.8,0,.294.178,3.284.9,4.171.042.052.088.116.136.183a1.878,1.878,0,0,0-1.559,1.21,2.15,2.15,0,0,0,1.2,2.443,2.218,2.218,0,0,0,1.523.259l.129-.014a7.2,7.2,0,0,0,2.538,2.331,8.378,8.378,0,0,0,3.189.983v.032a4.223,4.223,0,0,0-3.32.713,2.317,2.317,0,0,0-.829,1.754,3.378,3.378,0,0,0,.108.827.415.415,0,0,0-.21.068,8.507,8.507,0,0,0-2.106,2.262,8.87,8.87,0,0,0-1.005,4.1,20.069,20.069,0,0,0,.1,3.2c.052.4.336.487,1.149.487.27,0,.6-.01,1-.022.505-.015,1.1-.029,1.7-.032l1.05,0c1.252,0,2.941.009,3.759,0,.82.01,2.505.005,3.755,0l1.05,0c.618,0,1.2.017,1.7.032.4.012.725.022.994.022.814,0,1.1-.091,1.151-.489a20.09,20.09,0,0,0,.1-3.2,8.867,8.867,0,0,0-1.009-4.109,8.5,8.5,0,0,0-2.1-2.257.415.415,0,0,0-.21-.067,3.378,3.378,0,0,0,.108-.828,2.317,2.317,0,0,0-.828-1.752,4.217,4.217,0,0,0-3.322-.714v-.029A8.848,8.848,0,0,0,41.179,29.533Zm-6.2,13.536c-.763,0-1.634,0-2.359-.005h-.5V41.134a.427.427,0,1,0-.853,0v1.927c-.511,0-1,.02-1.429.033-.483.015-1.016.03-1.3.015a19.907,19.907,0,0,1-.067-2.781,7.861,7.861,0,0,1,.851-3.66,7.684,7.684,0,0,1,1.891-2.049,9.362,9.362,0,0,0,1.835,2.534.417.417,0,0,0-.049.189v1.936a.427.427,0,0,0,.853,0V37.923c.484.433.9.756,1.129.928Zm0-5.306c-1.134-.929-3.3-2.936-3.3-4.743a1.46,1.46,0,0,1,.531-1.105,3.481,3.481,0,0,1,2.766-.5Zm-7.21-18.794c0-.273,0-.549-.008-.826a5.161,5.161,0,0,1,.425-2.774,3.35,3.35,0,0,1,1.693-1.314,2.948,2.948,0,0,1,.322-.117.426.426,0,0,0,.214-.663,14.231,14.231,0,0,1-1.055-1.6,12.068,12.068,0,0,0,3.777-.351c2.96-.555,6.316-1.184,7.977,1.685a1.232,1.232,0,0,0,.612.6,4.984,4.984,0,0,0,.712.237,4.482,4.482,0,0,1,.617.2,3.348,3.348,0,0,1,1.692,1.314,5.161,5.161,0,0,1,.425,2.774c-.006.277-.012.553-.008.826.007.542-.253,3.061-.711,3.621-.056.069-.116.153-.18.242l-.065.09c-.045-.257-.073-.52-.1-.777A3.682,3.682,0,0,0,43.045,19.5a4.586,4.586,0,0,1-1.354-4.551.427.427,0,0,0-.66-.475c-1.339.992-3.875,1.171-4.922,1.2a8.277,8.277,0,0,1-4.149-.848.426.426,0,0,0-.637.455A4.616,4.616,0,0,1,29.882,19.5a3.683,3.683,0,0,0-1.059,2.645c-.028.256-.056.52-.1.777l-.065-.09c-.063-.089-.124-.173-.181-.242C28.02,22.029,27.759,19.51,27.766,18.969Zm9.147,24.1-.41,0-.015,0-.117,0-.117,0c-.006,0-.01,0-.016,0l-.41,0v-7.2h1.084Zm4.621-8.448a7.673,7.673,0,0,1,1.888,2.043,7.854,7.854,0,0,1,.855,3.665,19.936,19.936,0,0,1-.067,2.782c-.287.014-.819,0-1.3-.015-.429-.013-.919-.032-1.429-.033V41.134a.427.427,0,1,0-.853,0v1.929h-.5c-.725,0-1.6.005-2.359.005V38.85c.23-.172.645-.495,1.129-.928v1.356a.427.427,0,0,0,.853,0V37.342a.417.417,0,0,0-.049-.189A9.362,9.362,0,0,0,41.534,34.619Zm-1-2.7a1.46,1.46,0,0,1,.53,1.1c0,1.8-2.162,3.812-3.3,4.742V31.411A3.483,3.483,0,0,1,40.533,31.915ZM37.38,29.7a.511.511,0,0,0-.467.445v4.871H35.83V30.141a.511.511,0,0,0-.468-.445,7.682,7.682,0,0,1-3.149-.9,6.447,6.447,0,0,1-2.349-2.2c-.208-.3-.559-.257-.841-.225a1.4,1.4,0,0,1-.97-.132c-.667-.42-1-.993-.849-1.459s.726-.713,1.474-.665A.434.434,0,0,0,29,24c.391-.11.492-.574.525-.731a10.343,10.343,0,0,0,.147-1.032,2.941,2.941,0,0,1,.778-2.1,5.6,5.6,0,0,0,1.807-4.209,9.628,9.628,0,0,0,3.9.6,12.615,12.615,0,0,0,4.528-.872,5.6,5.6,0,0,0,1.8,4.48,2.94,2.94,0,0,1,.778,2.1,10.369,10.369,0,0,0,.147,1.033,1.248,1.248,0,0,0,.232.539.427.427,0,0,0,.429.311c.75-.047,1.328.212,1.474.665s-.182,1.039-.851,1.46a1.409,1.409,0,0,1-.968.131c-.282-.031-.634-.072-.84.226a6.336,6.336,0,0,1-2.126,2.194A8.414,8.414,0,0,1,37.38,29.7Z" transform="translate(-26.315 -10)" fill="#ff5000"/>
</svg>
