<svg xmlns="http://www.w3.org/2000/svg" width="27.712" height="28.935" viewBox="0 0 27.712 28.935">
  <defs>
    <style>
      .cls-1 {
        fill: #ff5000;
      }

      .cls-2 {
        fill: none;
        stroke: #ff5000;
        stroke-miterlimit: 10;
        stroke-width: 1.25px;
      }
    </style>
  </defs>
  <g id="Group_1693" data-name="Group 1693" transform="translate(0.666 0.625)">
    <path id="Path_24" data-name="Path 24" class="cls-1" d="M5243.721,1473.828a.628.628,0,1,0,.626.628A.629.629,0,0,0,5243.721,1473.828Z" transform="translate(-5222.989 -1447.851)"/>
    <path id="Path_25" data-name="Path 25" class="cls-2" d="M5248.89,1467.279l-2.924-1.065,3.017-8.293a1,1,0,0,0-.6-1.28l-.613-.223a1,1,0,0,0-1.281.6l-3.016,8.292-2.924-1.064a.825.825,0,0,0-.284-.051.745.745,0,0,0-.734.62l-1.67,8.146a1.026,1.026,0,0,0,.1.657,14.519,14.519,0,0,1,3.414-1.887,7.217,7.217,0,0,1,5.885.42l2.045-3.78A.749.749,0,0,0,5248.89,1467.279Z" transform="translate(-5222.989 -1447.851)"/>
    <path id="Path_26" data-name="Path 26" class="cls-1" d="M5245.587,1474.005a.627.627,0,1,0-.627-.627A.627.627,0,0,0,5245.587,1474.005Z" transform="translate(-5222.989 -1447.851)"/>
    <path id="Path_27" data-name="Path 27" class="cls-2" d="M5239.268,1461.418a1.6,1.6,0,0,1,.549.1l2.1.766-1.032-11.69-.242-2.741h-2.742l-.241,2.741h-3.387l-.242-2.741h-2.741l-.242,2.741h-3.387l-.242-2.741h-2.741l-.243,2.741h0l-1.452,16.45a32.749,32.749,0,0,0,9.676,1.444,33.123,33.123,0,0,0,3.964-.242l1.146-5.587A1.522,1.522,0,0,1,5239.268,1461.418Z" transform="translate(-5222.989 -1447.851)"/>
    <path id="Path_28" data-name="Path 28" class="cls-1" d="M5226.119,1452.918a.626.626,0,1,1,0,.886A.628.628,0,0,1,5226.119,1452.918Z" transform="translate(-5222.989 -1447.851)"/>
    <path id="Path_29" data-name="Path 29" class="cls-1" d="M5227.564,1455.886a.626.626,0,1,1,0-.886A.629.629,0,0,1,5227.564,1455.886Z" transform="translate(-5222.989 -1447.851)"/>
    <path id="Path_30" data-name="Path 30" class="cls-1" d="M5229.088,1454.363a.627.627,0,1,1,0-.887A.629.629,0,0,1,5229.088,1454.363Z" transform="translate(-5222.989 -1447.851)"/>
    <path id="Path_31" data-name="Path 31" class="cls-1" d="M5245.587,1474.906a.628.628,0,1,0,.627.627A.626.626,0,0,0,5245.587,1474.906Z" transform="translate(-5222.989 -1447.851)"/>
  </g>
</svg>
