<?xml version="1.0" encoding="utf-8"?>
<!-- Generator: Adobe Illustrator 21.1.0, SVG Export Plug-In . SVG Version: 6.00 Build 0)  -->
<svg version="1.1" id="Layer_1" xmlns="http://www.w3.org/2000/svg" xmlns:xlink="http://www.w3.org/1999/xlink" x="0px" y="0px"
	 viewBox="0 0 409.6 409.6" style="enable-background:new 0 0 409.6 409.6;" xml:space="preserve">
<style type="text/css">
	.st0{fill:#1A1819;}
</style>
<path class="st0" d="M204.8,409.6c113.1,0,204.8-91.7,204.8-204.8S317.9,0,204.8,0S0,91.7,0,204.8S91.7,409.6,204.8,409.6
	L204.8,409.6z M204.8,32c95.4,0,172.8,77.4,172.8,172.8s-77.4,172.8-172.8,172.8S32,300.2,32,204.8S109.4,32,204.8,32L204.8,32z"/>
<path class="st0" d="M307.2,192H148.5l30.7-32.9l-17.1-18.3l-59.7,64l59.7,64l17.1-18.3l-30.7-32.9h158.7V192z"/>
</svg>
