<svg xmlns="http://www.w3.org/2000/svg" width="374.066" height="603.191" viewBox="0 0 374.066 603.191">
  <defs>
    <style>
      .cls-1 {
        fill: #bcb9bb;
        opacity: 0.2;
      }
    </style>
  </defs>
  <path id="Path_156" data-name="Path 156" class="cls-1" d="M4210.826,768.322c-24.854-42.956-73.309-66.88-115.372-89.376-41.67-22.174-86.769-43.706-115.622-82.591-27.208-36.672-26.138-93.839,2.108-129.726,21.711-27.637,55.7-45.2,90.805-46.062a160.023,160.023,0,0,1,43.063,4.892c3.783.928,11.461,3.428,13.067,4.035-43.527.107-78.77,33.636-78.77,74.985,0,41.385,35.422,74.986,79.128,74.986,43.634,0,79.021-33.6,79.021-74.986a76.361,76.361,0,0,0-.608-9.069.706.706,0,0,0-.035-.25,76.815,76.815,0,0,0-.963-7.892c-.144-1-.358-2.071-.536-3.106-.179-.821-.393-1.714-.571-2.571-.465-2.035-1-4.035-1.572-6.106-7.462-24.638-27.6-42.706-50.349-53.526-11.853-5.641-25.281-11.033-38.207-13.783-51.56-11.212-111.3-2.5-154.934,28.174-11.141,7.927-22.5,17.353-31.565,27.6-19.96,22.245-35.6,50.49-40.313,80.306-19.854,126.154,101.945,168.824,189.427,217.779,18.139,10.177,34.709,23.067,47.742,39.314,12.712,15.854,22.781,34.208,25.174,54.633,2.927,24.745-.643,50.026-12.534,72.058-16.319,30.565-48.1,49.1-81.307,55.382a175.831,175.831,0,0,1-55.095,1.428,178.529,178.529,0,0,1-45.563-12.1c34.1-8.462,59.273-38.064,59.273-73.414,0-41.921-35.457-75.986-79.128-75.986s-79.09,34.065-79.09,75.986c0,23.1,11.961,43.384,28.6,58.631,18.961,17.426,42.635,28.566,67.129,35.815a303.641,303.641,0,0,0,100.981,12.569,265.773,265.773,0,0,0,30.924-3.357,232.447,232.447,0,0,0,32.922-8.248c91.91-30.066,145.364-135.331,92.769-226.421" transform="translate(-3857.5 -403.489)"/>
</svg>
