<svg xmlns="http://www.w3.org/2000/svg" width="33.94" height="17.633" viewBox="0 0 33.94 17.633">
  <defs>
    <style>
      .cls-1 {
        fill: #ff5000;
        stroke: #ff5000;
        stroke-miterlimit: 10;
        stroke-width: 0.6px;
      }
    </style>
  </defs>
  <g id="Group_1691" data-name="Group 1691" transform="translate(0.3 0.3)">
    <path id="Path_20" data-name="Path 20" class="cls-1" d="M5252.5,1284.558h-32.616a.362.362,0,0,0,0,.725H5252.5a.362.362,0,0,0,0-.725Z" transform="translate(-5219.527 -1268.25)"/>
    <path id="Path_21" data-name="Path 21" class="cls-1" d="M5221.918,1283.254h24.462a.362.362,0,1,0,0-.725h-22.033a11.871,11.871,0,0,1,23.737.362.342.342,0,0,0,.362.363h2.03a.362.362,0,0,0,0-.725h-1.667a12.624,12.624,0,0,0-11.416-12.177,1.223,1.223,0,0,0,.217-.725,1.377,1.377,0,0,0-2.754,0,1.306,1.306,0,0,0,.218.725,12.622,12.622,0,0,0-11.416,12.177h-1.7a.342.342,0,0,0-.363.362A.335.335,0,0,0,5221.918,1283.254Zm14.279-14.279a.653.653,0,1,1-.652.652A.65.65,0,0,1,5236.2,1268.975Z" transform="translate(-5219.527 -1268.25)"/>
  </g>
</svg>
