<svg xmlns="http://www.w3.org/2000/svg" width="12.944" height="12.944" viewBox="0 0 12.944 12.944">
  <defs>
    <style>
      .cls-1 {
        fill: #fff;
      }
    </style>
  </defs>
  <path id="Facebook" class="cls-1" d="M1158.5,3923.056a.715.715,0,0,1-.714.715h-3.3v-5.013h1.683l.252-1.953h-1.935v-1.247c0-.566.157-.951.968-.951h1.035v-1.747a13.81,13.81,0,0,0-1.508-.077,2.353,2.353,0,0,0-2.512,2.582v1.441h-1.687v1.953h1.687v5.013h-6.2a.715.715,0,0,1-.715-.715v-11.514a.715.715,0,0,1,.715-.715h11.515a.715.715,0,0,1,.714.715Z" transform="translate(-1145.556 -3910.827)"/>
</svg>
