<svg xmlns="http://www.w3.org/2000/svg" width="12.944" height="12.944" viewBox="0 0 12.944 12.944">
  <defs>
    <style>
      .cls-1 {
        fill: #736e71;
      }
    </style>
  </defs>
  <path id="Facebook" class="cls-1" d="M4177.722,688.505a.715.715,0,0,1-.714.715h-3.3v-5.013h1.683l.252-1.954h-1.935v-1.247c0-.565.157-.951.968-.951h1.035v-1.747a13.776,13.776,0,0,0-1.507-.077,2.354,2.354,0,0,0-2.513,2.582v1.44H4170v1.954h1.687v5.013h-6.2a.715.715,0,0,1-.715-.715V676.99a.714.714,0,0,1,.715-.714h11.515a.714.714,0,0,1,.714.714Z" transform="translate(-4164.778 -676.276)"/>
</svg>
