<?xml version="1.0" encoding="utf-8"?>
<!-- Generator: Adobe Illustrator 24.1.3, SVG Export Plug-In . SVG Version: 6.00 Build 0)  -->
<svg version="1.1" id="Layer_1" xmlns="http://www.w3.org/2000/svg" xmlns:xlink="http://www.w3.org/1999/xlink" x="0px" y="0px"
	 viewBox="0 0 84.4 75.1" style="enable-background:new 0 0 84.4 75.1;" xml:space="preserve">
<style type="text/css">
	.st0{fill:#FFFFFF;}
	.st1{fill:#FF5000;}
</style>
<g>
	<g>
		<g>
			<path class="st0" d="M3.1,63.4c-0.4,0-0.9,0-1.2-0.1c-0.3-0.1-0.7-0.2-1-0.4c-0.2-0.1-0.2-0.1-0.2-0.1c-0.1,0-0.1,0-0.1,0
				c0,0-0.1,0.2-0.1,0.4l0,0.1H0v-3h0.4l0,0.1c0.2,0.7,0.5,1.3,1,1.7c0.5,0.4,1.1,0.6,1.7,0.6c0.5,0,0.9-0.1,1.2-0.3
				c0.3-0.2,0.5-0.4,0.6-0.7c0.1-0.3,0.2-0.5,0.2-0.8c0-0.6-0.2-1-0.5-1.4C4.3,59.3,3.7,59,3,58.6c-0.5-0.3-0.9-0.5-1.1-0.7
				c-0.3-0.2-0.5-0.4-0.8-0.6c-0.3-0.3-0.5-0.6-0.6-0.9c-0.2-0.4-0.2-0.8-0.2-1.2c0-0.5,0.1-1,0.4-1.5c0.3-0.5,0.7-0.9,1.2-1.2
				C2.7,52,3.8,52,5,52.3c0.1,0,0.2,0.1,0.3,0.1c0,0,0.1,0,0.2-0.2l0-0.1h0.4v2.6H5.5l0-0.1c-0.1-0.5-0.3-0.9-0.6-1.3
				c-0.4-0.4-0.8-0.5-1.4-0.5c-0.4,0-0.7,0.1-1,0.3c-0.3,0.2-0.5,0.4-0.7,0.7c-0.2,0.3-0.2,0.7-0.2,1.1c0,0.3,0,0.6,0.1,0.8
				C1.7,55.8,1.9,56,2,56.2c0.2,0.2,0.4,0.4,0.7,0.5c0.3,0.2,0.6,0.4,1.1,0.6c0.8,0.4,1.4,0.9,1.8,1.3c0.5,0.5,0.7,1.1,0.7,1.9
				c0,0.5-0.1,0.9-0.4,1.4c-0.2,0.4-0.6,0.8-1.1,1.1C4.4,63.3,3.8,63.4,3.1,63.4"/>
			<path class="st0" d="M12.9,63.5c-0.8,0-1.5-0.2-2.1-0.6c-0.6-0.4-1.1-0.8-1.4-1.4C9.2,61.1,9,60.7,9,60.3
				c-0.1-0.4-0.1-0.8-0.1-1.3v-5.3c0-0.3-0.1-0.5-0.2-0.7c-0.1-0.2-0.4-0.3-0.8-0.3l-0.1,0v-0.4h3.6v0.4l-0.1,0
				c-0.4,0.1-0.7,0.2-0.8,0.4c-0.1,0.2-0.2,0.4-0.2,0.7v5.2c0,1,0.1,1.8,0.3,2.3c0.2,0.5,0.5,0.9,1,1.2c0.4,0.3,0.9,0.4,1.5,0.4
				c0.2,0,0.5,0,0.8-0.1c0.3-0.1,0.6-0.2,0.9-0.4c0.8-0.6,1.3-1.5,1.3-2.8v-5.8c0-0.3-0.1-0.5-0.2-0.7c-0.1-0.2-0.4-0.3-0.8-0.3
				l-0.1,0v-0.4h3.7v0.4l-0.1,0c-0.4,0-0.7,0.1-0.8,0.3c-0.1,0.2-0.2,0.5-0.2,0.7v8c0,0.3,0,0.4,0.1,0.6c0.1,0.1,0.2,0.2,0.3,0.3
				c0.2,0.1,0.3,0.1,0.6,0.2l0.1,0v0.4h-2.5v-1.4c-0.3,0.5-0.7,0.9-1.2,1.1C14.2,63.3,13.6,63.5,12.9,63.5"/>
			<path class="st0" d="M30.3,63.5H30l0,0l-7.9-8.8v6.1c0,0.5,0,0.9,0.1,1.2c0,0.3,0.1,0.4,0.2,0.5c0.1,0.2,0.4,0.3,0.8,0.3l0.1,0
				v0.4h-3v-0.4l0.1,0c0.3,0,0.5-0.1,0.6-0.2c0.1-0.1,0.2-0.3,0.3-0.5c0.1-0.3,0.1-0.7,0.1-1.3v-6.9l-0.3-0.4
				c-0.3-0.3-0.5-0.6-0.7-0.6c-0.2-0.1-0.4-0.2-0.7-0.2l-0.1,0v-0.4h2.2l7.8,8.7v-6.5c0-0.5,0-0.9-0.1-1.1c0-0.2-0.1-0.4-0.3-0.5
				c-0.1-0.1-0.4-0.2-0.7-0.2l-0.1,0v-0.4h3v0.4l-0.1,0c-0.3,0-0.5,0.1-0.6,0.1c-0.1,0.1-0.2,0.2-0.3,0.3c-0.1,0.2-0.1,0.5-0.1,0.8
				V63.5z"/>
			<path class="st0" d="M41.6,63.4c-0.4,0-0.9,0-1.2-0.1c-0.3-0.1-0.7-0.2-1-0.4c-0.2-0.1-0.2-0.1-0.2-0.1c-0.1,0-0.1,0-0.1,0
				c0,0-0.1,0.2-0.1,0.4l0,0.1h-0.4v-3h0.4l0,0.1c0.2,0.7,0.5,1.3,1,1.7c0.5,0.4,1.1,0.6,1.7,0.6c0.5,0,0.9-0.1,1.2-0.3
				c0.3-0.2,0.5-0.4,0.6-0.7c0.1-0.3,0.2-0.5,0.2-0.8c0-0.6-0.2-1-0.5-1.4c-0.3-0.4-0.9-0.7-1.6-1.1c-0.5-0.3-0.9-0.5-1.1-0.7
				c-0.3-0.2-0.5-0.4-0.8-0.6c-0.3-0.3-0.5-0.6-0.6-0.9c-0.2-0.4-0.2-0.8-0.2-1.2c0-0.5,0.1-1,0.4-1.5c0.3-0.5,0.7-0.9,1.2-1.2
				c0.9-0.5,2-0.6,3.2-0.2c0.1,0,0.2,0.1,0.3,0.1c0,0,0.1,0,0.2-0.2l0-0.1h0.4v2.6H44l0-0.1c-0.1-0.5-0.3-0.9-0.6-1.3
				c-0.4-0.4-0.8-0.5-1.4-0.5c-0.4,0-0.7,0.1-1,0.3c-0.3,0.2-0.5,0.4-0.7,0.7C40.1,54,40,54.4,40,54.8c0,0.3,0,0.6,0.1,0.8
				c0.1,0.2,0.2,0.4,0.4,0.6c0.2,0.2,0.4,0.4,0.7,0.5c0.3,0.2,0.6,0.4,1.1,0.6c0.8,0.4,1.4,0.9,1.8,1.3c0.5,0.5,0.7,1.1,0.7,1.9
				c0,0.5-0.1,0.9-0.4,1.4c-0.2,0.4-0.6,0.8-1.1,1.1C42.9,63.3,42.3,63.4,41.6,63.4"/>
			<path class="st0" d="M50,63.2h-3.7v-0.4h0.2c0.3,0,0.5-0.1,0.7-0.2c0.2-0.1,0.3-0.4,0.3-0.8v-8c0-0.4-0.1-0.7-0.3-0.8
				c-0.2-0.1-0.4-0.2-0.7-0.2h-0.2v-0.4H50v0.4h-0.1c-0.3,0-0.5,0.1-0.7,0.2c-0.2,0.1-0.3,0.4-0.3,0.8v8c0,0.4,0.1,0.6,0.3,0.8
				c0.2,0.2,0.4,0.2,0.7,0.2H50V63.2z"/>
			<path class="st0" d="M58.1,63.2h-3.7v-0.4l0.1,0c0.3,0,0.5-0.1,0.7-0.3c0.2-0.2,0.3-0.4,0.3-0.8v-4l-2.7-4
				c-0.3-0.4-0.5-0.7-0.7-0.8c-0.2-0.1-0.5-0.2-0.8-0.2l-0.1,0v-0.4h4.1v0.4l-0.1,0c-0.3,0-0.5,0.1-0.6,0.2
				c-0.1,0.1-0.1,0.2-0.1,0.3c0,0.1,0,0.3,0.3,0.6l2.1,3.1l1.8-2.8c0.3-0.5,0.4-0.8,0.4-0.9c0-0.1,0-0.2-0.1-0.3
				c-0.1-0.1-0.1-0.1-0.2-0.1c-0.1,0-0.2,0-0.2-0.1l-0.1,0v-0.4h3v0.4l-0.1,0c-0.3,0-0.5,0.1-0.8,0.2c-0.2,0.1-0.4,0.3-0.5,0.4
				c-0.1,0.2-0.3,0.3-0.4,0.6L57,57.6v4.2c0,0.3,0.1,0.6,0.3,0.7c0.2,0.2,0.4,0.3,0.7,0.3l0.1,0V63.2z"/>
			<path class="st0" d="M64.2,58.2h3l-1.5-4.5L64.2,58.2z M71.1,63.2h-3.8v-0.4h0.2c0.3,0,0.6,0,0.8-0.1c0,0,0.2-0.1,0.2-0.4
				c0-0.1,0-0.3-0.1-0.6c0,0,0-0.1,0-0.1l-0.9-2.7H64l-0.8,2.5C63,61.7,63,62,63,62.2c0,0.2,0.1,0.4,0.2,0.5
				c0.1,0.1,0.3,0.1,0.5,0.1h0.2v0.4h-2.8v-0.4l0.1,0c0.3,0,0.6-0.1,0.8-0.4c0.2-0.2,0.4-0.6,0.5-1l3-9.2h1l3.2,9.2
				c0.2,0.5,0.3,0.8,0.5,1c0.2,0.2,0.3,0.3,0.4,0.3c0.1,0,0.3,0.1,0.5,0.1l0.1,0V63.2z"/>
			<path class="st0" d="M77.8,63.5l-3.5-9.1L74,61.3c0,0.4,0,0.7,0.1,0.9c0.1,0.2,0.1,0.3,0.3,0.4c0.1,0.1,0.3,0.2,0.6,0.2l0.1,0
				v0.4h-3v-0.4l0.1,0c0.3,0,0.5-0.1,0.7-0.2c0.2-0.1,0.3-0.3,0.3-0.5c0.1-0.2,0.1-0.5,0.1-1l0.4-7.8c0,0,0,0-0.1-0.1
				c-0.1-0.1-0.1-0.1-0.2-0.2c-0.1-0.1-0.1-0.1-0.2-0.2c-0.2-0.1-0.3-0.1-0.4-0.2c-0.1,0-0.3,0-0.5,0l-0.1,0v-0.4H75l3.2,8.4
				l3.2-8.4h2.5v0.4l-0.1,0c-0.2,0-0.3,0-0.4,0.1c-0.1,0-0.1,0.1-0.2,0.1c-0.2,0.1-0.2,0.2-0.3,0.3c0,0.1-0.1,0.2-0.1,0.5l0,0
				c0,0,0,0,0,0l0,0l0.4,7.9c0,0.3,0.1,0.6,0.2,0.8c0.1,0.2,0.4,0.3,0.8,0.3l0.1,0v0.4h-3.7v-0.4l0.1,0c0.4,0,0.7-0.2,0.8-0.3
				c0.1-0.2,0.2-0.5,0.2-0.9l-0.3-7.5L77.8,63.5z"/>
		</g>
	</g>
	<g>
		<path class="st0" d="M61.2,16.5c-1.2-0.4-2.5-0.1-3.7,0.1c-1.2,0.2-2.4,0.6-3.6,0.3c-1.1-0.3-2-1.4-2-2.5c0-1.1,0.5-2.1,1.5-2.7
			c0.2-0.1,0.6-0.3,0.9-0.4c0,0-0.8,0.5-0.8,1.6c0,0.6,0.4,1.2,0.8,1.5c0.1,0,0.1,0.1,0.2,0.1c1.2,0.6,2.5-0.4,3.1-1.5
			c0.2-0.4,0.4-0.7,0.5-1.1c0.4-1,0.5-2.1,0.4-3.2c-0.3-2.4-2.7-4.2-5.2-3.3c-1.2,0.4-2,1.5-2.7,2.5c-0.7,0.9-1.5,2-2.5,2.5
			c-1,0.5-2.4,0.2-3.2-0.6c-0.7-0.8-1-2-0.6-3c0.1-0.2,0.2-0.6,0.4-0.9c0,0-0.2,0.9,0.4,1.7c0.4,0.5,1,0.7,1.6,0.6
			c0.1,0,0.1,0,0.2,0c1.4-0.3,1.7-1.9,1.4-3.1c-0.1-0.4-0.2-0.8-0.3-1.2c-0.4-1-1-2-1.8-2.7c-1.8-1.6-4.8-1.5-6.1,0.8
			c-0.6,1.1-0.5,2.4-0.5,3.6c0,1.2,0.1,2.4-0.3,3.5c-0.5,1-1.7,1.7-2.8,1.6c-1.1-0.2-2-0.9-2.4-1.9c-0.1-0.2-0.2-0.6-0.2-0.9
			c0,0,0.4,0.8,1.4,1c0.6,0.1,1.3-0.1,1.6-0.6c0-0.1,0.1-0.1,0.1-0.2c0.8-1.1,0.1-2.5-0.9-3.3c-0.3-0.3-0.7-0.5-1-0.7
			c-1-0.6-2-0.9-3.1-0.9c-2.4-0.1-4.6,1.9-4.1,4.5c0.2,1.2,1.2,2.2,2,3.1c0.8,0.9,1.7,1.8,2,2.9c0.3,1.1-0.2,2.4-1.2,3
			c-0.9,0.6-2.1,0.6-3.1,0.1c-0.2-0.1-0.6-0.3-0.8-0.6c0,0,0.8,0.4,1.8-0.1c0.5-0.3,0.9-0.9,0.9-1.5c0-0.1,0-0.1,0-0.2
			c-0.1-1.4-1.5-2-2.8-1.9c-0.4,0-0.8,0.1-1.2,0.1c-1.1,0.2-2.1,0.6-3,1.3c-1.9,1.5-2.3,4.4-0.2,6.1c1,0.8,2.3,0.9,3.5,1.1
			c1.2,0.2,2.4,0.3,3.4,1c1,0.6,1.4,2,1.1,3.1c-0.3,1.1-1.2,1.8-2.3,2c-0.2,0-0.7,0.1-1,0.1c0,0,0.9-0.2,1.3-1.2
			c0.2-0.5,0.1-1.3-0.3-1.7c0-0.1-0.1-0.1-0.1-0.1c-0.9-1-2.4-0.5-3.4,0.3c-0.3,0.3-0.6,0.6-0.9,0.9c-0.7,0.8-1.2,1.8-1.5,2.9
			c-0.5,2.4,1.1,4.9,3.8,4.9c1.2,0,2.4-0.8,3.4-1.4c1-0.6,2-1.3,3.2-1.5c1.1-0.1,2.4,0.6,2.8,1.7c0.4,1,0.2,2.2-0.5,3.1
			c-0.1,0.2-0.4,0.5-0.7,0.7c0,0,0.5-0.8,0.2-1.8c-0.2-0.5-0.7-1-1.3-1.1c-0.1,0-0.1,0-0.2,0c-1.4-0.2-2.2,1.2-2.4,2.4
			c-0.1,0.4-0.1,0.8-0.1,1.2c0,1.1,0.2,2.2,0.7,3.2c1.1,2.1,4,3,6,1.3c1-0.8,1.3-2.1,1.7-3.2c0.4-1.1,0.7-2.3,1.5-3.2
			c0.8-0.8,2.2-1.1,3.2-0.5c1,0.5,1.6,1.5,1.6,2.6c0,0.2,0,0.7-0.1,1c0,0-0.1-0.9-1-1.5c-0.5-0.3-1.2-0.3-1.7,0
			c-0.1,0-0.1,0.1-0.2,0.1c-1.2,0.8-0.9,2.3-0.3,3.4c0.2,0.4,0.5,0.7,0.7,1c0.7,0.8,1.6,1.5,2.6,2c2.3,0.9,5-0.3,5.4-2.9
			c0.2-1.2-0.3-2.5-0.8-3.6c-0.4-1.1-1-2.2-0.9-3.5c0.1-1.1,1-2.2,2.1-2.5c1.1-0.2,2.2,0.2,2.9,1c0.1,0.2,0.4,0.5,0.6,0.8
			c0,0-0.7-0.7-1.7-0.5c-0.6,0.1-1.1,0.6-1.3,1.1c-0.2,0.6-0.1,1.4,0.4,1.8c0.4,0.4,0.9,0.7,1.5,0.8c0.5,0,1-0.2,1.4-0.5
			c0.2-0.2,0.4-0.5,0.5-0.7c0.4-1.3-0.4-2.7-1.4-3.5c-0.3-0.2-0.6-0.5-1-0.6c-0.8-0.4-1.8-0.6-2.7-0.5c-0.7,0.1-1.5,0.4-2.1,0.9
			c-2.4,2.1-0.8,4.9,0.1,7.2c0.5,1.2,0.4,2.6-0.6,3.6c-1.8,1.6-4.2,0.3-5.1-1.5c0.3,0.2,0.7,0.3,1,0.2c0.3,0,0.6-0.1,0.8-0.3
			c1.2-0.7,1.4-2.4,1.1-3.6c-0.1-0.4-0.2-0.8-0.3-1.1c-0.4-0.9-1-1.6-1.8-2.1c-0.6-0.4-1.4-0.7-2.2-0.6c-3.2,0.1-3.7,3.3-4.6,5.6
			C36,39,35,40,33.6,40.1c-2.4,0.1-3.4-2.4-3-4.5c0.1,0.3,0.4,0.6,0.7,0.8c0.2,0.1,0.5,0.3,0.8,0.3c1.4,0.2,2.6-0.9,3.2-2
			c0.2-0.3,0.3-0.7,0.5-1.1c0.3-0.9,0.3-1.9,0-2.7c-0.2-0.7-0.7-1.4-1.2-1.9c-2.5-2-4.9,0.1-7.1,1.4c-1.1,0.7-2.5,0.9-3.6,0
			c-1.9-1.4-1.1-4.1,0.6-5.3c-0.1,0.3-0.1,0.7,0,1.1c0.1,0.3,0.2,0.6,0.4,0.8c0.9,1,2.6,1,3.8,0.5c0.4-0.1,0.7-0.3,1-0.5
			c0.8-0.5,1.4-1.2,1.8-2.1c0.3-0.7,0.4-1.5,0.3-2.2c-0.6-3.1-3.8-3.1-6.3-3.5c-1.3-0.2-2.5-0.9-2.8-2.3c-0.5-2.3,1.8-3.8,3.9-3.7
			c-0.3,0.2-0.6,0.5-0.7,0.8c-0.1,0.2-0.2,0.6-0.2,0.8c0,1.4,1.3,2.4,2.6,2.8c0.4,0.1,0.8,0.2,1.1,0.3c0.9,0.1,1.9,0,2.7-0.5
			c0.7-0.4,1.3-0.9,1.6-1.5c1.6-2.8-1-4.9-2.6-6.8c-0.9-1-1.3-2.3-0.7-3.6c1.1-2.2,3.8-1.8,5.4-0.3c-0.4-0.1-0.7,0-1.1,0.1
			c-0.2,0.1-0.5,0.3-0.7,0.5C33,6.8,33.3,8.4,34,9.5c0.2,0.3,0.4,0.7,0.7,0.9c0.6,0.7,1.5,1.2,2.4,1.4c0.7,0.2,1.5,0.1,2.2-0.1
			c3-1.1,2.4-4.3,2.4-6.8c0-1.3,0.5-2.6,1.8-3.2c2.2-0.9,4.1,1.1,4.3,3.2c-0.2-0.3-0.6-0.5-0.9-0.6c-0.3-0.1-0.6-0.1-0.9,0
			c-1.4,0.3-2.1,1.7-2.3,3c-0.1,0.4-0.1,0.8-0.1,1.2c0.1,0.9,0.4,1.8,0.9,2.6c0.5,0.6,1.1,1.1,1.8,1.3c3,1,4.6-1.8,6.2-3.7
			c0.8-1,2-1.7,3.4-1.3c2.3,0.7,2.4,3.5,1.3,5.2c0-0.4-0.1-0.7-0.3-1c-0.2-0.2-0.4-0.5-0.6-0.6c-1.2-0.7-2.7,0-3.7,0.8
			c-0.3,0.2-0.6,0.5-0.8,0.8c-0.6,0.7-0.9,1.6-0.9,2.6c0,0.8,0.1,1.5,0.5,2.2c1.6,2.7,4.7,1.6,7.1,1.1c1.3-0.2,2.6,0,3.4,1.2
			c1.3,2-0.4,4.2-2.4,4.8c0.1-0.1,0.1-0.2,0.1-0.2c0.2-0.3,0.2-0.6,0.2-1c0-0.3-0.2-0.7-0.4-0.9c-0.3-0.5-0.9-0.7-1.5-0.7
			c-1.1,0-2.2,1.1-1.9,2.2c0.4,1.6,2.1,1.7,3.4,1.2c0.4-0.1,0.8-0.3,1.1-0.5c1-0.6,1.8-1.3,2.4-2.2C64.3,20.3,63.6,17.4,61.2,16.5"
			/>
		<path class="st1" d="M60,30.1c-0.6-1.1-1.8-1.7-2.9-2.2c-1-0.6-2.2-1.1-2.9-2.1c-0.7-0.9-0.7-2.4,0.1-3.3c0.5-0.7,1.4-1.1,2.3-1.2
			c0.4,0,0.7,0,1.1,0.1c0.1,0,0.3,0.1,0.3,0.1c-1.1,0-2,0.8-2,1.9c0,1,0.9,1.9,2,1.9c1.1,0,2-0.8,2-1.9c0-0.1,0-0.2,0-0.2v0
			c0-0.1,0-0.1,0-0.2l0-0.1l0-0.1c0,0,0-0.1,0-0.2c-0.2-0.6-0.7-1.1-1.3-1.3c-0.3-0.1-0.6-0.3-1-0.3c-1.3-0.3-2.8-0.1-3.9,0.7
			c-0.3,0.2-0.6,0.4-0.8,0.7c-0.5,0.6-0.9,1.3-1,2c-0.5,3.2,2.6,4.2,4.7,5.5c0.5,0.3,0.9,0.6,1.2,1c0.3,0.4,0.6,0.9,0.6,1.4
			c0.1,0.6,0,1.3-0.3,1.8c-0.4,0.8-1.2,1.2-2,1.4c-0.4,0.1-0.9,0.1-1.4,0c-0.4,0-0.8-0.2-1.1-0.3c0.9-0.2,1.5-1,1.5-1.8
			c0-1.1-0.9-1.9-2-1.9c-1.1,0-2,0.9-2,1.9c0,0.6,0.3,1.1,0.7,1.5c0.5,0.4,1.1,0.7,1.7,0.9c0.8,0.2,1.7,0.4,2.5,0.3
			c0.3,0,0.5,0,0.8-0.1c0.3,0,0.6-0.1,0.8-0.2C60,35.1,61.3,32.4,60,30.1"/>
	</g>
	<g>
		<path class="st1" d="M22.9,73.8c0,0.7,0.2,1,0.7,1V75h-2.2v-0.2c0.5,0,0.7-0.1,0.7-1V70c0-0.8-0.2-0.9-0.7-0.9v-0.2h2.5
			c1.4,0,2,0.8,2,1.6c0,0.7-0.4,1.2-1.2,1.5c1.1,0.7,1.5,2.7,2.5,2.8V75H26c-1.1-1.4-1.4-2.8-2.6-2.8h-0.5V73.8z M22.9,71.9h0.7
			c1,0,1.4-0.7,1.4-1.4c0-0.8-0.6-1.4-1.5-1.4h-0.6V71.9z"/>
		<path class="st1" d="M32.3,72.7h-0.2c-0.1-0.5-0.2-0.6-0.8-0.6h-1.5v2.2c0,0.3,0.1,0.4,0.4,0.4h1.1c0.9,0,1.1,0,1.5-0.8h0.2
			L32.6,75h-4.4v-0.2c0.5,0,0.7-0.1,0.7-1v-3.8c0-0.8-0.2-1-0.7-1v-0.2h4.4v1h-0.1c-0.1-0.7-0.3-0.7-1-0.7h-1.7v2.6h1.7
			c0.4,0,0.6-0.1,0.7-0.6h0.2V72.7z"/>
		<path class="st1" d="M37.4,70.3h-0.2c-0.1-0.9-0.7-1.2-1.3-1.2c-0.6,0-1.1,0.3-1.1,0.9c0,1.1,1.5,1.4,2.4,2.3
			c0.4,0.4,0.5,0.8,0.5,1.2c0,1-0.8,1.7-1.7,1.7c-0.6,0-1.2-0.3-1.4-0.3c-0.1,0-0.2,0.1-0.2,0.2h-0.2v-1.6h0.2
			c0,1.1,0.9,1.5,1.5,1.5c0.7,0,1.2-0.4,1.2-1.1c0-1-1.6-1.5-2.3-2.2c-0.4-0.4-0.5-0.8-0.5-1.3c0-0.9,0.7-1.6,1.7-1.6
			c0.6,0,1,0.2,1.2,0.2c0.1,0,0.1,0,0.2-0.2h0.2V70.3z"/>
		<path class="st1" d="M42.3,68.8c1.8,0,3.2,1.4,3.2,3.2c0,1.8-1.4,3.2-3.2,3.2c-1.8,0-3.2-1.4-3.2-3.2C39,70.1,40.4,68.8,42.3,68.8
			z M42.2,74.9c1.5,0,2.3-1.5,2.3-2.9c0-1.9-1-3-2.3-3c-1.4,0-2.3,1.2-2.3,2.9C39.9,73.7,40.9,74.9,42.2,74.9z"/>
		<path class="st1" d="M48.1,73.8c0,0.7,0.2,1,0.7,1V75h-2.2v-0.2c0.5,0,0.7-0.1,0.7-1V70c0-0.8-0.2-0.9-0.7-0.9v-0.2h2.5
			c1.4,0,2,0.8,2,1.6c0,0.7-0.4,1.2-1.2,1.5c1.1,0.7,1.5,2.7,2.5,2.8V75h-1.2c-1.1-1.4-1.4-2.8-2.6-2.8h-0.5V73.8z M48.1,71.9h0.7
			c1,0,1.4-0.7,1.4-1.4c0-0.8-0.6-1.4-1.5-1.4h-0.6V71.9z"/>
		<path class="st1" d="M55.9,73.9c0,0.7,0.1,0.9,0.7,0.9V75h-2.1v-0.2c0.4,0,0.7-0.1,0.7-1v-4.6h-0.9c-0.8,0-1.2,0.2-1.2,0.9h-0.2
			v-1.4H53c0.1,0.1,0.2,0.1,0.3,0.2c0.1,0,0.3,0.1,0.6,0.1H57c0.5,0,0.8-0.1,1-0.2h0.2v1.4h-0.1c-0.1-0.5-0.3-0.9-1.3-0.9h-0.9V73.9
			z"/>
		<path class="st1" d="M62.6,70.3h-0.2c-0.1-0.9-0.7-1.2-1.3-1.2c-0.6,0-1.1,0.3-1.1,0.9c0,1.1,1.5,1.4,2.4,2.3
			c0.4,0.4,0.5,0.8,0.5,1.2c0,1-0.8,1.7-1.7,1.7c-0.6,0-1.2-0.3-1.4-0.3c-0.1,0-0.2,0.1-0.2,0.2h-0.2v-1.6h0.2
			c0,1.1,0.9,1.5,1.5,1.5c0.7,0,1.2-0.4,1.2-1.1c0-1-1.6-1.5-2.3-2.2c-0.4-0.4-0.5-0.8-0.5-1.3c0-0.9,0.7-1.6,1.7-1.6
			c0.6,0,1,0.2,1.2,0.2c0.1,0,0.1,0,0.2-0.2h0.2V70.3z"/>
	</g>
</g>
</svg>
