<svg id="Group_1695" data-name="Group 1695" xmlns="http://www.w3.org/2000/svg" width="29.412" height="26.263" viewBox="0 0 29.412 26.263">
  <defs>
    <style>
      .cls-1 {
        fill: #ff5000;
      }
    </style>
  </defs>
  <path id="Path_33" data-name="Path 33" class="cls-1" d="M5241.45,1552.45a7.908,7.908,0,0,1-2.309.053,6.647,6.647,0,0,1-3.168-1.287,4.553,4.553,0,0,1-.682-.623l-.023-.027-.031-.04c-.008-.015-.018-.029-.026-.045a.525.525,0,0,1,.551-.767c.056.01.109.027.165.041a2.629,2.629,0,0,0,1.537-.013,1.616,1.616,0,0,0,.8-.635,1.068,1.068,0,0,0,.073-.129l0,0,.022-.046c.009-.015.017-.03.027-.044a1.344,1.344,0,0,1,.09-.116,8.089,8.089,0,0,1,1.55-1.478,4.112,4.112,0,0,1,1.477-.692,2.107,2.107,0,0,1,.432-.052h.009c.024,0,.048,0,.072,0h.011l.037.005h0l.01,0,.032.007.007,0a.48.48,0,0,1,.066.024.521.521,0,0,1,.312.409l0,.015v.01c0,.015,0,.029,0,.043V1559.8a22,22,0,0,1,2.761.78,13.938,13.938,0,0,1,3.027,1.473,7.467,7.467,0,0,1,1.6,1.392,4.385,4.385,0,0,1,.9,1.646,3.444,3.444,0,0,1,.008,1.754,4.584,4.584,0,0,1-1.181,1.989,8.613,8.613,0,0,1-1.878,1.429,15.172,15.172,0,0,1-2.645,1.188,23.715,23.715,0,0,1-4.183,1.012,30.164,30.164,0,0,1-3.5.328,32.5,32.5,0,0,1-3.405-.051,28.965,28.965,0,0,1-3.863-.518,22.335,22.335,0,0,1-2.947-.81,13.928,13.928,0,0,1-3.087-1.494,7.511,7.511,0,0,1-1.6-1.392,4.357,4.357,0,0,1-.9-1.657,3.416,3.416,0,0,1-.1-1.232,3.8,3.8,0,0,1,.528-1.538,5.469,5.469,0,0,1,.928-1.142,9.419,9.419,0,0,1,2.12-1.484,17.074,17.074,0,0,1,3.272-1.286,27.014,27.014,0,0,1,5.557-.95c.741-.052,1.484-.078,2.225-.079h.07a30.731,30.731,0,0,1,5.236.438h.005Zm0,8.216c-.134-.024-.268-.047-.4-.069a29.664,29.664,0,0,0-4.793-.386h-.067a29.263,29.263,0,0,0-5.585.52,19.559,19.559,0,0,0-4.253,1.3,10.482,10.482,0,0,0-2.132,1.239,5.534,5.534,0,0,0-1.068,1.059,3.043,3.043,0,0,0-.56,1.192,2.446,2.446,0,0,0,.161,1.45,3.969,3.969,0,0,0,.892,1.241,8.553,8.553,0,0,0,2.188,1.493,16.776,16.776,0,0,0,3.064,1.144,26.608,26.608,0,0,0,5.648.876,30.816,30.816,0,0,0,5.449-.189,23.775,23.775,0,0,0,4.465-.975,14.068,14.068,0,0,0,2.914-1.3,6.853,6.853,0,0,0,1.695-1.383,3.518,3.518,0,0,0,.621-1.01,2.432,2.432,0,0,0,.119-1.352,3.338,3.338,0,0,0-.854-1.544,7.279,7.279,0,0,0-1.7-1.326,14.416,14.416,0,0,0-2.842-1.244c-.628-.2-1.264-.376-1.907-.521v6.192c.906.117,1.576.529,1.576,1.018,0,.579-.941,1.05-2.1,1.05s-2.1-.471-2.1-1.05c0-.489.67-.9,1.576-1.018Zm-11.025,2.7a1.55,1.55,0,1,1-.035,0Zm-.007,1.051a.526.526,0,0,0-.345.131.526.526,0,1,0,.345-.131Zm11.032-16.7-.1.042a4.492,4.492,0,0,0-1.315.893,8.377,8.377,0,0,0-.748.8l-.005.007a.075.075,0,0,0-.011.017,2.418,2.418,0,0,1-.277.424,2.734,2.734,0,0,1-1.6.953l-.034.007h0a5.837,5.837,0,0,0,2.466.65,7.164,7.164,0,0,0,1.627-.125Z" transform="translate(-5221.491 -1546.554)"/>
</svg>
