<svg xmlns="http://www.w3.org/2000/svg" width="118.214" height="105.279" viewBox="0 0 118.214 105.279">
  <defs>
    <style>
      .cls-1 {
        fill: #fff;
      }

      .cls-2 {
        fill: #ff5000;
      }
    </style>
  </defs>
  <g id="Group_525" data-name="Group 525" transform="translate(1040 147)">
    <g id="Group_518" data-name="Group 518" transform="translate(-1040 -74.044)">
      <g id="Group_517" data-name="Group 517" transform="translate(0 0)">
        <path id="Path_594" data-name="Path 594" class="cls-1" d="M68.661,490.261a6.39,6.39,0,0,1-1.68-.2,9.023,9.023,0,0,1-1.47-.564,1.239,1.239,0,0,0-.321-.08c-.072,0-.08.017-.085.026a4.18,4.18,0,0,0-.163.615l-.037.167h-.55v-4.143h.55l.037.165a4.009,4.009,0,0,0,1.338,2.352,3.766,3.766,0,0,0,2.42.792,3.21,3.21,0,0,0,1.7-.393,2.09,2.09,0,0,0,.861-.934,2.8,2.8,0,0,0,.246-1.128,2.628,2.628,0,0,0-.7-1.895,9.151,9.151,0,0,0-2.26-1.579c-.734-.4-1.255-.7-1.6-.915a6.613,6.613,0,0,1-1.081-.865,4.195,4.195,0,0,1-.633-5.088,4.364,4.364,0,0,1,1.65-1.615,5.594,5.594,0,0,1,4.487-.265.809.809,0,0,0,.368.072c.05,0,.17,0,.249-.3l.042-.155h.533v3.6h-.556l-.023-.183a3.035,3.035,0,0,0-.884-1.77,2.611,2.611,0,0,0-1.964-.75,2.687,2.687,0,0,0-1.415.373,2.539,2.539,0,0,0-.949,1.018,3.166,3.166,0,0,0-.341,1.5,3.1,3.1,0,0,0,.2,1.156,2.556,2.556,0,0,0,.593.882,5.623,5.623,0,0,0,.964.744c.379.238.9.539,1.544.9a12.021,12.021,0,0,1,2.587,1.825,3.488,3.488,0,0,1,.97,2.6,3.947,3.947,0,0,1-.513,1.931,4.024,4.024,0,0,1-1.559,1.53,5.108,5.108,0,0,1-2.556.592" transform="translate(-64.356 -474.328)"/>
        <path id="Path_595" data-name="Path 595" class="cls-1" d="M114.64,491.273a5.68,5.68,0,0,1-2.955-.786,5.108,5.108,0,0,1-1.939-1.948,4.947,4.947,0,0,1-.557-1.712,13.945,13.945,0,0,1-.112-1.8v-7.393a1.969,1.969,0,0,0-.238-1.011c-.139-.235-.523-.385-1.111-.431l-.194-.017V475.6h5.089v.571l-.185.021c-.615.07-1,.237-1.154.492a1.829,1.829,0,0,0-.253.951v7.272a8.692,8.692,0,0,0,.437,3.2,3.669,3.669,0,0,0,1.375,1.671,3.712,3.712,0,0,0,2.083.6,4.843,4.843,0,0,0,1.167-.175,3.958,3.958,0,0,0,1.255-.575,4.364,4.364,0,0,0,1.755-3.871v-8.12a1.889,1.889,0,0,0-.253-.98c-.148-.251-.553-.409-1.167-.463l-.194-.017V475.6h5.172v.583l-.2.01c-.606.029-.992.185-1.147.464a1.964,1.964,0,0,0-.265.958v11.256a1.655,1.655,0,0,0,.167.818.881.881,0,0,0,.443.39,4.152,4.152,0,0,0,.81.22l.173.032v.546H119.1v-1.939a4.382,4.382,0,0,1-1.671,1.611,5.787,5.787,0,0,1-2.789.723" transform="translate(-96.593 -475.278)"/>
        <path id="Path_596" data-name="Path 596" class="cls-1" d="M187.865,491.252h-.406l-.061-.069-11.041-12.322v8.588a11.288,11.288,0,0,0,.088,1.662,1.716,1.716,0,0,0,.227.707,1.379,1.379,0,0,0,1.137.478l.2.006v.575h-4.143v-.573l.2-.008a1.693,1.693,0,0,0,.866-.232,1.189,1.189,0,0,0,.408-.74,9.2,9.2,0,0,0,.137-1.854v-9.613l-.44-.494a3.952,3.952,0,0,0-.985-.9,3.329,3.329,0,0,0-.92-.279l-.173-.028v-.56h3.1l10.932,12.246v-9.041a11.108,11.108,0,0,0-.085-1.58,1.179,1.179,0,0,0-.385-.733,1.646,1.646,0,0,0-1.024-.3l-.2-.009V475.6h4.153v.568l-.183.022a3.153,3.153,0,0,0-.835.2.83.83,0,0,0-.4.466,3.157,3.157,0,0,0-.164,1.154Z" transform="translate(-145.444 -475.278)"/>
        <path id="Path_597" data-name="Path 597" class="cls-1" d="M281.642,490.261a6.4,6.4,0,0,1-1.679-.2,8.9,8.9,0,0,1-1.467-.564,1.273,1.273,0,0,0-.322-.08c-.074,0-.084.017-.085.026a4.371,4.371,0,0,0-.165.615l-.036.167h-.552v-4.143h.552l.036.165a4.015,4.015,0,0,0,1.338,2.352,3.772,3.772,0,0,0,2.421.792,3.226,3.226,0,0,0,1.7-.393,2.115,2.115,0,0,0,.858-.934,2.839,2.839,0,0,0,.246-1.128,2.629,2.629,0,0,0-.7-1.895,9.166,9.166,0,0,0-2.26-1.579c-.736-.4-1.257-.7-1.6-.915a6.5,6.5,0,0,1-1.079-.865,4.073,4.073,0,0,1-.888-1.282,4.119,4.119,0,0,1-.33-1.693,4.181,4.181,0,0,1,.58-2.113,4.386,4.386,0,0,1,1.652-1.615,5.591,5.591,0,0,1,4.486-.265.822.822,0,0,0,.37.072c.049,0,.17,0,.249-.3l.043-.155h.532v3.6h-.557l-.025-.183a3.008,3.008,0,0,0-.883-1.77,2.642,2.642,0,0,0-1.963-.75,2.68,2.68,0,0,0-1.414.373,2.59,2.59,0,0,0-.953,1.018,3.217,3.217,0,0,0-.337,1.5,3.1,3.1,0,0,0,.2,1.156,2.54,2.54,0,0,0,.592.882,5.519,5.519,0,0,0,.963.744c.381.238.9.539,1.544.9a12.056,12.056,0,0,1,2.587,1.825,3.49,3.49,0,0,1,.97,2.6,3.941,3.941,0,0,1-.515,1.931,3.988,3.988,0,0,1-1.557,1.53,5.11,5.11,0,0,1-2.556.592" transform="translate(-223.373 -474.328)"/>
        <path id="Path_598" data-name="Path 598" class="cls-1" d="M325.8,490.874h-5.132v-.58h.211a1.506,1.506,0,0,0,.982-.333,1.337,1.337,0,0,0,.393-1.093V477.592a1.3,1.3,0,0,0-.384-1.1,1.608,1.608,0,0,0-.991-.3h-.211V475.6H325.8v.593h-.21a1.534,1.534,0,0,0-1,.328,1.314,1.314,0,0,0-.385,1.076v11.276a1.291,1.291,0,0,0,.413,1.081,1.527,1.527,0,0,0,.97.345h.21Z" transform="translate(-255.728 -475.274)"/>
        <path id="Path_599" data-name="Path 599" class="cls-1" d="M357.192,490.874H352.06V490.3l.2,0a1.476,1.476,0,0,0,1-.354,1.4,1.4,0,0,0,.352-1.052v-5.635l-3.748-5.616a4.028,4.028,0,0,0-1.021-1.159,2.373,2.373,0,0,0-1.189-.29l-.2,0V475.6h5.7v.587l-.2.006a1.2,1.2,0,0,0-.872.26.851.851,0,0,0-.186.476,1.634,1.634,0,0,0,.357.793l2.92,4.328,2.57-3.874a2.678,2.678,0,0,0,.592-1.306.6.6,0,0,0-.117-.4.638.638,0,0,0-.249-.192,3.345,3.345,0,0,0-.335-.092l-.166-.034V475.6h4.192v.589l-.207,0a2.2,2.2,0,0,0-1.082.283,3.146,3.146,0,0,0-.763.59c-.185.21-.393.471-.61.774L355.559,483v5.886a1.256,1.256,0,0,0,.4,1.034,1.639,1.639,0,0,0,1.026.371l.205,0Z" transform="translate(-275.723 -475.274)"/>
        <path id="Path_600" data-name="Path 600" class="cls-1" d="M406.392,483.341h4.147L408.4,477.1Zm9.745,7.005h-5.273v-.58h.211a3.408,3.408,0,0,0,1.082-.132c.066-.023.264-.091.264-.567a2.948,2.948,0,0,0-.184-.851.381.381,0,0,1-.049-.143l-1.266-3.777h-4.838l-1.133,3.5a3.969,3.969,0,0,0-.231,1.138c0,.339.075.559.22.654a1.4,1.4,0,0,0,.767.174h.214v.58h-3.912v-.563l.194-.016a1.549,1.549,0,0,0,1.056-.5,4.093,4.093,0,0,0,.737-1.441l4.246-12.933h1.39l4.5,12.869a6.029,6.029,0,0,0,.638,1.381,1.267,1.267,0,0,0,.507.484,2.5,2.5,0,0,0,.673.144l.19.016Z" transform="translate(-316.457 -474.747)"/>
        <path id="Path_601" data-name="Path 601" class="cls-1" d="M470.933,491.254l-4.835-12.7-.49,9.624a3.988,3.988,0,0,0,.1,1.274.979.979,0,0,0,.383.57,2.344,2.344,0,0,0,.875.278l.176.027v.553h-4.16v-.58l.209,0a1.428,1.428,0,0,0,.952-.29,1.338,1.338,0,0,0,.423-.721,9.392,9.392,0,0,0,.173-1.334l.591-10.871c-.007,0-.023-.028-.075-.1a2.1,2.1,0,0,0-.271-.285,1.881,1.881,0,0,0-.3-.219,1.447,1.447,0,0,0-.518-.223q-.251-.035-.693-.062l-.2-.015V475.6h3.8l4.458,11.775,4.522-11.775h3.472v.57l-.184.02c-.277.034-.475.062-.592.083a.825.825,0,0,0-.313.168,1.006,1.006,0,0,0-.361.4,2.57,2.57,0,0,0-.094.741l-.008.06a.06.06,0,0,0,0,.051l.008.056.514,11.035a2.193,2.193,0,0,0,.3,1.1c.167.269.564.407,1.185.413l.209,0v.58h-5.232v-.563l.19-.018a1.586,1.586,0,0,0,1.134-.465,1.99,1.99,0,0,0,.24-1.261l-.474-10.514Z" transform="translate(-361.98 -475.277)"/>
      </g>
    </g>
    <g id="Group_519" data-name="Group 519" transform="translate(-1010.981 -147)">
      <path id="Path_602" data-name="Path 602" class="cls-1" d="M235.555,209.567c-1.638-.595-3.482-.146-5.123.2a11.412,11.412,0,0,1-4.977.387,3.924,3.924,0,0,1-2.872-3.539,4.323,4.323,0,0,1,2.077-3.8,5.017,5.017,0,0,1,1.229-.574,2.944,2.944,0,0,0-1.09,2.255,2.513,2.513,0,0,0,1.185,2.1,2.324,2.324,0,0,0,.252.127c1.732.9,3.462-.494,4.325-2.056a11.056,11.056,0,0,0,.722-1.594,9.315,9.315,0,0,0,.547-4.529,5.5,5.5,0,0,0-7.266-4.591c-1.637.6-2.761,2.127-3.8,3.448a11.365,11.365,0,0,1-3.561,3.5,3.921,3.921,0,0,1-4.475-.866,4.318,4.318,0,0,1-.855-4.248,5.1,5.1,0,0,1,.575-1.23,2.947,2.947,0,0,0,.613,2.429,2.514,2.514,0,0,0,2.256.844,2.727,2.727,0,0,0,.279-.065c1.9-.43,2.328-2.607,1.992-4.359a11.888,11.888,0,0,0-.477-1.685,9.374,9.374,0,0,0-2.489-3.82,5.5,5.5,0,0,0-8.519,1.157c-.872,1.509-.749,3.408-.691,5.082a11.373,11.373,0,0,1-.485,4.968,3.922,3.922,0,0,1-3.982,2.217,4.323,4.323,0,0,1-3.384-2.707,5.052,5.052,0,0,1-.349-1.312,2.945,2.945,0,0,0,2.028,1.467,2.533,2.533,0,0,0,2.275-.8c.057-.071.113-.147.166-.225,1.186-1.552.116-3.5-1.274-4.622a11.153,11.153,0,0,0-1.445-.989A9.334,9.334,0,0,0,194.6,190.8a5.5,5.5,0,0,0-5.781,6.36c.3,1.716,1.615,3.09,2.736,4.337a11.415,11.415,0,0,1,2.824,4.119,3.922,3.922,0,0,1-1.63,4.256,4.31,4.31,0,0,1-4.33.1,4.89,4.89,0,0,1-1.111-.779,2.939,2.939,0,0,0,2.5-.183,2.52,2.52,0,0,0,1.224-2.073,2.588,2.588,0,0,0-.017-.286c-.09-1.945-2.159-2.748-3.944-2.717a11.273,11.273,0,0,0-1.742.173,9.323,9.323,0,0,0-4.193,1.792,5.5,5.5,0,0,0-.341,8.591c1.335,1.119,3.223,1.327,4.882,1.564a11.4,11.4,0,0,1,4.81,1.339,3.927,3.927,0,0,1,1.489,4.309,4.317,4.317,0,0,1-3.254,2.862,5.053,5.053,0,0,1-1.352.119,2.946,2.946,0,0,0,1.8-1.746,2.518,2.518,0,0,0-.4-2.375c-.061-.073-.126-.142-.193-.208-1.322-1.433-3.423-.721-4.772.453a11.081,11.081,0,0,0-1.222,1.253,9.355,9.355,0,0,0-2.063,4.069,5.507,5.507,0,0,0,5.262,6.8c1.74,0,3.321-1.056,4.744-1.94a11.367,11.367,0,0,1,4.543-2.069,3.922,3.922,0,0,1,3.91,2.345,4.325,4.325,0,0,1-.65,4.284,5.12,5.12,0,0,1-.961.958,2.953,2.953,0,0,0,.255-2.493,2.527,2.527,0,0,0-1.83-1.565,2.57,2.57,0,0,0-.28-.031c-1.934-.251-3.085,1.647-3.365,3.41a11.364,11.364,0,0,0-.133,1.748,9.334,9.334,0,0,0,1.038,4.443,5.5,5.5,0,0,0,8.4,1.828c1.336-1.12,1.869-2.944,2.389-4.54a11.37,11.37,0,0,1,2.153-4.5,3.921,3.921,0,0,1,4.5-.721,4.316,4.316,0,0,1,2.252,3.705,4.921,4.921,0,0,1-.117,1.348,2.942,2.942,0,0,0-1.4-2.071,2.517,2.517,0,0,0-2.409-.023c-.085.05-.164.1-.243.159-1.635,1.053-1.3,3.246-.377,4.774a11.383,11.383,0,0,0,1.02,1.423,9.367,9.367,0,0,0,3.646,2.734,5.5,5.5,0,0,0,7.61-4c.3-1.717-.46-3.455-1.087-5.012a11.4,11.4,0,0,1-1.245-4.834,3.921,3.921,0,0,1,2.986-3.444,4.316,4.316,0,0,1,4.1,1.386,5,5,0,0,1,.777,1.112,2.943,2.943,0,0,0-2.408-.683,2.46,2.46,0,0,0-1.36,4.107,3.143,3.143,0,0,0,2.115,1.056,2.687,2.687,0,0,0,1.933-.751,2.946,2.946,0,0,0,.646-1.021c.615-1.866-.622-3.778-2.031-4.914a8.146,8.146,0,0,0-1.357-.892,6.365,6.365,0,0,0-3.787-.67,5.677,5.677,0,0,0-2.9,1.253c-3.382,2.949-1.069,6.846.18,10.139a4.428,4.428,0,0,1-.852,5.018c-2.462,2.309-5.862.49-7.2-2.13a2.533,2.533,0,0,0,1.457.319,2.9,2.9,0,0,0,1.149-.367c1.671-1.034,1.952-3.293,1.6-5.07a7.882,7.882,0,0,0-.467-1.556,6.361,6.361,0,0,0-2.468-2.947,5.667,5.667,0,0,0-3.024-.9c-4.485.08-5.219,4.557-6.38,7.882a4.428,4.428,0,0,1-3.875,3.3c-3.372.184-4.807-3.4-4.146-6.263a2.539,2.539,0,0,0,.911,1.181,2.945,2.945,0,0,0,1.116.459c1.946.281,3.613-1.269,4.484-2.855a7.862,7.862,0,0,0,.642-1.49,6.342,6.342,0,0,0,0-3.846,5.691,5.691,0,0,0-1.735-2.638c-3.489-2.822-6.928.134-9.953,1.938a4.421,4.421,0,0,1-5.089.035c-2.7-2.027-1.5-5.691.847-7.461a2.554,2.554,0,0,0-.062,1.489,2.973,2.973,0,0,0,.562,1.067c1.308,1.468,3.583,1.352,5.271.7a7.836,7.836,0,0,0,1.448-.73,6.342,6.342,0,0,0,2.474-2.943,5.684,5.684,0,0,0,.365-3.136c-.859-4.4-5.393-4.349-8.868-4.915a4.425,4.425,0,0,1-3.922-3.246c-.767-3.287,2.509-5.324,5.443-5.168a2.52,2.52,0,0,0-1,1.1,2.979,2.979,0,0,0-.258,1.18c.062,1.963,1.878,3.338,3.589,3.922a7.989,7.989,0,0,0,1.581.371,6.332,6.332,0,0,0,3.786-.663,5.676,5.676,0,0,0,2.294-2.168c2.173-3.926-1.337-6.8-3.634-9.467a4.43,4.43,0,0,1-.921-5.007c1.528-3.014,5.347-2.466,7.5-.457a2.568,2.568,0,0,0-1.483.194,2.955,2.955,0,0,0-.952.74c-1.22,1.544-.708,3.764.226,5.313a8.125,8.125,0,0,0,.973,1.3,6.351,6.351,0,0,0,3.33,1.925,5.669,5.669,0,0,0,3.15-.187c4.187-1.611,3.347-6.066,3.3-9.588a4.428,4.428,0,0,1,2.512-4.425c3.107-1.327,5.68,1.548,6.037,4.464a2.516,2.516,0,0,0-1.258-.8,2.949,2.949,0,0,0-1.207-.048c-1.923.4-2.958,2.428-3.239,4.216a8.183,8.183,0,0,0-.092,1.623,6.387,6.387,0,0,0,1.314,3.615,5.7,5.7,0,0,0,2.532,1.881c4.241,1.458,6.462-2.5,8.688-5.225a4.425,4.425,0,0,1,4.77-1.773c3.233.98,3.354,4.837,1.753,7.3a2.537,2.537,0,0,0-.449-1.424,2.952,2.952,0,0,0-.9-.814c-1.733-.931-3.827-.041-5.189,1.149a8.061,8.061,0,0,0-1.114,1.181,6.359,6.359,0,0,0-1.316,3.613,5.667,5.667,0,0,0,.73,3.072c2.312,3.842,6.555,2.241,10.014,1.585a4.423,4.423,0,0,1,4.794,1.706c1.855,2.845-.564,5.9-3.4,6.739a2.669,2.669,0,0,0,.207-.345,2.843,2.843,0,0,0,.288-1.358,2.269,2.269,0,0,0-.528-1.3,2.43,2.43,0,0,0-2.062-1,2.742,2.742,0,0,0-2.666,3.115c.544,2.253,2.99,2.364,4.788,1.672a11.125,11.125,0,0,0,1.578-.757,9.331,9.331,0,0,0,3.329-3.118,5.5,5.5,0,0,0-2.617-8.19" transform="translate(-178.887 -186.386)"/>
      <path id="Path_603" data-name="Path 603" class="cls-2" d="M359.583,315.216c-.872-1.509-2.577-2.348-4.054-3.14a11.386,11.386,0,0,1-4.061-2.9,3.919,3.919,0,0,1,.074-4.558,4.25,4.25,0,0,1,3.189-1.62,5.633,5.633,0,0,1,1.512.173c.135.032.4.121.46.141a2.658,2.658,0,1,0,2.767,2.317v-.009c-.009-.092-.018-.182-.036-.278l-.018-.108-.021-.092c-.014-.07-.033-.141-.055-.214a3.2,3.2,0,0,0-1.767-1.88,6.4,6.4,0,0,0-1.342-.485,7.09,7.09,0,0,0-5.443.99,6.624,6.624,0,0,0-1.108.97,5.665,5.665,0,0,0-1.418,2.821c-.7,4.434,3.582,5.932,6.654,7.651a5.687,5.687,0,0,1,1.679,1.382,3.83,3.83,0,0,1,.882,1.92,4.251,4.251,0,0,1-.439,2.531,4.043,4.043,0,0,1-2.857,1.949,6.214,6.214,0,0,1-1.934.047,6.118,6.118,0,0,1-1.6-.424,2.688,2.688,0,0,0,2.082-2.58,2.781,2.781,0,0,0-5.558,0,2.837,2.837,0,0,0,1.006,2.06,5.945,5.945,0,0,0,2.357,1.257,10.7,10.7,0,0,0,3.546.442,9.173,9.173,0,0,0,1.087-.12,8.009,8.009,0,0,0,1.157-.287,5.5,5.5,0,0,0,3.26-7.956" transform="translate(-304.532 -273.003)"/>
    </g>
    <g id="Group_520" data-name="Group 520" transform="translate(-1009.99 -50.736)">
      <path id="Path_604" data-name="Path 604" class="cls-1" d="M184.891,574.443c0,1.038.267,1.35.964,1.35v.252H182.8v-.252c.653,0,.964-.207.964-1.35v-5.322c0-1.112-.282-1.321-.964-1.321v-.251h3.485c1.913,0,2.832,1.1,2.832,2.223a2.115,2.115,0,0,1-1.75,2.092c1.587,1.022,2.12,3.825,3.529,3.929v.252h-1.735c-1.586-1.927-2.031-3.93-3.588-3.93h-.682Zm0-2.683h1.038a1.843,1.843,0,0,0,2-1.957,1.943,1.943,0,0,0-2.15-1.928h-.89Z" transform="translate(-182.8 -567.238)"/>
      <path id="Path_605" data-name="Path 605" class="cls-1" d="M226.345,572.828h-.252c-.178-.727-.311-.816-1.186-.816H222.8v3.039c0,.416.148.579.623.579h1.483c1.246,0,1.557-.06,2.061-1.171h.252l-.386,1.586H220.71v-.252c.667,0,.964-.207.964-1.334v-5.309c0-1.052-.237-1.35-.964-1.35v-.251h6.124v1.423h-.163c-.193-.934-.49-1.009-1.423-1.009H222.8V571.6h2.373c.578,0,.8-.1.919-.83h.252Z" transform="translate(-211.105 -567.238)"/>
      <path id="Path_606" data-name="Path 606" class="cls-1" d="M258.234,568.8h-.252a1.81,1.81,0,0,0-1.883-1.749c-.89,0-1.527.49-1.527,1.276,0,1.571,2.165,1.987,3.381,3.2a2.214,2.214,0,0,1,.741,1.69,2.417,2.417,0,0,1-2.417,2.417,9.054,9.054,0,0,1-1.942-.445c-.148,0-.252.1-.326.327h-.252v-2.3h.252a2.035,2.035,0,0,0,2.046,2.092,1.522,1.522,0,0,0,1.705-1.513c0-1.468-2.284-2.15-3.233-3.1a2.394,2.394,0,0,1-.727-1.778,2.142,2.142,0,0,1,2.313-2.2,8.044,8.044,0,0,1,1.661.326c.134,0,.163-.029.223-.238h.237Z" transform="translate(-235.778 -566.624)"/>
      <path id="Path_607" data-name="Path 607" class="cls-1" d="M284.6,566.728a4.422,4.422,0,0,1,4.507,4.418,4.53,4.53,0,0,1-9.06,0A4.387,4.387,0,0,1,284.6,566.728Zm-.045,8.586c2.135,0,3.247-2.032,3.247-4.093,0-2.669-1.423-4.166-3.173-4.166-2,0-3.277,1.646-3.277,4.106C281.355,573.637,282.645,575.314,284.557,575.314Z" transform="translate(-255.41 -566.624)"/>
      <path id="Path_608" data-name="Path 608" class="cls-1" d="M324.216,574.443c0,1.038.267,1.35.964,1.35v.252h-3.054v-.252c.653,0,.964-.207.964-1.35v-5.322c0-1.112-.282-1.321-.964-1.321v-.251h3.485c1.913,0,2.832,1.1,2.832,2.223a2.115,2.115,0,0,1-1.75,2.092c1.587,1.022,2.12,3.825,3.529,3.929v.252h-1.735c-1.586-1.927-2.031-3.93-3.588-3.93h-.682Zm0-2.683h1.038a1.843,1.843,0,0,0,2-1.957,1.943,1.943,0,0,0-2.15-1.928h-.89Z" transform="translate(-286.824 -567.238)"/>
      <path id="Path_609" data-name="Path 609" class="cls-1" d="M360.576,573.569c0,1.023.193,1.3.919,1.3v.252h-3.01v-.252c.608,0,.964-.178.964-1.35v-6.479h-1.231c-1.142,0-1.661.327-1.735,1.216h-.252v-1.942h.252a1.127,1.127,0,0,0,.46.238,3.779,3.779,0,0,0,.816.074h4.448a1.949,1.949,0,0,0,1.349-.312h.267v1.942h-.163c-.163-.711-.445-1.216-1.795-1.216h-1.29Z" transform="translate(-312.288 -566.319)"/>
      <path id="Path_610" data-name="Path 610" class="cls-1" d="M397.466,568.8h-.252a1.809,1.809,0,0,0-1.883-1.749c-.89,0-1.527.49-1.527,1.276,0,1.571,2.165,1.987,3.381,3.2a2.214,2.214,0,0,1,.741,1.69,2.417,2.417,0,0,1-2.417,2.417,9.055,9.055,0,0,1-1.942-.445c-.148,0-.252.1-.326.327h-.252v-2.3h.252a2.035,2.035,0,0,0,2.046,2.092,1.522,1.522,0,0,0,1.705-1.513c0-1.468-2.284-2.15-3.233-3.1a2.4,2.4,0,0,1-.727-1.778,2.142,2.142,0,0,1,2.313-2.2,8.044,8.044,0,0,1,1.661.326c.134,0,.163-.029.223-.238h.237Z" transform="translate(-339.732 -566.624)"/>
    </g>
  </g>
</svg>
