<svg xmlns="http://www.w3.org/2000/svg" width="121.543" height="108.243" viewBox="0 0 121.543 108.243">
  <defs>
    <style>
      .cls-1 {
        fill: #86754d;
      }

      .cls-2 {
        fill: #ff5000;
      }
    </style>
  </defs>
  <g id="Group_521" data-name="Group 521" transform="translate(-64.356 -186.386)">
    <g id="Group_518" data-name="Group 518" transform="translate(64.356 261.397)">
      <g id="Group_517" data-name="Group 517" transform="translate(0 0)">
        <path id="Path_594" data-name="Path 594" class="cls-1" d="M68.783,490.71a6.57,6.57,0,0,1-1.727-.209,9.278,9.278,0,0,1-1.511-.58,1.274,1.274,0,0,0-.33-.082c-.074,0-.083.018-.087.027a4.3,4.3,0,0,0-.168.632l-.038.171h-.565v-4.26h.565l.038.17A4.122,4.122,0,0,0,66.335,489a3.872,3.872,0,0,0,2.488.814,3.3,3.3,0,0,0,1.746-.4,2.149,2.149,0,0,0,.886-.96,2.874,2.874,0,0,0,.252-1.159,2.7,2.7,0,0,0-.723-1.948,9.41,9.41,0,0,0-2.324-1.624c-.755-.413-1.291-.72-1.641-.941a6.8,6.8,0,0,1-1.112-.889,4.313,4.313,0,0,1-.651-5.231,4.487,4.487,0,0,1,1.7-1.661,5.752,5.752,0,0,1,4.614-.272.831.831,0,0,0,.378.074c.052,0,.175,0,.256-.307l.044-.16h.548v3.7h-.572l-.023-.188a3.121,3.121,0,0,0-.909-1.82,2.685,2.685,0,0,0-2.019-.772,2.763,2.763,0,0,0-1.455.384,2.61,2.61,0,0,0-.976,1.047,3.255,3.255,0,0,0-.351,1.537A3.183,3.183,0,0,0,66.7,479.4a2.628,2.628,0,0,0,.61.907,5.783,5.783,0,0,0,.991.765c.39.244.924.555,1.587.922a12.359,12.359,0,0,1,2.66,1.877,3.587,3.587,0,0,1,1,2.668,4.058,4.058,0,0,1-.528,1.986,4.138,4.138,0,0,1-1.6,1.573,5.252,5.252,0,0,1-2.627.609" transform="translate(-64.356 -474.328)"/>
        <path id="Path_595" data-name="Path 595" class="cls-1" d="M114.84,491.715a5.84,5.84,0,0,1-3.039-.809,5.252,5.252,0,0,1-1.994-2,5.086,5.086,0,0,1-.573-1.76,14.338,14.338,0,0,1-.115-1.849v-7.6a2.024,2.024,0,0,0-.244-1.04c-.143-.241-.538-.4-1.142-.444l-.2-.018V475.6h5.232v.587l-.19.022c-.632.072-1.03.243-1.187.506a1.881,1.881,0,0,0-.26.978v7.477a8.937,8.937,0,0,0,.449,3.287,3.772,3.772,0,0,0,1.414,1.718,3.817,3.817,0,0,0,2.142.62,4.98,4.98,0,0,0,1.2-.18,4.07,4.07,0,0,0,1.29-.592,4.487,4.487,0,0,0,1.8-3.98v-8.349a1.942,1.942,0,0,0-.26-1.008c-.152-.258-.568-.421-1.2-.476l-.2-.018V475.6h5.318v.6l-.207.01c-.623.029-1.02.19-1.179.477a2.019,2.019,0,0,0-.272.985v11.573a1.7,1.7,0,0,0,.171.841.906.906,0,0,0,.456.4,4.271,4.271,0,0,0,.833.226l.177.033v.561h-3.637v-1.994a4.506,4.506,0,0,1-1.718,1.656,5.95,5.95,0,0,1-2.868.744" transform="translate(-96.285 -475.269)"/>
        <path id="Path_596" data-name="Path 596" class="cls-1" d="M188.284,491.693h-.417l-.063-.071-11.352-12.668v8.83a11.605,11.605,0,0,0,.09,1.709,1.765,1.765,0,0,0,.233.727,1.418,1.418,0,0,0,1.169.491l.208.007v.591h-4.259v-.589l.206-.009a1.741,1.741,0,0,0,.89-.239,1.223,1.223,0,0,0,.42-.761,9.46,9.46,0,0,0,.141-1.906v-9.883l-.452-.507a4.064,4.064,0,0,0-1.013-.921,3.422,3.422,0,0,0-.946-.287l-.178-.029V475.6h3.186l11.24,12.591v-9.3a11.421,11.421,0,0,0-.087-1.625,1.212,1.212,0,0,0-.4-.753,1.692,1.692,0,0,0-1.053-.307l-.208-.01v-.6h4.27v.584l-.188.023a3.243,3.243,0,0,0-.858.2.854.854,0,0,0-.412.479,3.246,3.246,0,0,0-.169,1.187Z" transform="translate(-144.669 -475.269)"/>
        <path id="Path_597" data-name="Path 597" class="cls-1" d="M281.763,490.71a6.577,6.577,0,0,1-1.726-.209,9.156,9.156,0,0,1-1.509-.58,1.309,1.309,0,0,0-.331-.082c-.076,0-.086.018-.088.027a4.489,4.489,0,0,0-.169.632l-.037.171h-.567v-4.26h.567l.037.17A4.128,4.128,0,0,0,279.316,489a3.878,3.878,0,0,0,2.49.814,3.317,3.317,0,0,0,1.749-.4,2.175,2.175,0,0,0,.882-.96,2.919,2.919,0,0,0,.252-1.159,2.7,2.7,0,0,0-.722-1.948,9.426,9.426,0,0,0-2.324-1.624c-.757-.413-1.293-.72-1.641-.941a6.682,6.682,0,0,1-1.109-.889,4.187,4.187,0,0,1-.913-1.318,4.235,4.235,0,0,1-.339-1.741,4.3,4.3,0,0,1,.6-2.173,4.509,4.509,0,0,1,1.7-1.661,5.748,5.748,0,0,1,4.612-.272.845.845,0,0,0,.381.074c.051,0,.175,0,.256-.307l.044-.16h.547v3.7H285.2l-.026-.188a3.093,3.093,0,0,0-.907-1.82,2.716,2.716,0,0,0-2.018-.772,2.755,2.755,0,0,0-1.454.384,2.663,2.663,0,0,0-.98,1.047,3.308,3.308,0,0,0-.346,1.537,3.188,3.188,0,0,0,.207,1.189,2.612,2.612,0,0,0,.609.907,5.674,5.674,0,0,0,.99.765c.392.244.926.555,1.588.922a12.394,12.394,0,0,1,2.66,1.877,3.589,3.589,0,0,1,1,2.668,4.052,4.052,0,0,1-.53,1.986,4.1,4.1,0,0,1-1.6,1.573,5.254,5.254,0,0,1-2.628.609" transform="translate(-221.853 -474.328)"/>
        <path id="Path_598" data-name="Path 598" class="cls-1" d="M325.947,491.3h-5.276v-.6h.216a1.549,1.549,0,0,0,1.009-.343,1.374,1.374,0,0,0,.4-1.124V477.648a1.335,1.335,0,0,0-.395-1.131,1.653,1.653,0,0,0-1.019-.312h-.216v-.61h5.276v.61h-.216a1.577,1.577,0,0,0-1.026.337,1.351,1.351,0,0,0-.4,1.106v11.594a1.327,1.327,0,0,0,.425,1.112,1.571,1.571,0,0,0,1,.355h.216Z" transform="translate(-253.899 -475.265)"/>
        <path id="Path_599" data-name="Path 599" class="cls-1" d="M357.467,491.3H352.19v-.592l.209,0a1.517,1.517,0,0,0,1.027-.364,1.435,1.435,0,0,0,.362-1.081v-5.794l-3.853-5.774a4.141,4.141,0,0,0-1.049-1.192,2.44,2.44,0,0,0-1.223-.3l-.21,0v-.605h5.855v.6l-.208.006a1.231,1.231,0,0,0-.9.268.875.875,0,0,0-.192.489,1.68,1.68,0,0,0,.367.815l3,4.45,2.642-3.983a2.753,2.753,0,0,0,.609-1.343.616.616,0,0,0-.12-.41.656.656,0,0,0-.256-.2,3.436,3.436,0,0,0-.345-.1l-.171-.035v-.57h4.31v.605l-.213,0a2.261,2.261,0,0,0-1.112.291,3.235,3.235,0,0,0-.784.606c-.19.216-.4.484-.628.8l-3.526,5.312v6.052a1.291,1.291,0,0,0,.413,1.063,1.686,1.686,0,0,0,1.055.382l.211,0Z" transform="translate(-273.704 -475.265)"/>
        <path id="Path_600" data-name="Path 600" class="cls-1" d="M406.515,483.579h4.264l-2.2-6.413Zm10.02,7.2h-5.421v-.6h.217a3.5,3.5,0,0,0,1.112-.136c.068-.023.272-.094.272-.583a3.031,3.031,0,0,0-.189-.875.391.391,0,0,1-.05-.147l-1.3-3.883H406.2l-1.165,3.6a4.08,4.08,0,0,0-.238,1.17c0,.349.077.575.227.673a1.441,1.441,0,0,0,.789.179h.22v.6h-4.022V490.2l.2-.017a1.593,1.593,0,0,0,1.086-.518,4.209,4.209,0,0,0,.758-1.482l4.366-13.3h1.429l4.623,13.231a6.2,6.2,0,0,0,.656,1.419,1.3,1.3,0,0,0,.521.5,2.569,2.569,0,0,0,.692.148l.2.017Z" transform="translate(-314.048 -474.743)"/>
        <path id="Path_601" data-name="Path 601" class="cls-1" d="M471.157,491.695l-4.971-13.059-.5,9.895a4.1,4.1,0,0,0,.1,1.31,1.007,1.007,0,0,0,.394.586,2.41,2.41,0,0,0,.9.286l.181.027v.569H462.98v-.6l.214,0a1.468,1.468,0,0,0,.979-.3,1.376,1.376,0,0,0,.435-.741,9.659,9.659,0,0,0,.178-1.372l.607-11.177c-.008,0-.023-.029-.077-.1a2.154,2.154,0,0,0-.279-.293,1.935,1.935,0,0,0-.31-.225,1.488,1.488,0,0,0-.533-.229q-.258-.036-.712-.064l-.2-.015v-.6h3.911l4.583,12.106,4.649-12.106h3.57v.586l-.189.021c-.284.035-.488.064-.608.086a.848.848,0,0,0-.322.173,1.034,1.034,0,0,0-.371.411,2.642,2.642,0,0,0-.1.761l-.008.061a.061.061,0,0,0,0,.052l.008.058.529,11.346a2.255,2.255,0,0,0,.31,1.13c.171.276.58.419,1.219.425l.214,0v.6H475.3v-.579l.195-.018a1.63,1.63,0,0,0,1.166-.479,2.046,2.046,0,0,0,.246-1.3l-.487-10.81Z" transform="translate(-359.136 -475.268)"/>
      </g>
    </g>
    <g id="Group_519" data-name="Group 519" transform="translate(94.192 186.386)">
      <path id="Path_602" data-name="Path 602" class="cls-1" d="M237.151,210.219c-1.684-.612-3.58-.15-5.267.208a11.733,11.733,0,0,1-5.117.4,4.035,4.035,0,0,1-2.953-3.638,4.445,4.445,0,0,1,2.135-3.911,5.158,5.158,0,0,1,1.264-.59,3.027,3.027,0,0,0-1.12,2.318,2.584,2.584,0,0,0,1.219,2.156,2.391,2.391,0,0,0,.259.131c1.781.921,3.56-.507,4.446-2.113a11.371,11.371,0,0,0,.743-1.639,9.577,9.577,0,0,0,.562-4.657,5.657,5.657,0,0,0-7.471-4.72c-1.683.614-2.839,2.187-3.9,3.545a11.685,11.685,0,0,1-3.661,3.594,4.032,4.032,0,0,1-4.6-.89,4.439,4.439,0,0,1-.879-4.368,5.244,5.244,0,0,1,.591-1.265,3.03,3.03,0,0,0,.63,2.5,2.585,2.585,0,0,0,2.319.868,2.8,2.8,0,0,0,.287-.067c1.951-.442,2.394-2.68,2.048-4.482a12.223,12.223,0,0,0-.49-1.733,9.638,9.638,0,0,0-2.559-3.928,5.659,5.659,0,0,0-8.758,1.189c-.9,1.552-.77,3.5-.711,5.225a11.693,11.693,0,0,1-.5,5.108,4.033,4.033,0,0,1-4.094,2.279,4.444,4.444,0,0,1-3.479-2.784,5.194,5.194,0,0,1-.359-1.349,3.028,3.028,0,0,0,2.085,1.509,2.6,2.6,0,0,0,2.339-.826c.058-.073.116-.152.171-.231,1.219-1.6.119-3.6-1.31-4.752a11.467,11.467,0,0,0-1.486-1.016,9.6,9.6,0,0,0-4.487-1.36,5.657,5.657,0,0,0-5.944,6.539c.312,1.764,1.661,3.177,2.813,4.459a11.736,11.736,0,0,1,2.9,4.235,4.033,4.033,0,0,1-1.676,4.376,4.431,4.431,0,0,1-4.452.1,5.028,5.028,0,0,1-1.143-.8,3.021,3.021,0,0,0,2.568-.188,2.591,2.591,0,0,0,1.258-2.132,2.661,2.661,0,0,0-.018-.294c-.093-2-2.22-2.825-4.055-2.794a11.59,11.59,0,0,0-1.791.178,9.585,9.585,0,0,0-4.311,1.842,5.658,5.658,0,0,0-.351,8.832c1.373,1.151,3.314,1.364,5.019,1.608a11.716,11.716,0,0,1,4.945,1.377,4.038,4.038,0,0,1,1.531,4.43A4.438,4.438,0,0,1,189,225.641a5.2,5.2,0,0,1-1.39.122,3.029,3.029,0,0,0,1.847-1.795,2.588,2.588,0,0,0-.407-2.442,2.914,2.914,0,0,0-.2-.214c-1.359-1.474-3.52-.742-4.906.465a11.393,11.393,0,0,0-1.256,1.288,9.618,9.618,0,0,0-2.121,4.183,5.662,5.662,0,0,0,5.41,6.992c1.789,0,3.415-1.085,4.877-1.995a11.687,11.687,0,0,1,4.671-2.127,4.032,4.032,0,0,1,4.02,2.411,4.447,4.447,0,0,1-.668,4.4,5.265,5.265,0,0,1-.988.985,3.036,3.036,0,0,0,.262-2.563,2.6,2.6,0,0,0-1.882-1.609,2.643,2.643,0,0,0-.288-.032c-1.988-.258-3.172,1.694-3.46,3.506a11.682,11.682,0,0,0-.137,1.8,9.6,9.6,0,0,0,1.067,4.568,5.653,5.653,0,0,0,8.633,1.879c1.373-1.151,1.921-3.027,2.457-4.668a11.69,11.69,0,0,1,2.214-4.628,4.031,4.031,0,0,1,4.627-.742,4.438,4.438,0,0,1,2.316,3.809,5.059,5.059,0,0,1-.121,1.386,3.024,3.024,0,0,0-1.444-2.129,2.588,2.588,0,0,0-2.477-.023c-.088.052-.169.106-.25.163-1.681,1.082-1.333,3.338-.387,4.908a11.7,11.7,0,0,0,1.049,1.463,9.631,9.631,0,0,0,3.749,2.811,5.655,5.655,0,0,0,7.824-4.111c.31-1.765-.473-3.553-1.118-5.153a11.724,11.724,0,0,1-1.28-4.97,4.032,4.032,0,0,1,3.07-3.541,4.437,4.437,0,0,1,4.22,1.425,5.141,5.141,0,0,1,.8,1.143,3.026,3.026,0,0,0-2.476-.7,2.529,2.529,0,0,0-1.4,4.222,3.232,3.232,0,0,0,2.174,1.085,2.763,2.763,0,0,0,1.987-.772,3.029,3.029,0,0,0,.664-1.05c.633-1.919-.639-3.884-2.088-5.052a8.377,8.377,0,0,0-1.4-.917,6.545,6.545,0,0,0-3.894-.689,5.837,5.837,0,0,0-2.979,1.288c-3.477,3.032-1.1,7.039.185,10.425a4.553,4.553,0,0,1-.876,5.159c-2.532,2.375-6.027.5-7.4-2.19a2.6,2.6,0,0,0,1.5.328,2.984,2.984,0,0,0,1.181-.378c1.718-1.063,2.007-3.386,1.646-5.212a8.106,8.106,0,0,0-.48-1.6,6.54,6.54,0,0,0-2.538-3.03,5.826,5.826,0,0,0-3.109-.929c-4.611.083-5.366,4.685-6.56,8.1a4.553,4.553,0,0,1-3.984,3.394c-3.467.189-4.943-3.493-4.262-6.44a2.61,2.61,0,0,0,.937,1.214,3.027,3.027,0,0,0,1.148.472c2,.289,3.715-1.3,4.61-2.936a8.083,8.083,0,0,0,.66-1.532,6.52,6.52,0,0,0,0-3.954,5.852,5.852,0,0,0-1.783-2.712c-3.588-2.9-7.123.138-10.233,1.993a4.546,4.546,0,0,1-5.232.036c-2.776-2.084-1.542-5.851.871-7.671a2.626,2.626,0,0,0-.063,1.531,3.057,3.057,0,0,0,.578,1.1c1.345,1.509,3.684,1.391,5.42.718a8.057,8.057,0,0,0,1.489-.751,6.52,6.52,0,0,0,2.543-3.026,5.844,5.844,0,0,0,.375-3.225c-.883-4.529-5.545-4.471-9.117-5.054a4.55,4.55,0,0,1-4.032-3.337c-.788-3.38,2.58-5.474,5.6-5.314a2.591,2.591,0,0,0-1.031,1.131,3.063,3.063,0,0,0-.265,1.213c.064,2.018,1.931,3.432,3.69,4.032a8.212,8.212,0,0,0,1.626.382,6.51,6.51,0,0,0,3.893-.682,5.836,5.836,0,0,0,2.359-2.229c2.234-4.037-1.375-6.992-3.736-9.734a4.555,4.555,0,0,1-.947-5.148c1.571-3.1,5.5-2.535,7.71-.47a2.64,2.64,0,0,0-1.525.2,3.038,3.038,0,0,0-.978.76c-1.254,1.588-.728,3.87.232,5.462a8.354,8.354,0,0,0,1,1.338,6.53,6.53,0,0,0,3.423,1.98,5.829,5.829,0,0,0,3.238-.193c4.305-1.656,3.441-6.237,3.392-9.858a4.553,4.553,0,0,1,2.583-4.549c3.195-1.365,5.84,1.591,6.207,4.59a2.586,2.586,0,0,0-1.293-.82,3.031,3.031,0,0,0-1.241-.05c-1.978.412-3.041,2.5-3.331,4.335a8.413,8.413,0,0,0-.095,1.669,6.567,6.567,0,0,0,1.351,3.717,5.858,5.858,0,0,0,2.6,1.934c4.361,1.5,6.644-2.568,8.933-5.372a4.55,4.55,0,0,1,4.9-1.823c3.324,1.008,3.449,4.974,1.8,7.51a2.609,2.609,0,0,0-.462-1.464,3.035,3.035,0,0,0-.92-.836c-1.781-.957-3.935-.042-5.335,1.181a8.288,8.288,0,0,0-1.145,1.215,6.538,6.538,0,0,0-1.353,3.715,5.826,5.826,0,0,0,.751,3.158c2.377,3.951,6.739,2.3,10.3,1.63a4.547,4.547,0,0,1,4.929,1.755c1.907,2.925-.58,6.063-3.493,6.928a2.746,2.746,0,0,0,.213-.354,2.923,2.923,0,0,0,.3-1.4,2.333,2.333,0,0,0-.543-1.332,2.5,2.5,0,0,0-2.12-1.028,2.819,2.819,0,0,0-2.741,3.2c.559,2.316,3.074,2.431,4.923,1.719a11.438,11.438,0,0,0,1.623-.779,9.594,9.594,0,0,0,3.423-3.206,5.659,5.659,0,0,0-2.691-8.421" transform="translate(-178.887 -186.386)"/>
      <path id="Path_603" data-name="Path 603" class="cls-2" d="M359.933,315.577c-.9-1.551-2.65-2.415-4.168-3.228a11.707,11.707,0,0,1-4.175-2.984,4.029,4.029,0,0,1,.077-4.686,4.37,4.37,0,0,1,3.279-1.665,5.791,5.791,0,0,1,1.554.178c.139.033.414.125.473.145a2.733,2.733,0,1,0,2.845,2.382v-.01c-.009-.095-.018-.187-.038-.286l-.019-.111-.022-.095c-.014-.072-.034-.145-.056-.22a3.29,3.29,0,0,0-1.816-1.933,6.585,6.585,0,0,0-1.38-.5,7.29,7.29,0,0,0-5.6,1.018,6.811,6.811,0,0,0-1.139,1,5.825,5.825,0,0,0-1.458,2.9c-.715,4.559,3.683,6.1,6.842,7.866a5.847,5.847,0,0,1,1.726,1.421,3.938,3.938,0,0,1,.907,1.974,4.37,4.37,0,0,1-.451,2.6,4.157,4.157,0,0,1-2.937,2,6.389,6.389,0,0,1-1.989.048,6.29,6.29,0,0,1-1.648-.436,2.764,2.764,0,0,0,2.141-2.652,2.86,2.86,0,0,0-5.714,0,2.917,2.917,0,0,0,1.035,2.118,6.112,6.112,0,0,0,2.423,1.292,11,11,0,0,0,3.646.455,9.438,9.438,0,0,0,1.118-.123,8.234,8.234,0,0,0,1.189-.3,5.66,5.66,0,0,0,3.352-8.18" transform="translate(-303.331 -272.176)"/>
    </g>
    <g id="Group_520" data-name="Group 520" transform="translate(95.211 285.361)">
      <path id="Path_604" data-name="Path 604" class="cls-2" d="M184.95,574.638c0,1.067.275,1.388.991,1.388v.259H182.8v-.259c.671,0,.991-.213.991-1.388v-5.472c0-1.144-.29-1.358-.991-1.358v-.258h3.583c1.967,0,2.912,1.127,2.912,2.286a2.174,2.174,0,0,1-1.8,2.151c1.632,1.051,2.18,3.933,3.629,4.039v.259H189.34c-1.631-1.981-2.088-4.041-3.689-4.041h-.7Zm0-2.759h1.067a1.9,1.9,0,0,0,2.058-2.012,2,2,0,0,0-2.21-1.983h-.915Z" transform="translate(-182.8 -567.229)"/>
      <path id="Path_605" data-name="Path 605" class="cls-2" d="M226.5,572.977h-.259c-.183-.748-.32-.839-1.219-.839h-2.165v3.125c0,.427.153.6.64.6h1.525c1.281,0,1.6-.061,2.119-1.2h.259l-.4,1.631h-6.3v-.259c.686,0,.991-.213.991-1.372V569.2c0-1.082-.244-1.388-.991-1.388v-.258h6.3v1.463h-.167c-.2-.96-.5-1.037-1.464-1.037h-2.516v3.735H225.3c.594,0,.823-.106.945-.853h.259Z" transform="translate(-210.834 -567.229)"/>
      <path id="Path_606" data-name="Path 606" class="cls-2" d="M258.36,568.862H258.1a1.861,1.861,0,0,0-1.936-1.8c-.915,0-1.57.5-1.57,1.311,0,1.616,2.226,2.043,3.476,3.293a2.276,2.276,0,0,1,.762,1.737,2.485,2.485,0,0,1-2.485,2.485,9.309,9.309,0,0,1-2-.457c-.152,0-.259.107-.335.336h-.259V573.4h.259a2.092,2.092,0,0,0,2.1,2.151A1.564,1.564,0,0,0,257.873,574c0-1.509-2.348-2.211-3.324-3.186a2.462,2.462,0,0,1-.747-1.828,2.2,2.2,0,0,1,2.378-2.257,8.269,8.269,0,0,1,1.707.335c.138,0,.168-.03.229-.244h.244Z" transform="translate(-235.271 -566.621)"/>
      <path id="Path_607" data-name="Path 607" class="cls-2" d="M284.73,566.728a4.546,4.546,0,0,1,4.634,4.543,4.657,4.657,0,0,1-9.315,0A4.511,4.511,0,0,1,284.73,566.728Zm-.046,8.828c2.2,0,3.338-2.089,3.338-4.208,0-2.744-1.464-4.284-3.262-4.284-2.058,0-3.369,1.692-3.369,4.222C281.391,573.832,282.718,575.556,284.684,575.556Z" transform="translate(-254.716 -566.621)"/>
      <path id="Path_608" data-name="Path 608" class="cls-2" d="M324.274,574.638c0,1.067.275,1.388.991,1.388v.259h-3.14v-.259c.671,0,.991-.213.991-1.388v-5.472c0-1.144-.29-1.358-.991-1.358v-.258h3.583c1.967,0,2.912,1.127,2.912,2.286a2.174,2.174,0,0,1-1.8,2.151c1.632,1.051,2.18,3.933,3.629,4.039v.259h-1.784c-1.631-1.981-2.089-4.041-3.689-4.041h-.7Zm0-2.759h1.067a1.9,1.9,0,0,0,2.058-2.012,2,2,0,0,0-2.21-1.983h-.915Z" transform="translate(-285.83 -567.229)"/>
      <path id="Path_609" data-name="Path 609" class="cls-2" d="M360.7,573.774c0,1.052.2,1.342.945,1.342v.259h-3.095v-.259c.625,0,.991-.183.991-1.388v-6.662h-1.266c-1.174,0-1.707.336-1.783,1.25h-.259v-2h.259a1.158,1.158,0,0,0,.473.244,3.881,3.881,0,0,0,.839.076h4.573a2,2,0,0,0,1.387-.321h.274v2h-.167c-.168-.731-.458-1.25-1.845-1.25H360.7Z" transform="translate(-311.051 -566.319)"/>
      <path id="Path_610" data-name="Path 610" class="cls-2" d="M397.592,568.862h-.259a1.86,1.86,0,0,0-1.936-1.8c-.915,0-1.57.5-1.57,1.311,0,1.616,2.226,2.043,3.476,3.293a2.277,2.277,0,0,1,.762,1.737,2.485,2.485,0,0,1-2.485,2.485,9.309,9.309,0,0,1-2-.457c-.152,0-.259.107-.335.336h-.259V573.4h.259a2.093,2.093,0,0,0,2.1,2.151A1.564,1.564,0,0,0,397.1,574c0-1.509-2.348-2.211-3.324-3.186a2.462,2.462,0,0,1-.747-1.828,2.2,2.2,0,0,1,2.378-2.257,8.269,8.269,0,0,1,1.707.335c.138,0,.168-.03.229-.244h.244Z" transform="translate(-338.233 -566.621)"/>
    </g>
  </g>
</svg>
