<svg xmlns="http://www.w3.org/2000/svg" width="12.815" height="12.815" viewBox="0 0 12.815 12.815">
  <defs>
    <style>
      .cls-1 {
        fill: #FF5000;
      }
    </style>
  </defs>
  <g id="Group_106" data-name="Group 106" transform="translate(-4186.17 -676.34)">
    <path id="Path_142" data-name="Path 142" class="cls-1" d="M4192.577,677.495c1.711,0,1.914.006,2.589.037a3.55,3.55,0,0,1,1.19.221,2.118,2.118,0,0,1,1.216,1.216,3.533,3.533,0,0,1,.221,1.189c.031.676.037.879.037,2.59s-.006,1.913-.037,2.589a3.54,3.54,0,0,1-.221,1.19,1.976,1.976,0,0,1-.479.736,2,2,0,0,1-.737.48,3.557,3.557,0,0,1-1.19.22c-.675.031-.878.038-2.589.038s-1.913-.007-2.589-.038a3.557,3.557,0,0,1-1.19-.22,2,2,0,0,1-.736-.48,1.972,1.972,0,0,1-.48-.736,3.572,3.572,0,0,1-.22-1.19c-.031-.676-.038-.879-.038-2.589s.007-1.914.038-2.589a3.567,3.567,0,0,1,.22-1.19,2.125,2.125,0,0,1,1.216-1.216,3.55,3.55,0,0,1,1.19-.221c.676-.031.878-.037,2.589-.037m0-1.155c-1.74,0-1.958.008-2.642.039a4.684,4.684,0,0,0-1.555.3,3.277,3.277,0,0,0-1.874,1.874,4.706,4.706,0,0,0-.3,1.555c-.031.683-.038.9-.038,2.642s.007,1.958.038,2.641a4.718,4.718,0,0,0,.3,1.556,3.277,3.277,0,0,0,1.874,1.874,4.714,4.714,0,0,0,1.555.3c.684.032.9.039,2.642.039s1.958-.007,2.642-.039a4.7,4.7,0,0,0,1.555-.3,3.273,3.273,0,0,0,1.874-1.874,4.681,4.681,0,0,0,.3-1.556c.031-.683.039-.9.039-2.641s-.008-1.959-.039-2.642a4.668,4.668,0,0,0-.3-1.555,3.274,3.274,0,0,0-1.874-1.874,4.676,4.676,0,0,0-1.555-.3c-.684-.031-.9-.039-2.642-.039Z"/>
    <path id="Path_143" data-name="Path 143" class="cls-1" d="M4192.577,679.457a3.291,3.291,0,1,0,3.29,3.291A3.29,3.29,0,0,0,4192.577,679.457Zm0,5.426a2.135,2.135,0,1,1,2.136-2.135A2.136,2.136,0,0,1,4192.577,684.883Z"/>
    <circle id="Ellipse_18" data-name="Ellipse 18" class="cls-1" cx="0.769" cy="0.769" r="0.769" transform="translate(4195.229 678.558)"/>
  </g>
</svg>
