<svg xmlns="http://www.w3.org/2000/svg" width="12.814" height="12.814" viewBox="0 0 12.814 12.814">
  <defs>
    <style>
      .cls-1 {
        fill: #fff;
      }
    </style>
  </defs>
  <g id="Group_336" data-name="Group 336" transform="translate(-1166.948 -3910.892)">
    <path id="Path_416" data-name="Path 416" class="cls-1" d="M1173.355,3912.046c1.711,0,1.914.007,2.589.037a3.556,3.556,0,0,1,1.19.221,2.118,2.118,0,0,1,1.216,1.216,3.551,3.551,0,0,1,.221,1.19c.03.676.037.878.037,2.589s-.007,1.914-.037,2.589a3.549,3.549,0,0,1-.221,1.19,2.118,2.118,0,0,1-1.216,1.216,3.543,3.543,0,0,1-1.19.221c-.675.03-.878.037-2.589.037s-1.914-.007-2.589-.037a3.542,3.542,0,0,1-1.19-.221,2.117,2.117,0,0,1-1.216-1.216,3.529,3.529,0,0,1-.22-1.19c-.031-.675-.038-.878-.038-2.589s.007-1.913.038-2.589a3.53,3.53,0,0,1,.22-1.19,2.117,2.117,0,0,1,1.216-1.216,3.554,3.554,0,0,1,1.19-.221c.676-.03.878-.037,2.589-.037m0-1.154c-1.74,0-1.958.007-2.642.038a4.711,4.711,0,0,0-1.555.3,3.275,3.275,0,0,0-1.874,1.874,4.707,4.707,0,0,0-.3,1.555c-.031.684-.038.9-.038,2.642s.007,1.958.038,2.642a4.7,4.7,0,0,0,.3,1.555,3.275,3.275,0,0,0,1.874,1.874,4.712,4.712,0,0,0,1.555.3c.684.031.9.038,2.642.038s1.958-.007,2.642-.038a4.706,4.706,0,0,0,1.555-.3,3.276,3.276,0,0,0,1.874-1.874,4.706,4.706,0,0,0,.3-1.555c.031-.684.038-.9.038-2.642s-.007-1.958-.038-2.642a4.711,4.711,0,0,0-.3-1.555,3.276,3.276,0,0,0-1.874-1.874,4.705,4.705,0,0,0-1.555-.3c-.684-.031-.9-.038-2.642-.038Z"/>
    <path id="Path_417" data-name="Path 417" class="cls-1" d="M1173.355,3914.009a3.29,3.29,0,1,0,3.29,3.29A3.29,3.29,0,0,0,1173.355,3914.009Zm0,5.426a2.136,2.136,0,1,1,2.136-2.136A2.136,2.136,0,0,1,1173.355,3919.435Z"/>
    <circle id="Ellipse_49" data-name="Ellipse 49" class="cls-1" cx="0.769" cy="0.769" r="0.769" transform="translate(1176.006 3913.11)"/>
  </g>
</svg>
