<svg xmlns="http://www.w3.org/2000/svg" width="13.315" height="12.105" viewBox="0 0 13.315 12.105">
  <defs>
    <style>
      .cls-1 {
        fill: #FF5000;
      }
    </style>
  </defs>
  <g id="LinkedIn" transform="translate(-4229.144 -676.695)">
    <rect id="Rectangle_88" data-name="Rectangle 88" class="cls-1" width="2.595" height="8.223" transform="translate(4229.48 680.577)"/>
    <path id="Path_144" data-name="Path 144" class="cls-1" d="M4239.165,680.5a2.664,2.664,0,0,0-2.59,1.37v-1.291h-2.915c.037.685,0,8.223,0,8.223h2.915v-4.45a1.874,1.874,0,0,1,.063-.672,1.486,1.486,0,0,1,1.406-1.007c1.012,0,1.472.76,1.472,1.874V688.8h2.943v-4.572C4242.459,681.681,4241.01,680.5,4239.165,680.5Z"/>
    <path id="Path_145" data-name="Path 145" class="cls-1" d="M4230.729,676.7a1.449,1.449,0,0,0-1.585,1.428,1.434,1.434,0,0,0,1.549,1.425h.018a1.433,1.433,0,1,0,.018-2.853Z"/>
  </g>
</svg>
