<svg xmlns="http://www.w3.org/2000/svg" width="13.315" height="12.104" viewBox="0 0 13.315 12.104">
  <defs>
    <style>
      .cls-1 {
        fill: #fff;
      }
    </style>
  </defs>
  <g id="LinkedIn" transform="translate(-1209.922 -3911.247)">
    <rect id="Rectangle_394" data-name="Rectangle 394" class="cls-1" width="2.595" height="8.223" transform="translate(1210.258 3915.128)"/>
    <path id="Path_418" data-name="Path 418" class="cls-1" d="M1219.943,3915.049a2.665,2.665,0,0,0-2.59,1.37v-1.291h-2.916c.038.686,0,8.223,0,8.223h2.916V3918.9a1.873,1.873,0,0,1,.063-.672,1.485,1.485,0,0,1,1.405-1.008c1.013,0,1.473.76,1.473,1.874v4.255h2.943v-4.572C1223.237,3916.232,1221.788,3915.049,1219.943,3915.049Z"/>
    <path id="Path_419" data-name="Path 419" class="cls-1" d="M1211.507,3911.247a1.433,1.433,0,1,0-.037,2.853h.019a1.433,1.433,0,1,0,.018-2.853Z"/>
  </g>
</svg>
