<svg id="Group_524" data-name="Group 524" xmlns="http://www.w3.org/2000/svg" width="46.015" height="46.004" viewBox="0 0 46.015 46.004">
  <defs>
    <style>
      .cls-1 {
        fill: #86754d;
      }

      .cls-2 {
        fill: #ff5000;
      }
    </style>
  </defs>
  <g id="Group_75" data-name="Group 75">
    <path id="Path_127" data-name="Path 127" class="cls-1" d="M3621.095,1253.489a7.245,7.245,0,0,0-3.917.154,8.727,8.727,0,0,1-3.806.3,3,3,0,0,1-2.2-2.706,3.3,3.3,0,0,1,1.589-2.909,3.878,3.878,0,0,1,.94-.437,2.255,2.255,0,0,0-.835,1.724,1.929,1.929,0,0,0,.907,1.6,1.685,1.685,0,0,0,.193.1c1.323.684,2.648-.378,3.308-1.573a8.6,8.6,0,0,0,.553-1.219,7.149,7.149,0,0,0,.417-3.462,4.21,4.21,0,0,0-5.558-3.511,7.267,7.267,0,0,0-2.9,2.638,8.723,8.723,0,0,1-2.725,2.671,3,3,0,0,1-3.422-.661,3.3,3.3,0,0,1-.652-3.248,3.835,3.835,0,0,1,.44-.939,2.256,2.256,0,0,0,.467,1.856,1.817,1.817,0,0,0,1.94.595c1.451-.329,1.782-1.992,1.521-3.331a8.71,8.71,0,0,0-.362-1.288,7.162,7.162,0,0,0-1.905-2.92,4.207,4.207,0,0,0-6.513.883,7.232,7.232,0,0,0-.529,3.884,8.694,8.694,0,0,1-.371,3.8,3,3,0,0,1-3.045,1.693,3.3,3.3,0,0,1-2.588-2.068,3.838,3.838,0,0,1-.268-1,2.257,2.257,0,0,0,1.553,1.121,1.933,1.933,0,0,0,1.737-.614,2.02,2.02,0,0,0,.127-.171c.908-1.187.09-2.674-.972-3.534a8.582,8.582,0,0,0-1.106-.755,7.151,7.151,0,0,0-3.337-1.012,4.208,4.208,0,0,0-4.421,4.864,7.238,7.238,0,0,0,2.092,3.314,8.733,8.733,0,0,1,2.16,3.148,3,3,0,0,1-1.246,3.255,3.305,3.305,0,0,1-3.313.079,3.915,3.915,0,0,1-.85-.6,2.259,2.259,0,0,0,1.911-.139,1.922,1.922,0,0,0,.935-1.586,1.618,1.618,0,0,0-.013-.219c-.069-1.487-1.651-2.1-3.015-2.076a8.471,8.471,0,0,0-1.332.132,7.138,7.138,0,0,0-3.206,1.37,4.2,4.2,0,0,0-.261,6.566,7.232,7.232,0,0,0,3.732,1.195,8.736,8.736,0,0,1,3.678,1.024,3,3,0,0,1,1.138,3.294,3.3,3.3,0,0,1-2.488,2.189,3.846,3.846,0,0,1-1.033.09,2.257,2.257,0,0,0,1.374-1.334,1.931,1.931,0,0,0-.3-1.817c-.047-.055-.1-.107-.148-.157-1.01-1.1-2.618-.551-3.649.346a8.476,8.476,0,0,0-.935.957,7.147,7.147,0,0,0-1.576,3.11,4.207,4.207,0,0,0,4.022,5.2,7.244,7.244,0,0,0,3.627-1.483,8.726,8.726,0,0,1,3.475-1.58,3,3,0,0,1,2.989,1.791,3.3,3.3,0,0,1-.5,3.277,3.846,3.846,0,0,1-.735.731,2.249,2.249,0,0,0,.195-1.9,1.926,1.926,0,0,0-1.4-1.2,1.547,1.547,0,0,0-.213-.025c-1.479-.192-2.361,1.259-2.573,2.608a8.688,8.688,0,0,0-.1,1.335,7.18,7.18,0,0,0,.792,3.4,4.206,4.206,0,0,0,6.422,1.4,7.25,7.25,0,0,0,1.827-3.469,8.687,8.687,0,0,1,1.646-3.443,3,3,0,0,1,3.441-.55,3.3,3.3,0,0,1,1.724,2.831,3.837,3.837,0,0,1-.091,1.033,2.254,2.254,0,0,0-1.076-1.585,1.928,1.928,0,0,0-1.84-.017,1.986,1.986,0,0,0-.186.122c-1.25.8-.991,2.481-.289,3.649a8.752,8.752,0,0,0,.781,1.088,7.156,7.156,0,0,0,2.789,2.091,4.206,4.206,0,0,0,5.818-3.058,7.238,7.238,0,0,0-.832-3.83,8.7,8.7,0,0,1-.951-3.7,3,3,0,0,1,2.282-2.633,3.306,3.306,0,0,1,3.14,1.061,3.857,3.857,0,0,1,.594.849,2.252,2.252,0,0,0-1.841-.522,1.879,1.879,0,0,0-1.039,3.139,2.415,2.415,0,0,0,1.616.809,2.063,2.063,0,0,0,1.479-.575,2.251,2.251,0,0,0,.492-.781c.471-1.428-.476-2.888-1.552-3.756a6.143,6.143,0,0,0-1.039-.682,4.852,4.852,0,0,0-2.9-.512,4.349,4.349,0,0,0-2.215.958c-2.587,2.253-.818,5.233.137,7.75a3.387,3.387,0,0,1-.65,3.838c-1.883,1.764-4.483.374-5.5-1.629a1.937,1.937,0,0,0,1.113.244,2.248,2.248,0,0,0,.879-.282c1.279-.791,1.493-2.518,1.226-3.876a6.189,6.189,0,0,0-.359-1.189,4.855,4.855,0,0,0-1.887-2.254,4.349,4.349,0,0,0-2.312-.69c-3.429.062-3.99,3.484-4.879,6.026a3.388,3.388,0,0,1-2.963,2.523c-2.578.141-3.676-2.6-3.17-4.789a1.949,1.949,0,0,0,.7.9,2.239,2.239,0,0,0,.855.349c1.487.217,2.761-.969,3.429-2.181a6.106,6.106,0,0,0,.491-1.14,4.859,4.859,0,0,0,0-2.94,4.354,4.354,0,0,0-1.327-2.015c-2.668-2.157-5.3.1-7.61,1.479a3.386,3.386,0,0,1-3.892.028c-2.065-1.549-1.147-4.351.648-5.7a1.942,1.942,0,0,0-.047,1.139,2.265,2.265,0,0,0,.429.816c1,1.122,2.74,1.033,4.031.533a6.028,6.028,0,0,0,1.109-.557,4.86,4.86,0,0,0,1.89-2.252,4.347,4.347,0,0,0,.28-2.4c-.658-3.366-4.125-3.324-6.782-3.756a3.391,3.391,0,0,1-3-2.481c-.586-2.514,1.918-4.07,4.163-3.953a1.955,1.955,0,0,0-.768.841,2.286,2.286,0,0,0-.195.9c.046,1.5,1.435,2.552,2.744,3a6.164,6.164,0,0,0,1.208.284,4.859,4.859,0,0,0,2.9-.509,4.352,4.352,0,0,0,1.754-1.657c1.66-3-1.023-5.2-2.78-7.237a3.385,3.385,0,0,1-.7-3.827c1.169-2.3,4.088-1.886,5.734-.351a1.943,1.943,0,0,0-1.134.15,2.24,2.24,0,0,0-.729.565c-.932,1.18-.541,2.877.175,4.06a6.057,6.057,0,0,0,.742,1,4.859,4.859,0,0,0,2.546,1.471,4.338,4.338,0,0,0,2.408-.141c3.2-1.232,2.559-4.639,2.523-7.331a3.386,3.386,0,0,1,1.921-3.383c2.376-1.015,4.344,1.183,4.616,3.413a1.926,1.926,0,0,0-.962-.61,2.225,2.225,0,0,0-.922-.036c-1.472.305-2.264,1.856-2.478,3.223a6.125,6.125,0,0,0-.07,1.241,4.852,4.852,0,0,0,1,2.762,4.344,4.344,0,0,0,1.936,1.439c3.245,1.115,4.94-1.908,6.644-3.994a3.383,3.383,0,0,1,3.647-1.355c2.472.75,2.567,3.7,1.341,5.583a1.941,1.941,0,0,0-.344-1.088,2.268,2.268,0,0,0-.683-.622c-1.325-.712-2.928-.032-3.97.878a6.238,6.238,0,0,0-.851.9,4.861,4.861,0,0,0-1.007,2.762,4.342,4.342,0,0,0,.558,2.348c1.77,2.939,5.013,1.713,7.658,1.211a3.381,3.381,0,0,1,3.664,1.305c1.42,2.176-.429,4.51-2.6,5.151a1.74,1.74,0,0,0,.157-.262,2.179,2.179,0,0,0,.222-1.039,1.738,1.738,0,0,0-.4-.989,1.85,1.85,0,0,0-1.576-.765,2.1,2.1,0,0,0-2.039,2.383c.416,1.721,2.286,1.806,3.661,1.277a8.6,8.6,0,0,0,1.207-.58,7.137,7.137,0,0,0,2.545-2.383,4.208,4.208,0,0,0-2-6.262" transform="translate(-3577.762 -1235.768)"/>
    <path id="Path_128" data-name="Path 128" class="cls-2" d="M3619.858,1268.039a7.273,7.273,0,0,0-3.1-2.4,8.693,8.693,0,0,1-3.106-2.218,3,3,0,0,1,.057-3.485,3.251,3.251,0,0,1,2.439-1.237,4.313,4.313,0,0,1,1.156.132c.1.024.308.092.351.108a2.017,2.017,0,1,0,2.133,2.014,1.984,1.984,0,0,0-.017-.244v-.006a1.961,1.961,0,0,0-.026-.212c0-.027-.009-.056-.014-.084s-.011-.046-.015-.069c-.013-.054-.027-.108-.043-.164a2.446,2.446,0,0,0-1.352-1.437,4.783,4.783,0,0,0-1.026-.371,5.424,5.424,0,0,0-4.162.757,5.074,5.074,0,0,0-.847.741,4.329,4.329,0,0,0-1.083,2.157c-.533,3.389,2.738,4.535,5.088,5.85a4.343,4.343,0,0,1,1.282,1.056,2.93,2.93,0,0,1,.676,1.467,3.259,3.259,0,0,1-.336,1.936,3.08,3.08,0,0,1-2.184,1.487,4.738,4.738,0,0,1-1.48.039,4.811,4.811,0,0,1-1.224-.325,2.055,2.055,0,0,0,1.592-1.972,2.127,2.127,0,0,0-4.25,0,2.162,2.162,0,0,0,.769,1.574,4.522,4.522,0,0,0,1.8.962,8.154,8.154,0,0,0,2.712.338,7.112,7.112,0,0,0,.831-.09,6.286,6.286,0,0,0,.884-.222,4.207,4.207,0,0,0,2.492-6.081" transform="translate(-3577.762 -1235.768)"/>
  </g>
</svg>
