<svg xmlns="http://www.w3.org/2000/svg" width="17.632" height="22.671" viewBox="0 0 17.632 22.671">
  <defs>
    <style>
      .cls-1 {
        fill: #736e71;
      }
    </style>
  </defs>
  <path id="Path_293" data-name="Path 293" class="cls-1" d="M850.4,3719.242a1.9,1.9,0,0,0-1.889,1.889v18.892a1.9,1.9,0,0,0,1.889,1.89h13.854a1.9,1.9,0,0,0,1.889-1.89v-18.892a1.9,1.9,0,0,0-1.889-1.889Zm0,1.26h13.854a.615.615,0,0,1,.63.629v18.892a.615.615,0,0,1-.63.63H850.4a.615.615,0,0,1-.63-.63v-18.892A.615.615,0,0,1,850.4,3720.5Zm1.83,2.833a.631.631,0,0,0,.059,1.26h6.927a.63.63,0,0,0,.018-1.26h-7Zm0,4.409a.63.63,0,0,0,.059,1.259h10.076a.63.63,0,1,0,.018-1.259H852.232Zm0,4.408a.63.63,0,1,0,.059,1.259h10.076a.629.629,0,1,0,.018-1.259H852.291A.476.476,0,0,0,852.232,3732.152Zm0,4.408a.63.63,0,0,0,.059,1.259h10.076a.63.63,0,1,0,.018-1.259H852.232Z" transform="translate(-848.513 -3719.242)"/>
</svg>
