<?xml version="1.0" encoding="utf-8"?>
<!-- Generator: Adobe Illustrator 24.1.2, SVG Export Plug-In . SVG Version: 6.00 Build 0)  -->
<svg version="1.1" id="Layer_1" xmlns="http://www.w3.org/2000/svg" xmlns:xlink="http://www.w3.org/1999/xlink" x="0px" y="0px"
	 viewBox="0 0 499.3 403.1" style="enable-background:new 0 0 499.3 403.1;" xml:space="preserve">
<style type="text/css">
	.st0{fill:#A39161;}
	.st1{fill:#E82C2A;}
</style>
<g>
	<path class="st0" d="M356.1,92.8c-6.6-2.4-13.9-0.6-20.5,0.8c-6.5,1.4-13.3,3.1-19.9,1.5c-6.2-1.5-11.3-7.7-11.5-14.2
		c-0.2-6.3,3-11.9,8.3-15.2c1-0.6,3.3-1.9,4.9-2.3c0,0-4.2,3-4.4,9c-0.1,3.2,2,6.8,4.7,8.4c0.3,0.2,0.7,0.4,1,0.5
		c6.9,3.6,13.9-2,17.3-8.2c1.1-2,2.1-4.2,2.9-6.4c2.1-5.8,3.1-12,2.2-18.1c-1.9-13.5-15.2-23.4-29.1-18.4
		c-6.6,2.4-11.1,8.5-15.2,13.8c-4.1,5.2-8.2,10.9-14.3,14c-5.7,2.9-13.6,1.3-17.9-3.5c-4.2-4.7-5.3-11.1-3.4-17
		c0.4-1.1,1.3-3.6,2.3-4.9c0,0-1.3,5,2.5,9.7c2,2.5,5.9,3.9,9,3.4c0.4-0.1,0.8-0.2,1.1-0.3c7.6-1.7,9.3-10.4,8-17.5
		c-0.5-2.3-1.1-4.6-1.9-6.7c-2.1-5.8-5.3-11.1-10-15.3c-10.1-9.1-26.7-8.2-34.1,4.6c-3.5,6-3,13.6-2.8,20.3
		c0.2,6.6,0.8,13.6-1.9,19.9c-2.5,5.9-9.6,9.8-15.9,8.9c-6.2-0.9-11.2-5.1-13.6-10.8c-0.4-1.1-1.3-3.5-1.4-5.3c0,0,2.2,4.7,8.1,5.9
		c3.2,0.6,7-0.8,9.1-3.2c0.2-0.3,0.5-0.6,0.7-0.9c4.7-6.2,0.5-14-5.1-18.5c-1.8-1.5-3.8-2.8-5.8-4c-5.4-3.1-11.2-5.1-17.5-5.3
		c-13.6-0.5-25.7,10.9-23.1,25.5c1.2,6.9,6.5,12.4,11,17.4c4.4,4.9,9.4,10,11.3,16.5c1.8,6.1-1.1,13.7-6.5,17
		c-5.3,3.3-11.8,3.3-17.3,0.4c-1-0.5-3.3-1.9-4.4-3.1c0,0,4.7,2.2,10-0.7c2.8-1.6,4.9-5.1,4.9-8.3c0-0.4,0-0.8-0.1-1.1
		c-0.4-7.8-8.6-11-15.8-10.9c-2.3,0-4.7,0.3-7,0.7c-6.1,1.1-11.9,3.3-16.8,7.2c-10.7,8.4-12.7,24.9-1.4,34.4
		c5.3,4.5,12.9,5.3,19.5,6.3c6.6,0.9,13.6,1.6,19.3,5.4c5.3,3.5,8,11.1,6,17.3c-2,6-6.9,10.1-13,11.5c-1.1,0.2-3.7,0.7-5.4,0.5
		c0,0,5-1.4,7.2-7c1.2-3,0.5-7-1.6-9.5c-0.2-0.3-0.5-0.6-0.8-0.8c-5.3-5.7-13.7-2.9-19.1,1.8c-1.8,1.5-3.4,3.2-4.9,5
		c-4,4.7-7,10.2-8.3,16.3c-2.8,13.3,6.3,27.2,21.1,27.2c7,0,13.3-4.2,19-7.8c5.6-3.5,11.4-7.5,18.2-8.3c6.4-0.7,13.3,3.4,15.7,9.4
		c2.3,5.8,1.2,12.2-2.6,17.2c-0.7,0.9-2.4,2.9-3.8,3.8c0,0,3-4.3,1-10c-1-3.1-4.2-5.7-7.3-6.3c-0.4-0.1-0.7-0.1-1.1-0.1
		c-7.7-1-12.4,6.6-13.5,13.7c-0.4,2.3-0.5,4.7-0.5,7c0,6.2,1.2,12.3,4.2,17.8c6.4,12,22.3,16.8,33.6,7.3c5.3-4.5,7.5-11.8,9.6-18.2
		c2.1-6.3,3.9-13.1,8.6-18c4.4-4.7,12.4-5.9,18-2.9c5.5,3,8.8,8.6,9,14.8c0,1.1,0,3.8-0.5,5.4c0,0-0.5-5.2-5.6-8.3
		c-2.8-1.7-6.9-1.7-9.6-0.1c-0.3,0.2-0.7,0.4-1,0.6c-6.5,4.2-5.2,13-1.5,19.1c1.2,2,2.6,3.9,4.1,5.7c4,4.7,8.8,8.6,14.6,10.9
		c12.6,5.1,27.9-1.4,30.5-16c1.2-6.9-1.8-13.8-4.4-20.1c-2.5-6.2-5.4-12.6-5-19.4c0.4-6.4,5.7-12.5,12-13.8
		c6.1-1.3,12.2,0.9,16.4,5.6c0.8,0.9,2.4,2.9,3.1,4.5c0,0-3.7-3.7-9.6-2.7c-3.2,0.5-6.3,3.1-7.5,6.1c-1.3,3.5-0.6,7.6,2,10.3
		c2.2,2.3,5.3,4.2,8.5,4.2c2.8,0,5.8-1,7.7-3c1-1.1,2.1-2.7,2.6-4.1c2.5-7.5-2.5-15.1-8.1-19.7c-1.7-1.3-3.5-2.6-5.4-3.6
		c-4.7-2.4-9.9-3.4-15.2-2.7c-4.2,0.6-8.4,2.2-11.6,5c-13.5,11.8-4.3,27.4,0.7,40.6c2.6,7,2.4,14.7-3.4,20.1
		c-9.9,9.2-23.5,2-28.8-8.5c1.8,1,3.9,1.5,5.8,1.3c1.5-0.2,3.3-0.7,4.6-1.5c6.7-4.1,7.8-13.2,6.4-20.3c-0.4-2.1-1-4.3-1.9-6.2
		c-2-4.8-5.4-9-9.9-11.8c-3.6-2.2-7.9-3.7-12.1-3.6c-18,0.3-20.9,18.2-25.5,31.6c-2.5,7-7.6,12.8-15.5,13.2
		c-13.5,0.7-19.2-13.6-16.6-25.1c0.7,1.9,2,3.6,3.6,4.7c1.2,0.8,3,1.6,4.5,1.8c7.8,1.1,14.5-5.1,18-11.4c1-1.9,1.9-3.9,2.6-6
		c1.5-5,1.7-10.4,0-15.4c-1.3-4-3.7-7.9-6.9-10.6c-14-11.3-27.7,0.5-39.9,7.8c-6.4,3.8-14,4.9-20.4,0.1c-10.8-8.1-6-22.8,3.4-29.9
		c-0.6,1.9-0.8,4-0.2,6c0.4,1.4,1.2,3.1,2.3,4.3c5.2,5.9,14.3,5.4,21.1,2.8c2-0.8,4-1.8,5.8-2.9c4.4-2.9,8-6.9,9.9-11.8
		c1.6-3.9,2.3-8.4,1.5-12.6c-3.4-17.6-21.6-17.4-35.5-19.7c-7.4-1.2-13.9-5.2-15.7-13c-3.1-13.2,10-21.3,21.8-20.7
		c-1.7,1.1-3.2,2.6-4,4.4c-0.6,1.4-1.1,3.2-1,4.7c0.2,7.9,7.5,13.4,14.4,15.7c2,0.7,4.2,1.2,6.3,1.5c5.2,0.7,10.5-0.2,15.2-2.7
		c3.7-2,7.1-5,9.2-8.7c8.7-15.7-5.4-27.2-14.5-37.9c-4.9-5.7-7.3-12.9-3.7-20c6.1-12.1,21.4-9.9,30-1.8c-2-0.3-4.1-0.1-5.9,0.8
		c-1.3,0.7-2.9,1.8-3.8,3c-4.9,6.2-2.8,15.1,0.9,21.3c1.1,1.8,2.4,3.6,3.9,5.2c3.6,3.8,8.2,6.6,13.3,7.7c4.1,0.9,8.7,0.8,12.6-0.7
		c16.8-6.4,13.4-24.3,13.2-38.4c-0.1-7.5,2.7-14.6,10.1-17.7c12.4-5.3,22.7,6.2,24.2,17.9c-1.3-1.5-3.1-2.7-5-3.2
		c-1.5-0.4-3.4-0.5-4.8-0.2c-7.7,1.6-11.8,9.7-13,16.9c-0.3,2.1-0.5,4.4-0.4,6.5c0.3,5.2,2,10.3,5.3,14.5c2.6,3.3,6.1,6.2,10.1,7.5
		c17,5.8,25.9-10,34.8-20.9c4.7-5.8,11.5-9.4,19.1-7.1c12.9,3.9,13.4,19.4,7,29.2c0-2-0.6-4.1-1.8-5.7c-0.9-1.2-2.3-2.5-3.6-3.3
		c-6.9-3.7-15.3-0.2-20.8,4.6c-1.6,1.4-3.2,3-4.5,4.7c-3.2,4.2-5.1,9.2-5.3,14.5c-0.1,4.2,0.7,8.7,2.9,12.3
		c9.3,15.4,26.2,9,40.1,6.3c7.3-1.4,14.8,0.2,19.2,6.8c7.4,11.4-2.3,23.6-13.6,27c0.3-0.4,0.6-0.9,0.8-1.4c0.8-1.7,1.2-3.6,1.2-5.4
		c-0.1-1.9-0.9-3.7-2.1-5.2c-1.8-2.8-5.1-3.9-8.3-4c-6.1-0.1-12.1,6.4-10.7,12.5c2.2,9,12,9.5,19.2,6.7c2.2-0.8,4.3-1.9,6.3-3
		c5.4-3.1,10-7.2,13.3-12.5C373.7,114.1,370,97.9,356.1,92.8"/>
	<path class="st1" d="M349.6,169c-3.5-6-10.3-9.4-16.2-12.6c-5.9-3.1-12.2-6.1-16.3-11.6c-3.8-5.2-3.7-13.2,0.3-18.2
		c3-3.9,7.8-6.4,12.8-6.5c2-0.1,4.1,0.2,6.1,0.7c0.5,0.1,1.6,0.5,1.8,0.6c-6.1,0-11.1,4.7-11.1,10.5c0,5.8,5,10.5,11.1,10.5
		c6.1,0,11.1-4.7,11.1-10.5c0-0.4,0-0.9-0.1-1.3v0c0-0.4-0.1-0.7-0.1-1.1l-0.1-0.4l-0.1-0.4c-0.1-0.3-0.1-0.6-0.2-0.9
		c-1-3.5-3.9-6-7.1-7.5c-1.7-0.8-3.6-1.6-5.4-1.9c-7.3-1.6-15.7-0.4-21.8,4c-1.6,1.1-3.2,2.4-4.4,3.9c-2.8,3.1-5,7.1-5.7,11.3
		c-2.8,17.8,14.3,23.8,26.6,30.6c2.6,1.4,4.9,3.2,6.7,5.5c1.8,2.2,3.2,4.8,3.5,7.7c0.4,3.5-0.1,7-1.8,10.1
		c-2.3,4.3-6.8,6.9-11.4,7.8c-2.5,0.5-5.2,0.5-7.7,0.2c-2.2-0.3-4.4-0.8-6.4-1.7c4.8-1.2,8.3-5.4,8.3-10.3c0-5.9-5-10.7-11.1-10.7
		c-6.1,0-11.1,4.8-11.1,10.7c0,3.2,1.7,6.1,4,8.2c2.7,2.4,6,4,9.4,5c4.6,1.4,9.4,2,14.2,1.8c1.5-0.1,2.9-0.2,4.4-0.5
		c1.6-0.3,3.1-0.7,4.6-1.2C349.5,196.6,357,181.8,349.6,169"/>
</g>
<g>
	<g>
		<g>
			<path class="st0" d="M17.1,316.1c-2-1.1-3.7-2.1-4.9-2.8c-1.2-0.7-2.2-1.5-3.1-2.4c-0.8-0.8-1.5-1.7-1.9-2.8
				c-0.4-1.1-0.6-2.3-0.6-3.7c0-1.8,0.4-3.4,1.1-4.8c0.7-1.4,1.7-2.4,3-3.2c1.3-0.8,2.8-1.2,4.5-1.2c2.6,0,4.7,0.8,6.2,2.4
				c1.6,1.6,2.5,3.5,2.8,5.6l0.1,0.6h1.8v-11.4h-1.7l-0.1,0.5c-0.2,0.9-0.6,0.9-0.8,0.9c-0.5,0-0.8-0.1-1.2-0.2
				c-5.2-1.7-10.3-1.4-14.3,0.8c-2.3,1.3-4,3-5.2,5.1c-1.2,2.1-1.9,4.4-1.9,6.7c0,2,0.4,3.8,1,5.4c0.7,1.6,1.6,2.9,2.8,4.1
				c1.1,1.1,2.3,2,3.4,2.7c1.1,0.7,2.7,1.6,5.1,2.9c3.2,1.7,5.6,3.4,7.2,5c1.5,1.5,2.2,3.6,2.2,6c0,1.2-0.3,2.4-0.8,3.6
				c-0.5,1.1-1.4,2.1-2.7,3c-1.3,0.8-3.1,1.2-5.4,1.2c-3,0-5.6-0.8-7.7-2.5c-2.1-1.7-3.5-4.2-4.3-7.5l-0.1-0.5H0v13.2h1.8l0.1-0.5
				c0.3-1.3,0.4-1.8,0.5-2c0,0,0-0.1,0.3-0.1c0,0,0.3,0,1,0.3c1.6,0.8,3.1,1.4,4.7,1.8c1.5,0.4,3.3,0.6,5.3,0.6
				c3.2,0,5.9-0.6,8.1-1.9c2.2-1.3,3.9-2.9,4.9-4.9c1.1-2,1.6-4,1.6-6.1c0-3.5-1-6.2-3.1-8.2C23.3,319.9,20.6,318,17.1,316.1"/>
			<path class="st0" d="M34.9,295.3h0.7c1.2,0,2.3,0.3,3.1,1c0.8,0.6,1.2,1.8,1.2,3.5v35.8c0,1.6-0.4,2.8-1.2,3.5
				c-0.9,0.7-1.9,1.1-3.1,1.1h-0.7v1.8h16.3v-1.8h-0.7c-1.1,0-2.1-0.4-3.1-1.1c-0.9-0.7-1.3-1.8-1.3-3.4v-35.8
				c0-1.6,0.4-2.8,1.2-3.4c0.9-0.7,1.9-1,3.2-1h0.7v-1.9H34.9V295.3z"/>
			<path class="st0" d="M101.5,295.3v-1.9H88.2v1.8l0.5,0.1c0.4,0.1,0.7,0.2,1.1,0.3c0.3,0.1,0.5,0.3,0.8,0.6
				c0.2,0.3,0.4,0.7,0.4,1.3c0,0.6-0.3,1.8-1.9,4.1l-8.2,12.3l-9.3-13.7c-0.9-1.4-1.1-2.1-1.1-2.5c0-0.5,0.2-1,0.6-1.5
				c0.3-0.5,1.3-0.8,2.8-0.8l0.7,0v-1.9H56.4v1.9l0.6,0c1.6,0,2.9,0.4,3.8,0.9c0.9,0.6,2,1.8,3.2,3.7L76,317.7v17.9
				c0,1.5-0.4,2.7-1.1,3.3c-0.8,0.7-1.8,1.1-3.2,1.1l-0.6,0v1.8h16.3v-1.8l-0.7,0c-1.3,0-2.4-0.4-3.3-1.2c-0.9-0.7-1.3-1.8-1.3-3.3
				v-18.7l10.9-16.4c0.7-1,1.4-1.8,1.9-2.5c0.6-0.6,1.4-1.3,2.4-1.9c1-0.6,2.1-0.9,3.4-0.9L101.5,295.3z"/>
			<path class="st0" d="M127.4,319.7h-13.2l6.4-19.8L127.4,319.7z M142.5,339.6c-0.3-0.1-0.9-0.5-1.6-1.5c-0.6-0.9-1.3-2.4-2-4.4
				l-14.3-40.9h-4.4l-13.5,41.1c-0.7,2.1-1.5,3.6-2.3,4.6c-0.8,0.9-1.9,1.5-3.4,1.6l-0.6,0.1v1.8h12.4v-1.8h-0.7
				c-1.1,0-1.9-0.2-2.5-0.6c-0.5-0.3-0.7-1-0.7-2.1c0-0.9,0.3-2.1,0.7-3.6l3.6-11.1h15.4l4,12c0,0.1,0.1,0.3,0.2,0.5
				c0.4,1.2,0.6,2.1,0.6,2.7c0,1.5-0.6,1.7-0.8,1.8c-0.8,0.3-1.9,0.4-3.4,0.4h-0.7v1.8h16.7v-1.8l-0.6-0.1
				C143.7,340,143,339.8,142.5,339.6"/>
			<path class="st0" d="M203.4,340.1c-2,0-3.2-0.5-3.8-1.3c-0.6-1-0.9-2.1-1-3.5l-1.6-35l0-0.2c0-0.1,0-0.1,0-0.2l0-0.2
				c0.1-1.4,0.2-2.1,0.3-2.4c0.1-0.3,0.4-0.7,1.1-1.3c0.4-0.3,0.7-0.5,1-0.5c0.4-0.1,1-0.2,1.9-0.3l0.6-0.1v-1.8h-11l-14.4,37.4
				l-14.2-37.4h-12.1v1.8l0.6,0c0.9,0.1,1.7,0.1,2.2,0.2c0.4,0.1,1,0.3,1.7,0.7c0.3,0.2,0.6,0.4,1,0.7c0.3,0.3,0.6,0.6,0.9,0.9
				c0.2,0.2,0.2,0.3,0.2,0.3l-1.9,34.5c-0.1,1.8-0.3,3.2-0.5,4.2c-0.2,0.9-0.7,1.7-1.3,2.3c-0.7,0.6-1.7,0.9-3,0.9l-0.7,0v1.8h13.2
				v-1.7l-0.6-0.1c-1.2-0.2-2.2-0.5-2.8-0.9c-0.5-0.3-1-1-1.2-1.8c-0.3-0.9-0.4-2.3-0.3-4l1.6-30.6l15.4,40.3l16.3-41.9l1.5,33.4
				c0.1,1.8-0.2,3.2-0.8,4c-0.6,0.8-1.8,1.3-3.6,1.5l-0.6,0.1v1.8h16.6v-1.8L203.4,340.1z"/>
		</g>
	</g>
	<path class="st0" d="M299.4,293.4v1.4c-1.9,0.1-3.5,0.9-4.8,2.4c-1.3,1.4-2.5,3.9-3.8,7.5l-13.6,37.9h-1.5l-13.2-35.8l-12.8,35.8
		h-1.4l-14.8-40c-0.8-2.2-1.6-3.8-2.2-4.9c-0.6-1.1-1.3-1.8-2.1-2.2c-0.7-0.4-2.1-0.6-3.9-0.6v-1.4h18v1.4c-2.8,0.3-4.3,1.4-4.3,3.1
		c0,0.7,0.2,1.6,0.6,2.7l11.4,30.8l10.3-28.2l-1.1-3.1c-0.7-2-1.5-3.3-2.5-4.1c-1-0.8-2.4-1.2-4.2-1.2v-1.4h17.7v1.4
		c-3.1,0-4.7,1-4.7,2.9c0,0.8,0.2,1.8,0.7,3.1l11.3,30.7l9.9-27.1c0.8-2.2,1.2-4,1.2-5.4c0-2.8-1.6-4.2-4.8-4.2v-1.3H299.4z"/>
	<path class="st0" d="M298.5,317.4c0-7.2,2.5-13.2,7.4-18c5-4.8,11.1-7.2,18.6-7.2c7.2,0,13.3,2.4,18.3,7.3c5,4.9,7.5,10.8,7.5,17.9
		c0,7.2-2.5,13.3-7.5,18.2c-5,5-11.1,7.4-18.4,7.4c-7.2,0-13.3-2.5-18.3-7.4C301,330.7,298.5,324.6,298.5,317.4z M306,317.5
		c0,7.1,1.7,12.8,5,17.2c3.4,4.4,7.8,6.5,13.2,6.5c5.5,0,10-2.2,13.4-6.7c3.4-4.5,5.1-10,5.1-16.7c0-7.2-1.7-12.9-5-17.3
		c-3.4-4.3-7.7-6.5-13.1-6.5c-5.7,0-10.2,2.1-13.6,6.4C307.7,304.7,306,310.4,306,317.5z"/>
	<path class="st0" d="M370.4,319.4h-3.9v13.3c0,2.9,0.4,4.9,1.2,6c0.8,1.1,2.3,1.7,4.3,1.7v1.4h-17.4v-1.4c2.2,0,3.6-0.6,4.4-1.7
		c0.8-1.1,1.1-3.1,1.1-6v-30.4c0-2.9-0.4-4.8-1.1-5.9c-0.7-1.1-2.2-1.6-4.4-1.6v-1.4h19.9c4.9,0,8.8,1.2,11.8,3.6
		c2.9,2.4,4.4,5.4,4.4,9.1c0,6-3.3,9.9-10,11.9c1.5,0.9,2.9,2.2,4.3,3.9c1.4,1.6,3.2,4.4,5.5,8.2c2.5,4.2,4.5,7,5.9,8.3
		c1.4,1.3,2.9,2,4.4,2.1v1.4h-9.9c-2-2.5-4.5-6.1-7.4-10.8c-3.1-5-5.5-8.2-7.3-9.6C374.4,320.1,372.5,319.4,370.4,319.4z
		 M371.5,295.3h-5.1v22.2h6c3.6,0,6.3-1,8.4-3.1c2-2,3-4.7,3-8.1c0-3.3-1.1-5.9-3.4-8C378.2,296.3,375.2,295.3,371.5,295.3z"/>
	<path class="st0" d="M443.7,331.3h1.4l-3,10.6h-35.1v-1.4c2,0,3.4-0.6,4.2-1.9c0.8-1.2,1.3-3.3,1.3-6.2v-30.5
		c0-2.6-0.4-4.4-1.2-5.5c-0.8-1-2.2-1.6-4.3-1.6v-1.4h17.4v1.4c-1.9,0-3.3,0.6-4.2,1.8c-0.8,1.2-1.3,3.1-1.3,5.9v32.4
		c0,1.8,0.4,3,1.1,3.7c0.8,0.7,2.2,1,4.4,1h9.6c3,0,5.1-0.5,6.2-1.6C441.6,336.9,442.7,334.7,443.7,331.3z"/>
	<path class="st0" d="M449.5,341.9v-1.4c2.1,0,3.5-0.6,4.3-1.7c0.8-1.1,1.2-3.1,1.2-6v-30.2c0-2.9-0.4-4.9-1.2-6
		c-0.8-1.1-2.2-1.7-4.3-1.7v-1.4h22.4c8.3,0,14.9,2.4,19.9,7.1c5,4.7,7.5,10.7,7.5,18c0,7.1-2.4,12.8-7.1,17.1
		c-4.7,4.2-11.3,6.4-19.7,6.4H449.5z M470.6,295.3h-9.2V331c0,3.4,0.4,5.8,1.2,7.1c0.8,1.3,2.5,1.9,5,1.9h5c6,0,10.6-1.9,14.1-5.8
		c3.4-3.8,5.1-9.1,5.1-15.7c0-7.1-1.9-12.7-5.6-16.9C482.4,297.4,477.3,295.3,470.6,295.3z"/>
</g>
<g>
	<path class="st1" d="M150.6,398.1v-21.3l-2.3-4.3h5.5c0,0.5,0,0.7,0,0.9c0,1.2,0.2,2.2,0.8,3.3l9.7,19.2l8.6-18.1
		c0.7-1.4,1-2.8,1-4.1c0-0.4,0-0.6-0.1-1.2h4.7c-0.8,1.4-0.9,2.1-0.9,4.4v21.2c0,2.3,0.1,3.1,0.9,4.4H173c0.8-1.4,0.9-2.1,0.9-4.4
		v-15.2l-9.7,19.7l-10.2-19.7v15.2c0,2.3,0.1,3.1,0.9,4.4h-5.1C150.5,401.2,150.6,400.5,150.6,398.1z"/>
	<path class="st1" d="M186.2,398.1l11.7-27.2l12.2,27.5c1,2.3,1.5,3.2,2.2,4.2h-5.6c0.1-0.7,0.2-1.3,0.2-1.6c0-0.7-0.3-1.7-0.8-2.8
		l-2.6-6h-11.3l-2.4,5.8c-0.4,1-0.6,2-0.6,2.9c0,0.6,0.1,1,0.3,1.8h-5.5C184.6,401.5,185.4,400,186.2,398.1z M202.5,389.7l-4.7-11
		l-4.6,11H202.5z"/>
	<path class="st1" d="M219,398.2v-21.3c0-2.3-0.1-3.1-0.9-4.4h5.4c-0.8,1.3-0.9,2.1-0.9,4.4v23.3h3.7c3.3,0,5.4-0.5,8.3-1.9
		l-1.9,4.3h-14.5C218.9,401.2,219,400.5,219,398.2z"/>
	<path class="st1" d="M241.4,398.1v-21.2c0-2.3-0.1-3.1-0.9-4.4h6c5.2,0,9.3,1.4,12.4,4.1c3.1,2.8,4.7,6.7,4.7,11.2
		c0,4.8-1.8,8.6-5.3,11.3c-3,2.3-6.8,3.4-11.8,3.4h-5.9C241.2,401.2,241.4,400.5,241.4,398.1z M254,398.3c3.6-2.1,5.6-5.9,5.6-10.6
		c0-5.1-2.4-9.4-6.4-11.3c-2.1-1-4.6-1.5-8.2-1.5v25.3C249,400.1,251.7,399.6,254,398.3z"/>
	<path class="st1" d="M271.2,398.1v-21.2c0-2.3-0.1-3.1-0.9-4.4h5.4c-0.8,1.4-0.9,2.1-0.9,4.4v21.2c0,2.3,0.1,3.1,0.9,4.4h-5.4
		C271,401.2,271.2,400.5,271.2,398.1z"/>
	<path class="st1" d="M284.2,378.3c-1-2.8-1.8-4.5-2.8-5.9h5.3c0,0.5,0,0.7,0,1c0,1.2,0.3,2.4,1,4.5l6.9,19.3l6.8-19
		c0.5-1.6,0.9-3,0.9-4.1c0-0.6,0-1-0.3-1.8h5.2c-0.7,1.2-1.4,2.7-2.7,6.1l-8.8,24h-2.5L284.2,378.3z"/>
	<path class="st1" d="M313.9,398.2v-21.3c0-2.3-0.1-3.1-0.9-4.4h16.5l-2,3.6c-1.3-0.9-2.9-1.2-6.1-1.2h-4v10.9h10.7l-2.1,3.7
		c-1.6-1.1-3-1.4-5.9-1.4h-2.8v12.2h4.2c3.5,0,5.3-0.3,8.3-1.4l-1.8,3.8H313C313.8,401.2,313.9,400.5,313.9,398.2z"/>
	<path class="st1" d="M351,377.5c-2.3-2.1-4.1-2.9-6.3-2.9c-3.2,0-5.6,2.5-5.6,5.8c0,1.3,0.4,2.5,1,3.2c0.7,0.9,1.1,1.2,4.1,3.1
		c5.1,3.3,6.8,5.4,6.8,8.6c0,4.6-4,7.8-9.5,7.8c-1.6,0-3.2-0.2-4.6-0.6v-4c2,1.4,3.7,1.9,5.7,1.9c3,0,4.9-1.8,4.9-4.5
		c0-2.6-1.2-4.1-5.4-6.7c-2.7-1.7-3.5-2.3-4.4-3.2c-1.4-1.4-2.1-3.3-2.1-5.3c0-5,4.3-8.9,9.9-8.9c1.9,0,3.7,0.4,5.6,1.2V377.5z"/>
</g>
</svg>
