<svg id="Layer_1" data-name="Layer 1" xmlns="http://www.w3.org/2000/svg" viewBox="0 0 466.56 415.51"><defs><style>.cls-1{fill:#a39161;}.cls-2{fill:#ff5000;}</style></defs><path class="cls-1" d="M81.35,537.21a25.09,25.09,0,0,1-6.63-.8,34.46,34.46,0,0,1-5.8-2.23,4.78,4.78,0,0,0-1.27-.31c-.28,0-.32.07-.33.1a16,16,0,0,0-.65,2.43l-.15.66H64.36V520.7h2.16l.15.66c.91,4.08,2.69,7.21,5.28,9.28a14.88,14.88,0,0,0,9.56,3.12,12.63,12.63,0,0,0,6.7-1.55,8.3,8.3,0,0,0,3.4-3.68,11,11,0,0,0,1-4.45,10.36,10.36,0,0,0-2.78-7.48,36.17,36.17,0,0,0-8.92-6.24c-2.9-1.58-5-2.76-6.3-3.61a26.77,26.77,0,0,1-4.27-3.41,16.56,16.56,0,0,1-2.5-20.08,17.3,17.3,0,0,1,6.52-6.38c4.9-2.78,11.25-3.13,17.71-1a3.21,3.21,0,0,0,1.45.28c.2,0,.67,0,1-1.18l.17-.61h2.1v14.2H94.55l-.09-.73a11.94,11.94,0,0,0-3.49-7,10.29,10.29,0,0,0-7.75-3,10.6,10.6,0,0,0-5.59,1.47,10.06,10.06,0,0,0-3.74,4,12.46,12.46,0,0,0-1.35,5.9,12.13,12.13,0,0,0,.8,4.56,9.81,9.81,0,0,0,2.34,3.48,21.79,21.79,0,0,0,3.8,2.94c1.5.94,3.55,2.13,6.09,3.54A47.31,47.31,0,0,1,95.78,511c2.54,2.49,3.83,5.95,3.83,10.24a15.64,15.64,0,0,1-2,7.63,16,16,0,0,1-6.16,6,20.17,20.17,0,0,1-10.08,2.33" transform="translate(-64.36 -186.39)"/><path class="cls-1" d="M135.58,537.46a22.38,22.38,0,0,1-11.66-3.11,20.16,20.16,0,0,1-7.66-7.69,19.82,19.82,0,0,1-2.2-6.75,56.16,56.16,0,0,1-.44-7.1V483.63a7.73,7.73,0,0,0-.94-4c-.54-.93-2.06-1.52-4.38-1.7l-.77-.07V475.6h20.09v2.25l-.73.09q-3.65.42-4.56,1.94a7.23,7.23,0,0,0-1,3.75v28.7c0,5.71.58,9.95,1.73,12.62a14.47,14.47,0,0,0,5.42,6.59,14.66,14.66,0,0,0,8.22,2.38,18.93,18.93,0,0,0,4.61-.69,15.75,15.75,0,0,0,4.95-2.27c4.6-3.14,6.93-8.28,6.93-15.28v-32a7.51,7.51,0,0,0-1-3.87c-.59-1-2.18-1.61-4.61-1.82l-.76-.07V475.6h20.41v2.3l-.79,0c-2.39.12-3.92.73-4.53,1.83a7.76,7.76,0,0,0-1,3.79V528a6.51,6.51,0,0,0,.66,3.23,3.49,3.49,0,0,0,1.75,1.54,17.07,17.07,0,0,0,3.2.87l.68.12v2.16h-14v-7.66a17.27,17.27,0,0,1-6.6,6.36,22.77,22.77,0,0,1-11,2.86" transform="translate(-64.36 -186.39)"/><path class="cls-1" d="M231.78,537.37h-1.6l-.24-.27-43.58-48.63v33.9a45,45,0,0,0,.35,6.56,6.83,6.83,0,0,0,.9,2.79c.81,1.16,2.33,1.8,4.48,1.88l.8,0v2.27H176.54v-2.26l.79,0a6.74,6.74,0,0,0,3.42-.91,4.72,4.72,0,0,0,1.61-2.93,36.14,36.14,0,0,0,.54-7.31V484.51l-1.74-1.95a15.25,15.25,0,0,0-3.88-3.53,13.18,13.18,0,0,0-3.64-1.11l-.68-.11V475.6h12.23l43.15,48.33V488.25A42.94,42.94,0,0,0,228,482a4.64,4.64,0,0,0-1.52-2.89,6.47,6.47,0,0,0-4-1.18l-.8,0V475.6H238v2.24l-.72.09a12.55,12.55,0,0,0-3.3.79,3.31,3.31,0,0,0-1.58,1.84,12.49,12.49,0,0,0-.65,4.55Z" transform="translate(-64.36 -186.39)"/><path class="cls-1" d="M294.33,537.21a25.15,25.15,0,0,1-6.63-.8,34.36,34.36,0,0,1-5.79-2.23,4.87,4.87,0,0,0-1.27-.31c-.29,0-.33.07-.34.1a19.34,19.34,0,0,0-.65,2.43l-.14.66h-2.17V520.7h2.17l.14.66c.91,4.08,2.69,7.21,5.29,9.28a14.86,14.86,0,0,0,9.55,3.12,12.73,12.73,0,0,0,6.72-1.55,8.37,8.37,0,0,0,3.38-3.68,11.24,11.24,0,0,0,1-4.45,10.38,10.38,0,0,0-2.77-7.48,36.36,36.36,0,0,0-8.92-6.24c-2.91-1.58-5-2.76-6.3-3.61a25.86,25.86,0,0,1-4.26-3.41,15.76,15.76,0,0,1-4.81-11.74,16.53,16.53,0,0,1,2.29-8.34,17.38,17.38,0,0,1,6.52-6.38c4.91-2.78,11.25-3.13,17.71-1a3.25,3.25,0,0,0,1.46.28c.19,0,.67,0,1-1.18l.17-.61h2.1v14.2h-2.2l-.1-.73a11.81,11.81,0,0,0-3.48-7,10.42,10.42,0,0,0-7.75-3,10.57,10.57,0,0,0-5.58,1.47,10.25,10.25,0,0,0-3.76,4,12.7,12.7,0,0,0-1.33,5.9,12.13,12.13,0,0,0,.8,4.56,9.92,9.92,0,0,0,2.33,3.48,21.88,21.88,0,0,0,3.81,2.94c1.5.94,3.55,2.13,6.09,3.54a47.56,47.56,0,0,1,10.21,7.2c2.54,2.49,3.83,5.95,3.83,10.24a15.56,15.56,0,0,1-2,7.63,15.72,15.72,0,0,1-6.14,6,20.24,20.24,0,0,1-10.09,2.33" transform="translate(-64.36 -186.39)"/><path class="cls-1" d="M340.92,535.9H320.67v-2.29h.83a6,6,0,0,0,3.88-1.32c1-.82,1.55-2.28,1.55-4.31v-44.5c0-2.16-.52-3.61-1.52-4.35a6.35,6.35,0,0,0-3.91-1.19h-.83V475.6h20.25v2.34h-.82a6,6,0,0,0-3.94,1.29c-1,.81-1.52,2.24-1.52,4.25V528c0,2,.54,3.4,1.63,4.27a6,6,0,0,0,3.83,1.36h.82Z" transform="translate(-64.36 -186.39)"/><path class="cls-1" d="M385.9,535.9H365.64v-2.27l.8,0a5.82,5.82,0,0,0,3.94-1.4,5.49,5.49,0,0,0,1.39-4.15V505.82L357,483.66a15.85,15.85,0,0,0-4-4.58,9.33,9.33,0,0,0-4.69-1.14l-.81,0V475.6h22.48v2.31l-.8,0c-1.79.06-3,.43-3.44,1a3.37,3.37,0,0,0-.74,1.88c0,.48.25,1.4,1.41,3.13l11.53,17.09L388,485.77c1.94-2.86,2.34-4.38,2.34-5.16a2.37,2.37,0,0,0-.46-1.57,2.58,2.58,0,0,0-1-.76,12.71,12.71,0,0,0-1.32-.36l-.66-.14V475.6h16.55v2.32l-.82,0a8.66,8.66,0,0,0-4.27,1.11,12.47,12.47,0,0,0-3,2.33c-.73.83-1.55,1.86-2.41,3.06l-13.53,20.39v23.23a4.93,4.93,0,0,0,1.59,4.08,6.42,6.42,0,0,0,4,1.47l.82,0Z" transform="translate(-64.36 -186.39)"/><path class="cls-1" d="M419.31,508.25h16.36l-8.45-24.62Zm38.46,27.65H437v-2.29h.83a13.69,13.69,0,0,0,4.27-.52c.26-.09,1-.36,1-2.24a11.79,11.79,0,0,0-.72-3.36,1.56,1.56,0,0,1-.2-.57l-5-14.9h-19.1l-4.47,13.83a15.43,15.43,0,0,0-.91,4.49c0,1.34.29,2.21.87,2.58a5.48,5.48,0,0,0,3,.69h.85v2.29H402v-2.23l.76-.06a6.11,6.11,0,0,0,4.17-2,16.23,16.23,0,0,0,2.91-5.69l16.76-51h5.49l17.74,50.79a23.86,23.86,0,0,0,2.52,5.45,5,5,0,0,0,2,1.91,10.31,10.31,0,0,0,2.66.57l.75.06Z" transform="translate(-64.36 -186.39)"/><path class="cls-1" d="M494.37,537.39l-19.09-50.13-1.93,38a15.61,15.61,0,0,0,.39,5,3.86,3.86,0,0,0,1.51,2.25,9.19,9.19,0,0,0,3.45,1.09l.7.11v2.18H463v-2.29h.82a5.61,5.61,0,0,0,3.76-1.15,5.25,5.25,0,0,0,1.67-2.84,36.58,36.58,0,0,0,.68-5.27l2.33-42.9a3.93,3.93,0,0,1-.29-.38,8.47,8.47,0,0,0-1.07-1.13,7.77,7.77,0,0,0-1.19-.86,5.91,5.91,0,0,0-2.05-.88c-.66-.09-1.57-.18-2.73-.25l-.78-.06V475.6h15l17.6,46.47,17.84-46.47h13.71v2.25l-.73.08c-1.09.13-1.87.25-2.33.33a3.35,3.35,0,0,0-1.24.66,3.88,3.88,0,0,0-1.42,1.58,10,10,0,0,0-.37,2.92l0,.23a.26.26,0,0,0,0,.21l0,.22,2,43.55a8.68,8.68,0,0,0,1.19,4.34c.66,1.06,2.23,1.61,4.68,1.63h.82v2.29H510.27v-2.22l.75-.07q3.36-.36,4.47-1.84c.75-1,1.07-2.69,1-5l-1.87-41.49Z" transform="translate(-64.36 -186.39)"/><path class="cls-1" d="M402.54,277.87c-6.46-2.34-13.74-.57-20.22.8s-13.11,3.09-19.64,1.53a15.49,15.49,0,0,1-11.33-14,17.07,17.07,0,0,1,8.2-15A19.77,19.77,0,0,1,364.4,249a11.61,11.61,0,0,0-4.3,8.9,9.89,9.89,0,0,0,4.68,8.28,10.2,10.2,0,0,0,1,.5c6.84,3.54,13.67-1.95,17.07-8.11a43.82,43.82,0,0,0,2.85-6.29,36.88,36.88,0,0,0,2.16-17.88c-1.9-13.28-15-23.11-28.68-18.12-6.46,2.36-10.9,8.4-15,13.61s-8.05,10.79-14.05,13.79a15.47,15.47,0,0,1-17.66-3.41,17.06,17.06,0,0,1-3.37-16.77,20.14,20.14,0,0,1,2.27-4.85,11.59,11.59,0,0,0,2.42,9.58,9.92,9.92,0,0,0,8.9,3.34c.37-.07.74-.16,1.1-.26,7.49-1.7,9.19-10.29,7.86-17.21a45.69,45.69,0,0,0-1.88-6.65A37,37,0,0,0,320,192.33c-10-9-26.33-8.07-33.63,4.56-3.44,6-2.95,13.45-2.72,20.06s.76,13.44-1.92,19.61A15.48,15.48,0,0,1,266,245.31a17.07,17.07,0,0,1-13.35-10.69,19.79,19.79,0,0,1-1.38-5.18,11.61,11.61,0,0,0,8,5.79,10,10,0,0,0,9-3.17c.23-.28.45-.58.66-.88,4.68-6.13.46-13.81-5-18.25a45.2,45.2,0,0,0-5.7-3.9,36.89,36.89,0,0,0-17.23-5.22c-13.4-.45-25.35,10.74-22.82,25.11,1.2,6.77,6.38,12.19,10.8,17.11s9.23,9.82,11.15,16.26a15.46,15.46,0,0,1-6.44,16.79,17,17,0,0,1-17.09.41,19.31,19.31,0,0,1-4.38-3.08,11.58,11.58,0,0,0,9.85-.72,9.9,9.9,0,0,0,4.83-8.18,8.47,8.47,0,0,0-.07-1.13c-.35-7.68-8.52-10.85-15.56-10.72a44.18,44.18,0,0,0-6.88.68,36.71,36.71,0,0,0-16.54,7.07c-10.56,8.28-12.52,24.53-1.35,33.9,5.27,4.42,12.72,5.24,19.27,6.18s13.37,1.58,19,5.28a15.51,15.51,0,0,1,5.88,17,17.05,17.05,0,0,1-12.85,11.29,19.93,19.93,0,0,1-5.33.47,11.63,11.63,0,0,0,7.09-6.89,10,10,0,0,0-1.56-9.37c-.24-.29-.5-.56-.76-.82-5.22-5.66-13.51-2.85-18.84,1.78a44.18,44.18,0,0,0-4.82,4.95,37,37,0,0,0-8.14,16.06c-2.75,13.12,6.18,26.84,20.77,26.84,6.87,0,13.1-4.17,18.72-7.66s11.27-7.4,17.93-8.16a15.48,15.48,0,0,1,15.43,9.25,17.08,17.08,0,0,1-2.57,16.91,19.88,19.88,0,0,1-3.79,3.78,11.66,11.66,0,0,0,1-9.84,9.27,9.27,0,0,0-8.33-6.3c-7.63-1-12.18,6.5-13.28,13.46a44.35,44.35,0,0,0-.53,6.9,36.69,36.69,0,0,0,4.1,17.53c6.31,11.83,22,16.6,33.14,7.22,5.27-4.42,7.37-11.62,9.43-17.92s3.87-12.89,8.49-17.77a15.48,15.48,0,0,1,17.76-2.84,17,17,0,0,1,8.89,14.62,19.13,19.13,0,0,1-.46,5.32,11.61,11.61,0,0,0-5.54-8.17,9.94,9.94,0,0,0-9.51-.09c-.34.2-.65.4-1,.62-6.45,4.16-5.12,12.82-1.49,18.84a44.59,44.59,0,0,0,4,5.62A36.89,36.89,0,0,0,313,422.2c12.45,5,27.5-1.41,30-15.78,1.19-6.77-1.81-13.63-4.29-19.78s-5.32-12.37-4.91-19.08A15.48,15.48,0,0,1,345.57,354a17.08,17.08,0,0,1,16.21,5.47,19.87,19.87,0,0,1,3.06,4.39,11.63,11.63,0,0,0-9.5-2.7A9.71,9.71,0,0,0,350,377.34c2.12,2.23,5.2,4.14,8.35,4.17a10.6,10.6,0,0,0,7.62-3,11.82,11.82,0,0,0,2.56-4c2.42-7.37-2.46-14.91-8-19.4a32.58,32.58,0,0,0-5.36-3.52A25.07,25.07,0,0,0,340.18,349a22.38,22.38,0,0,0-11.44,4.94c-13.35,11.64-4.22,27,.71,40,2.6,6.88,2.37,14.45-3.36,19.8-9.72,9.12-23.13,1.94-28.41-8.4a10,10,0,0,0,5.75,1.25,11.37,11.37,0,0,0,4.54-1.45c6.6-4.08,7.7-13,6.32-20a30.89,30.89,0,0,0-1.85-6.15,25.09,25.09,0,0,0-9.74-11.63,22.27,22.27,0,0,0-11.93-3.56c-17.7.31-20.6,18-25.18,31.1-2.42,6.94-7.45,12.6-15.3,13-13.3.73-19-13.41-16.36-24.72a10,10,0,0,0,3.6,4.66,11.41,11.41,0,0,0,4.4,1.81c7.68,1.11,14.26-5,17.7-11.27a31,31,0,0,0,2.54-5.88,25.09,25.09,0,0,0,0-15.17,22.51,22.51,0,0,0-6.85-10.42c-13.77-11.13-27.34.53-39.28,7.65-6.32,3.77-13.81,4.86-20.08.14-10.66-8-5.92-22.46,3.34-29.45a10,10,0,0,0-.24,5.88,11.73,11.73,0,0,0,2.22,4.22c5.16,5.79,14.14,5.33,20.8,2.75a30.57,30.57,0,0,0,5.71-2.88,25.06,25.06,0,0,0,9.77-11.62A22.42,22.42,0,0,0,239,311.24c-3.39-17.39-21.29-17.17-35-19.4-7.26-1.18-13.69-5.16-15.48-12.81-3-13,9.9-21,21.48-20.4a9.92,9.92,0,0,0-3.95,4.34,11.7,11.7,0,0,0-1,4.66c.24,7.74,7.41,13.17,14.16,15.48a32,32,0,0,0,6.24,1.46A25,25,0,0,0,240.39,282a22.4,22.4,0,0,0,9.05-8.56c8.58-15.5-5.27-26.84-14.34-37.37-4.8-5.57-7.18-12.75-3.63-19.76,6-11.89,21.1-9.73,29.59-1.8a10,10,0,0,0-5.85.77,11.72,11.72,0,0,0-3.76,2.91c-4.81,6.1-2.79,14.86.89,21a32.14,32.14,0,0,0,3.84,5.14,25.07,25.07,0,0,0,13.15,7.6,22.49,22.49,0,0,0,12.43-.74c16.52-6.36,13.2-23.94,13-37.84-.1-7.35,2.7-14.38,9.91-17.47,12.27-5.23,22.42,6.11,23.83,17.62a10,10,0,0,0-5-3.15,11.75,11.75,0,0,0-4.76-.19c-7.59,1.59-11.68,9.59-12.79,16.65a32.61,32.61,0,0,0-.36,6.4,25.2,25.2,0,0,0,5.19,14.27,22.39,22.39,0,0,0,10,7.42c16.74,5.76,25.5-9.85,34.29-20.62,4.65-5.69,11.31-9.27,18.83-7,12.76,3.86,13.24,19.09,6.92,28.82a10,10,0,0,0-1.78-5.62,11.78,11.78,0,0,0-3.53-3.21c-6.84-3.67-15.11-.16-20.48,4.54a31.82,31.82,0,0,0-4.4,4.66,25.08,25.08,0,0,0-5.19,14.26,22.42,22.42,0,0,0,2.88,12.13c9.12,15.16,25.87,8.84,39.52,6.25,7.22-1.37,14.63.16,18.92,6.74,7.32,11.23-2.23,23.27-13.41,26.59a9.44,9.44,0,0,0,.82-1.36,11.25,11.25,0,0,0,1.14-5.36,9,9,0,0,0-2.09-5.11c-1.75-2.75-5-3.88-8.13-3.95-6.05-.11-12,6.26-10.52,12.3,2.14,8.89,11.8,9.33,18.89,6.6a44,44,0,0,0,6.23-3,36.76,36.76,0,0,0,13.14-12.31c7.09-11.39,3.37-27.35-10.33-32.33" transform="translate(-64.36 -186.39)"/><path class="cls-2" d="M396.16,353c-3.44-6-10.17-9.27-16-12.39s-12-6.06-16-11.46a15.44,15.44,0,0,1,.29-18,16.78,16.78,0,0,1,12.59-6.4,21.88,21.88,0,0,1,6,.69c.54.12,1.59.48,1.82.55a10.69,10.69,0,0,0-10.92,10.4c0,5.74,4.91,10.4,11,10.4a10.69,10.69,0,0,0,10.95-10.4,10.1,10.1,0,0,0-.08-1.25v0c0-.36-.07-.72-.14-1.09l-.08-.43-.08-.37a7.48,7.48,0,0,0-.22-.84,12.62,12.62,0,0,0-7-7.42,25.16,25.16,0,0,0-5.29-1.91c-7.16-1.56-15.44-.35-21.49,3.91a26.09,26.09,0,0,0-4.37,3.83,22.28,22.28,0,0,0-5.6,11.13c-2.74,17.5,14.14,23.41,26.27,30.2a22.31,22.31,0,0,1,6.62,5.45,15.06,15.06,0,0,1,3.48,7.57,16.72,16.72,0,0,1-1.73,10c-2.27,4.24-6.67,6.82-11.27,7.7a25.23,25.23,0,0,1-14-1.49,10.61,10.61,0,0,0,8.22-10.18,11,11,0,0,0-21.94,0,11.2,11.2,0,0,0,4,8.13,23.42,23.42,0,0,0,9.3,5,42.48,42.48,0,0,0,14,1.75,36.56,36.56,0,0,0,4.29-.48,31,31,0,0,0,4.56-1.13c12.75-4.18,20.16-18.77,12.87-31.4" transform="translate(-64.36 -186.39)"/><path class="cls-2" d="M191.05,594.76c0,4.09,1.06,5.32,3.81,5.32v1H182.8v-1c2.58,0,3.8-.81,3.8-5.32v-21c0-4.39-1.11-5.21-3.8-5.21v-1h13.75c7.55,0,11.18,4.33,11.18,8.77,0,3.69-2,6.79-6.9,8.26,6.26,4,8.36,15.1,13.92,15.5v1h-6.84c-6.26-7.61-8-15.51-14.17-15.51h-2.69Zm0-10.59h4.1c5.68,0,7.9-3.86,7.9-7.73,0-4.44-3.34-7.61-8.49-7.61h-3.51Z" transform="translate(-64.36 -186.39)"/><path class="cls-2" d="M243,588.38h-1c-.7-2.87-1.23-3.22-4.68-3.22H229v12c0,1.64.59,2.28,2.46,2.28h5.85c4.92,0,6.15-.24,8.14-4.62h1l-1.52,6.26H220.71v-1c2.63,0,3.8-.81,3.8-5.26v-21c0-4.16-.93-5.33-3.8-5.33v-1h24.17v5.62h-.64c-.76-3.69-1.94-4-5.62-4H229v14.34h9.36c2.29,0,3.16-.41,3.63-3.27h1Z" transform="translate(-64.36 -186.39)"/><path class="cls-2" d="M271.43,574.92h-1c-.52-5-4-6.9-7.43-6.9s-6,1.93-6,5c0,6.2,8.54,7.84,13.34,12.64a8.74,8.74,0,0,1,2.92,6.67,9.54,9.54,0,0,1-9.53,9.54c-3.57,0-6.56-1.76-7.67-1.76-.59,0-1,.41-1.29,1.29h-1v-9.07h1a8,8,0,0,0,8.08,8.25c4,0,6.73-2.34,6.73-6,0-5.79-9-8.48-12.76-12.23a9.45,9.45,0,0,1-2.87-7c0-5.15,3.69-8.66,9.13-8.66,3.57,0,5.27,1.29,6.56,1.29.52,0,.64-.12.87-.94h.94Z" transform="translate(-64.36 -186.39)"/><path class="cls-2" d="M298,566.73a17.46,17.46,0,0,1,17.79,17.44,17.88,17.88,0,0,1-35.76,0C280.05,574.22,287.77,566.73,298,566.73Zm-.18,33.88c8.43,0,12.82-8,12.82-16.15,0-10.54-5.62-16.44-12.53-16.44-7.9,0-12.93,6.49-12.93,16.2S290.29,600.61,297.84,600.61Z" transform="translate(-64.36 -186.39)"/><path class="cls-2" d="M330.38,594.76c0,4.09,1.05,5.32,3.8,5.32v1H322.12v-1c2.58,0,3.81-.81,3.81-5.32v-21c0-4.39-1.11-5.21-3.81-5.21v-1h13.76c7.55,0,11.17,4.33,11.17,8.77,0,3.69-2,6.79-6.9,8.26,6.26,4,8.37,15.1,13.93,15.5v1h-6.85c-6.26-7.61-8-15.51-14.16-15.51h-2.69Zm0-10.59h4.09c5.68,0,7.9-3.86,7.9-7.73,0-4.44-3.33-7.61-8.48-7.61h-3.51Z" transform="translate(-64.36 -186.39)"/><path class="cls-2" d="M373.38,594.94c0,4,.76,5.14,3.63,5.14v1H365.13v-1c2.4,0,3.8-.7,3.8-5.32V569.18h-4.86c-4.5,0-6.55,1.29-6.84,4.8h-1v-7.66h1a4.4,4.4,0,0,0,1.81.94,15,15,0,0,0,3.22.29h17.55c2.93,0,4.28-.36,5.33-1.23h1.05V574h-.64c-.64-2.81-1.76-4.8-7.08-4.8h-5.09Z" transform="translate(-64.36 -186.39)"/><path class="cls-2" d="M410.66,574.92h-1c-.53-5-4-6.9-7.44-6.9s-6,1.93-6,5c0,6.2,8.54,7.84,13.34,12.64a8.75,8.75,0,0,1,2.93,6.67,9.54,9.54,0,0,1-9.54,9.54c-3.57,0-6.56-1.76-7.67-1.76-.59,0-1,.41-1.29,1.29h-1v-9.07h1a8,8,0,0,0,8.08,8.25c4,0,6.73-2.34,6.73-6,0-5.79-9-8.48-12.76-12.23a9.45,9.45,0,0,1-2.87-7c0-5.15,3.69-8.66,9.13-8.66,3.57,0,5.27,1.29,6.56,1.29.52,0,.64-.12.88-.94h.93Z" transform="translate(-64.36 -186.39)"/></svg>