<svg id="Icon_simple-tiktok" data-name="Icon simple-tiktok" xmlns="http://www.w3.org/2000/svg" width="11.246" height="12.944" viewBox="0 0 11.246 12.944">
  <path id="Icon_simple-tiktok-2" data-name="Icon simple-tiktok" d="M8.275.011C8.981,0,9.682.005,10.384,0a3.359,3.359,0,0,0,.944,2.249,3.8,3.8,0,0,0,2.287.965V5.388a5.773,5.773,0,0,1-2.265-.523,6.664,6.664,0,0,1-.874-.5c-.005,1.575.005,3.15-.011,4.719a4.119,4.119,0,0,1-.728,2.125,4.018,4.018,0,0,1-3.187,1.731,3.933,3.933,0,0,1-2.2-.556A4.067,4.067,0,0,1,2.38,9.3c-.011-.27-.016-.539-.005-.8A4.06,4.06,0,0,1,7.083,4.9c.011.8-.022,1.6-.022,2.395A1.851,1.851,0,0,0,4.7,8.435a2.14,2.14,0,0,0-.076.868,1.836,1.836,0,0,0,1.888,1.548,1.812,1.812,0,0,0,1.494-.868,1.244,1.244,0,0,0,.221-.572c.054-.965.032-1.925.038-2.891.005-2.174-.005-4.342.011-6.51Z" transform="translate(-2.369)" fill="#fff"/>
</svg>
