<svg xmlns="http://www.w3.org/2000/svg" width="13.264" height="11.053" viewBox="0 0 13.264 11.053">
  <defs>
    <style>
      .cls-1 {
        fill: #736e71;
      }
    </style>
  </defs>
  <path id="Twitter" class="cls-1" d="M4220.33,677.425a5.321,5.321,0,0,1-1.729.676,2.684,2.684,0,0,0-1.986-.88,2.756,2.756,0,0,0-2.72,2.79,2.844,2.844,0,0,0,.07.636,7.663,7.663,0,0,1-5.609-2.917,2.84,2.84,0,0,0-.369,1.405,2.81,2.81,0,0,0,1.211,2.322,2.671,2.671,0,0,1-1.233-.348v.034a2.773,2.773,0,0,0,2.184,2.736,2.582,2.582,0,0,1-.718.1,2.621,2.621,0,0,1-.512-.05,2.733,2.733,0,0,0,2.542,1.937,5.372,5.372,0,0,1-3.38,1.2,5.56,5.56,0,0,1-.649-.038,7.582,7.582,0,0,0,4.172,1.252,7.8,7.8,0,0,0,7.742-7.939c0-.121,0-.242-.007-.361a5.567,5.567,0,0,0,1.357-1.445,5.337,5.337,0,0,1-1.562.44A2.784,2.784,0,0,0,4220.33,677.425Z" transform="translate(-4207.432 -677.221)"/>
</svg>
