<svg xmlns="http://www.w3.org/2000/svg" width="31" height="21.705" viewBox="0 0 31 21.705">
  <path id="youtube" d="M30.361-2.686a3.884,3.884,0,0,0-2.732-2.733C25.2-6.082,15.5-6.082,15.5-6.082s-9.7,0-12.129.639A3.962,3.962,0,0,0,.638-2.686,40.922,40.922,0,0,0,0,4.77a40.772,40.772,0,0,0,.638,7.456,3.884,3.884,0,0,0,2.732,2.732c2.451.664,12.129.664,12.129.664s9.7,0,12.129-.639a3.884,3.884,0,0,0,2.733-2.732A40.935,40.935,0,0,0,31,4.8,38.846,38.846,0,0,0,30.361-2.686ZM12.41,9.418V.123L20.479,4.77Zm0,0" transform="translate(0 6.082)" fill="#fff"/>
</svg>
