<svg xmlns="http://www.w3.org/2000/svg" width="33.789" height="26.729" viewBox="0 0 33.789 26.729">
  <path id="noun_Whale_1423083" d="M34.2,17.579a1.216,1.216,0,0,0-.41,1.025.324.324,0,0,1-.224.317.342.342,0,0,1-.373-.037,1.269,1.269,0,0,0-.932-.3,5.533,5.533,0,0,0-1.137.447,4.927,4.927,0,0,1-2.833.6,2.209,2.209,0,0,0,1.044.932q1.342.6,3.877-.522a.273.273,0,0,1,.335.038.3.3,0,0,1,.168.28l.056.485.018.075a6.4,6.4,0,0,1-.28,1.919,6.756,6.756,0,0,1-3.262,3.914q-3.485,2.05-9.6,2.05-1.006,0-2.852-.168-1.957-.149-2.628-.149A10.094,10.094,0,0,0,9.9,30.366a12.871,12.871,0,0,0-2.46,1.994l.074.038a2.388,2.388,0,0,0,.615.149,1.92,1.92,0,0,0,1.081-.652,3.43,3.43,0,0,1,4.175-.317,2.846,2.846,0,0,0,1.342.41l1.51-.69a6.056,6.056,0,0,1,2.46-.82.36.36,0,0,1,.261.112.3.3,0,0,1,.111.242.38.38,0,0,1-.111.28.4.4,0,0,1-.261.093,5.369,5.369,0,0,0-2.124.746,12.806,12.806,0,0,1-1.79.8,3.588,3.588,0,0,1-1.752-.541,3.039,3.039,0,0,0-1.38-.447,2.751,2.751,0,0,0-1.938.652,2.61,2.61,0,0,1-1.584.857,2.823,2.823,0,0,1-.858-.186,3.512,3.512,0,0,0-.54-.13H6.506a1.24,1.24,0,0,0-.951.28.608.608,0,0,0-.149.447q0,.876,2.2,2.106a29.224,29.224,0,0,0,4.828,2.143l4.361,1.323a14.22,14.22,0,0,0,2.963.485,18.01,18.01,0,0,0,4.232-.522,18.817,18.817,0,0,0,3.41-1.23q.318-.13,1.25-.634-1.044-.056-1.1-.056a10.538,10.538,0,0,1-1.938.727,13.038,13.038,0,0,1-3.15.447,13.365,13.365,0,0,1-5.386-1.584,12.438,12.438,0,0,0-5.238-1.547,11.944,11.944,0,0,0-1.249.038,3.46,3.46,0,0,0-.708.13.314.314,0,0,1-.28-.019.283.283,0,0,1-.186-.205.315.315,0,0,1,.019-.28.281.281,0,0,1,.205-.186,2.688,2.688,0,0,1,.857-.168,9.854,9.854,0,0,1,1.342-.056,13,13,0,0,1,5.554,1.622,12.4,12.4,0,0,0,5.07,1.51,11.693,11.693,0,0,0,2.964-.429l.746-.205a10.013,10.013,0,0,1-1.212-.373,4.312,4.312,0,0,1-2.479-1.938.316.316,0,0,1,0-.261.419.419,0,0,1,.186-.224.363.363,0,0,1,.28,0,.343.343,0,0,1,.205.186,3.48,3.48,0,0,0,2.088,1.547,9.211,9.211,0,0,0,2.274.541,17.632,17.632,0,0,0,2.479.019A10.214,10.214,0,0,0,32.06,36.2q1.416-.391,1.436-1.025c-.038-.087-.218-.2-.541-.335a13.267,13.267,0,0,0-2.311-.746l-3.951-1.025a.354.354,0,0,1-.186-.5.344.344,0,0,1,.484-.186q.224.093,3.821.987a14.271,14.271,0,0,1,2.218.708,10.46,10.46,0,0,0,3.3-7.456,12.57,12.57,0,0,0-1.007-3.765,24.875,24.875,0,0,0-1.286-2.87.371.371,0,0,1-.037-.3.5.5,0,0,1,.2-.224q2.89-1.3,3.411-2.852a2.031,2.031,0,0,0,.056-1.249,4.724,4.724,0,0,1-2.349,1.659A3.924,3.924,0,0,0,34.2,17.579Zm.877-1.249a3.729,3.729,0,0,0,2.33-1.976.3.3,0,0,1,.317-.205.326.326,0,0,1,.336.186,3.256,3.256,0,0,1,.261,2.516q-.615,1.733-3.467,3.131.374.708,1.156,2.609a12.78,12.78,0,0,1,1.062,4.026,11.085,11.085,0,0,1-3.355,7.81.854.854,0,0,1,.5.727q0,1.212-1.976,1.771a11.25,11.25,0,0,1-2.105.373q-.783.522-1.957,1.156l.148.168q.857.932.858,1.3,0,.578-.988.8a3.346,3.346,0,0,1-.95.149,5.913,5.913,0,0,1-2.106-.41,5.03,5.03,0,0,1-1.137-.5,17.913,17.913,0,0,1-4.25.5,14.753,14.753,0,0,1-3.15-.5l-1.64-.429q-.372-.093-2.777-.932a28.486,28.486,0,0,1-4.921-2.181q-2.591-1.416-2.59-2.74,0-1.473,1.827-1.472H6.6a11.234,11.234,0,0,1,2.907-2.461,10.9,10.9,0,0,1,5.667-1.994q.839,0,2.684.168,1.957.13,2.8.13,5.927,0,9.208-1.938a5.98,5.98,0,0,0,2.944-3.485,6.477,6.477,0,0,0,.261-1.7l-.019-.038a5.264,5.264,0,0,1-4.007.354,3.248,3.248,0,0,1-1.752-2.032.278.278,0,0,1,.074-.354.327.327,0,0,1,.392-.093,4.024,4.024,0,0,0,3.056-.373,4.081,4.081,0,0,1,1.4-.541,1.747,1.747,0,0,1,.914.13,1.883,1.883,0,0,1,.6-.987A4.6,4.6,0,0,1,35.08,16.33Zm-7.269,22.8-.336-.354a19.383,19.383,0,0,1-2.386.913l.3.093a5.214,5.214,0,0,0,1.864.354A2.794,2.794,0,0,0,28.016,40a3.241,3.241,0,0,0,.392-.13A6.533,6.533,0,0,0,27.811,39.126Z" transform="translate(-4.681 -14.148)" fill="#ff5000" fill-rule="evenodd"/>
</svg>
