<svg xmlns="http://www.w3.org/2000/svg" width="21.465" height="29.359" viewBox="0 0 21.465 29.359">
  <g id="noun_Wine_1940803" transform="translate(-9 -2)">
    <path id="Path_70" data-name="Path 70" d="M15.85,11V2.489A.489.489,0,0,0,15.361,2H12.425a.489.489,0,0,0-.489.489V11A5.759,5.759,0,0,0,9,16.048V30.87a.489.489,0,0,0,.489.489H18.3a.489.489,0,0,0,.489-.489V16.048A5.759,5.759,0,0,0,15.85,11Zm-.979-2.153H12.915V5.425h1.957Zm0-5.872V4.447H12.915V2.979Zm2.936,27.4H9.979V16.048a4.8,4.8,0,0,1,2.667-4.316.489.489,0,0,0,.269-.435V9.829h1.957V11.3a.489.489,0,0,0,.269.435,4.8,4.8,0,0,1,2.667,4.316Z" fill="#ff5000"/>
    <path id="Path_71" data-name="Path 71" d="M42.9,21.421A.489.489,0,0,0,42.408,21H36.536a.489.489,0,0,0-.489.421l-.871,6.121a4.154,4.154,0,0,0,.088,1.629l.083.352a4.247,4.247,0,0,0,3.636,3.19v5.412h-.489a2.447,2.447,0,0,0-2.447,2.447.489.489,0,0,0,.489.489h5.872a.489.489,0,0,0,.489-.489,2.447,2.447,0,0,0-2.447-2.447h-.489V32.714a4.247,4.247,0,0,0,3.636-3.19l.083-.352a4.154,4.154,0,0,0,.088-1.629ZM41.835,40.084H37.108a1.468,1.468,0,0,1,1.385-.979H40.45A1.468,1.468,0,0,1,41.835,40.084Zm-4.893-18.1h5.04l.817,5.7v.171H36.13v-.171Zm5.7,7.31a3.269,3.269,0,0,1-6.361,0l-.088-.352a.168.168,0,0,0-.024-.108h6.586a.175.175,0,0,1-.024.108Z" transform="translate(-13.345 -9.703)" fill="#ff5000"/>
    <path id="Path_72" data-name="Path 72" d="M13,33.489V42.3a.489.489,0,0,0,.489.489h4.893a.489.489,0,0,0,.489-.489V33.489A.489.489,0,0,0,18.383,33H13.489A.489.489,0,0,0,13,33.489Zm.979.489h3.915v7.829H13.979Z" transform="translate(-2.043 -15.831)" fill="#ff5000"/>
  </g>
</svg>
