<svg xmlns="http://www.w3.org/2000/svg" width="31.254" height="24.63" viewBox="0 0 31.254 24.63">
  <g id="Layer_2" data-name="Layer 2" transform="translate(-3.768 -10.089)">
    <g id="Group_1708" data-name="Group 1708" transform="translate(5.041 17.374)">
      <path id="Path_74" data-name="Path 74" d="M46.8,37.918h-.368a3.091,3.091,0,0,1-2.695-3.431h0A3.085,3.085,0,1,1,46.8,37.94Zm0-5.044a1.959,1.959,0,0,0-1.942,1.7h0a1.953,1.953,0,1,0,2.174-1.7Zm-2.5,1.659Z" transform="translate(-22.373 -26.781)" fill="#ff5000"/>
      <path id="Path_75" data-name="Path 75" d="M30.531,41.96a2.009,2.009,0,0,1-.26,0,1.047,1.047,0,0,1-.232-.04.374.374,0,0,1-.113-.034L24.332,39.3a2.157,2.157,0,0,1-1.6-1.885L22.5,34.934l-7.433-1.7a2.2,2.2,0,0,1-.464-.17.566.566,0,0,1-.136-.091l-1.721-1.63L8.062,31.1a2.157,2.157,0,0,1,.209-4.308l5.214.277a2.089,2.089,0,0,1,.838.215.674.674,0,0,1,.13.091L16.361,29.1l8.6,1.97a2.162,2.162,0,0,1,1.7,1.9l.243,2.587,4.183,2.157a2.117,2.117,0,0,1,1.268.945,2.151,2.151,0,0,1-1.823,3.295Zm-.192-1.132H30.4a1.032,1.032,0,1,0,.357-2.032.521.521,0,0,1-.13-.051L26.1,36.418a.566.566,0,0,1-.277-.453l-.272-2.9a1.036,1.036,0,0,0-.793-.906l-8.774-1.987a.606.606,0,0,1-.255-.13l-1.953-1.772a.838.838,0,0,0-.328-.074L8.227,27.92a.962.962,0,0,0-.736.26,1.019,1.019,0,0,0-.351.708,1.047,1.047,0,0,0,.26.742,1.008,1.008,0,0,0,.708.334l4.891.26a.566.566,0,0,1,.357.153l1.823,1.7a.81.81,0,0,0,.153.051l7.806,1.789a.566.566,0,0,1,.436.5l.277,2.893a1.013,1.013,0,0,0,.8.923l.108.04Z" transform="translate(-6.017 -24.619)" fill="#ff5000"/>
      <path id="Path_76" data-name="Path 76" d="M31.879,28.467a1.84,1.84,0,0,1-.566-.079l-5.791-1.761a1.885,1.885,0,0,1,1.093-3.606l5.808,1.761a1.882,1.882,0,0,1-.543,3.685Zm-5.808-4.393a.747.747,0,0,0-.221,1.466h0l5.808,1.766a.77.77,0,0,0,.566-.057.781.781,0,0,0,.368-.447.77.77,0,0,0-.057-.566.753.753,0,0,0-.447-.362l-5.8-1.761A.98.98,0,0,0,26.071,24.074Z" transform="translate(-13.926 -22.958)" fill="#ff5000"/>
      <path id="Path_77" data-name="Path 77" d="M53.461,39.462a.566.566,0,0,1-.215-.045l-2.355-.974a.566.566,0,1,1,.436-1.025l1.817.753.838-2.14-1.7-.719a.566.566,0,0,1-.8-.725l.074-.181a.566.566,0,0,1,.747-.311l2.627,1.059a.566.566,0,0,1,.306.725l-1.251,3.238a.5.5,0,0,1-.526.345Z" transform="translate(-25.296 -27.771)" fill="#ff5000"/>
    </g>
    <path id="Path_78" data-name="Path 78" d="M34.3,15.7h-.091a13.034,13.034,0,0,1-4.778-2.264c-1.636-1.059-3.187-2.061-4.789-2.145s-3.249.719-4.987,1.579a12.66,12.66,0,0,1-5,1.778A13.153,13.153,0,0,1,9.56,13.435c-1.823-.7-3.549-1.359-5.14-1.132a.564.564,0,0,1-.175-1.115c1.891-.3,3.838.447,5.723,1.166a11.539,11.539,0,0,0,4.67,1.132,12.564,12.564,0,0,0,4.529-1.63c1.795-.917,3.657-1.851,5.565-1.761s3.651,1.234,5.338,2.327a11.462,11.462,0,0,0,4.319,2.145A.568.568,0,1,1,34.3,15.7Z" fill="#ff5000"/>
  </g>
</svg>
