<svg xmlns="http://www.w3.org/2000/svg" width="35.805" height="35.808" viewBox="0 0 35.805 35.808">
  <path id="noun_island_1812073" d="M39.166,38.525a4.514,4.514,0,0,1-3.075-1.151,5.754,5.754,0,0,0-3.836-1.407,5.435,5.435,0,0,0-2.558.569,5.169,5.169,0,0,0-4.476-3.894c.058-.3.128-.639.211-.991a23.139,23.139,0,0,0,.7-4.731,25.9,25.9,0,0,0-1.56-7.577l2.871,2.136a.639.639,0,0,0,1.01-.39l.345-1.726,1.976,3.178a.638.638,0,0,0,1.119-.064l.639-1.355,2.347,2.558a.639.639,0,0,0,.345.192l3.3.639h.128a.639.639,0,0,0,.639-.774c-.083-.339-1.854-8.229-9.45-10.147a6.106,6.106,0,0,0-.857-.147h0a.639.639,0,0,0,.332-.748l-.243-.85h3.35a.639.639,0,0,0,.55-.959L32.286,9.7l1.918-.16a.639.639,0,0,0,.531-.377l1.809-4.124a.639.639,0,0,0-.639-.9c-.249,0-6.125.55-10.038,4.156a12.57,12.57,0,0,0-3.107,4.393,12.557,12.557,0,0,0-3.133-4.476C15.752,4.574,9.876,4.037,9.627,4a.639.639,0,0,0-.639.9l1.8,4.13a.639.639,0,0,0,.531.384l1.918.166-.691,1.183a.639.639,0,0,0,.55.959h3.35l-.249.85a.639.639,0,0,0,.326.748l.735.371a5.889,5.889,0,0,0-2.033.46C8.022,17.208,7.5,25.3,7.491,25.661a.639.639,0,0,0,.857.639l3.159-1.164a.639.639,0,0,0,.307-.243l1.918-2.864.85,1.24a.638.638,0,0,0,1.113-.109l1.464-3.414L17.8,21.4a.639.639,0,0,0,1.055.224l3.12-3.2c-.173,1.816-.486,4.7-.94,7.084a32.1,32.1,0,0,1-2.794,7.11H16.82c-2.7,0-4.9,2.621-4.974,5.876h-.32a4.508,4.508,0,0,1-3.05-1.119,5.754,5.754,0,0,0-3.836-1.407.639.639,0,1,0,0,1.279A4.508,4.508,0,0,1,7.715,38.4,5.754,5.754,0,0,0,11.551,39.8,5.754,5.754,0,0,0,15.387,38.4a4.68,4.68,0,0,1,6.151,0,5.946,5.946,0,0,0,7.673,0l.3-.217a.639.639,0,0,0,.345-.237,4.1,4.1,0,0,1,2.417-.7A4.514,4.514,0,0,1,35.329,38.4,5.754,5.754,0,0,0,39.166,39.8a.639.639,0,0,0,0-1.279ZM37.74,23.033l-2.059-.409-2.845-3.069a.639.639,0,0,0-1.049.16l-.55,1.157-2.212-3.517a.639.639,0,0,0-1.17.217l-.46,2.308-3.664-2.724c.85-.972,3.031-3.018,5.8-2.327C34.844,16.147,37.03,20.955,37.74,23.033ZM26.762,9.209a16.85,16.85,0,0,1,8.178-3.664l-1.2,2.724-2.558.211a.639.639,0,0,0-.5.959l.639,1.1H28.232a.639.639,0,0,0-.639.818l.332,1.151c-1.579.793-3.286,1.694-4.476,2.43l-.038-.192a11.151,11.151,0,0,1,3.35-5.537ZM14.23,10.45l.639-1.1a.639.639,0,0,0-.5-.959l-2.558-.217-1.2-2.73A17.145,17.145,0,0,1,18.789,9.12a11.176,11.176,0,0,1,3.331,5.639v.128c-1.189-.748-2.909-1.656-4.476-2.455l.332-1.151a.639.639,0,0,0-.639-.818Zm4.412,9.533-.812-2.206a.639.639,0,0,0-.582-.416.6.6,0,0,0-.6.384L15.01,21.581l-.722-1.061a.639.639,0,0,0-.531-.281h0a.639.639,0,0,0-.531.281L10.892,24l-1.976.729c.371-2.161,1.771-7.238,6.835-9.386a4.572,4.572,0,0,1,1.8-.364,7.142,7.142,0,0,1,4.29,1.765Zm3.644,5.754c.4-2.129.7-4.642.882-6.47a25.4,25.4,0,0,1,1.714,7.673,22.532,22.532,0,0,1-.639,4.418c-.1.467-.192.889-.256,1.279h-4.3A32.7,32.7,0,0,0,22.286,25.737Zm3.069,12.788a4.508,4.508,0,0,1-3.075-1.151,5.946,5.946,0,0,0-7.673,0,6.132,6.132,0,0,1-1.471.882c.166-2.43,1.752-4.341,3.683-4.341h8.248c1.624,0,3.056,1.381,3.529,3.338l-.166.121a4.514,4.514,0,0,1-3.075,1.151Z" transform="translate(-4 -3.996)" fill="#ff5000"/>
</svg>
