<?xml version="1.0" encoding="utf-8"?>
<!-- Generator: Adobe Illustrator 25.0.0, SVG Export Plug-In . SVG Version: 6.00 Build 0)  -->
<svg version="1.1" id="Layer_1" xmlns="http://www.w3.org/2000/svg" xmlns:xlink="http://www.w3.org/1999/xlink" x="0px" y="0px"
	 viewBox="0 0 499.3 453" style="enable-background:new 0 0 499.3 453;" xml:space="preserve">
<style type="text/css">
	.st0{fill:#FFFFFF;}
	.st1{fill:#FF5000;}
</style>
<g>
	<path class="st0" d="M24.5,340.1h19.7c6.4,0,11.5,1.4,15.3,4.3c3.8,2.8,5.6,6.5,5.6,11s-1.6,7.9-4.9,10.3c-3.3,2.4-8,3.6-14.1,3.6
		c-2.4,0-5.1-0.2-8.3-0.6v15.1c0,3.3,0.4,5.5,1.3,6.7c0.9,1.2,2.5,1.8,4.8,1.8v1.6H24.5v-1.6c2.3,0,3.9-0.6,4.8-1.9s1.3-3.4,1.3-6.4
		v-33.8c0-3.2-0.4-5.5-1.3-6.7c-0.9-1.3-2.5-1.9-4.8-1.9V340.1z M44.4,342.1h-6.7v24.2c1.8,0.6,4,0.9,6.7,0.9c4,0,7.2-1,9.6-3.1
		c2.3-2.1,3.5-4.9,3.5-8.5c0-3.9-1.2-7.1-3.5-9.6C51.7,343.4,48.5,342.1,44.4,342.1z"/>
	<path class="st0" d="M95.8,394v-1.6c3.1,0,4.6-1.1,4.6-3.2c0-0.6-0.1-1.3-0.4-2.1l-5-15H77.7L74,383c-0.9,2.7-1.4,4.7-1.4,5.9
		c0,2.3,1.4,3.4,4.3,3.5v1.6H63v-1.6c2-0.3,3.5-0.9,4.6-2c1.1-1,2.2-3.2,3.4-6.5l14.9-44.5h5.5l15.7,46.4c0.9,2.7,1.9,4.5,2.9,5.3
		s2.6,1.2,4.8,1.2v1.6h-19V394z M78.7,368.8h15.2L86.2,346L78.7,368.8z"/>
	<path class="st0" d="M148.8,339.3h1.5v12.6h-1.6c-0.4-3.5-1.6-6.2-3.8-8.2c-2.2-2-4.9-2.9-8.2-2.9c-2.9,0-5.3,0.7-7,2.2
		c-1.8,1.5-2.7,3.4-2.7,5.9c0,2.3,0.7,4.3,2.2,6.2c1.5,1.9,4.7,4.3,9.6,7.2c5.7,3.4,9.5,6.4,11.5,8.9s2.9,5.5,2.9,8.7
		c0,4.2-1.5,7.8-4.5,10.8s-6.6,4.5-10.8,4.5c-2.5,0-5.6-0.7-9.4-2c-1.6-0.6-2.6-0.8-3-0.8c-0.9,0-1.6,0.7-2.1,2.1h-1.6V380h1.7
		c0,4,1.3,7.2,3.9,9.6c2.6,2.4,5.6,3.6,9.1,3.6c3.3,0,5.9-0.9,7.9-2.6s3-4.1,3-7c0-2.2-0.8-4.3-2.4-6.3c-1.6-2-5-4.6-10.2-7.7
		c-4.2-2.6-7-4.6-8.4-6.1s-2.4-3.1-3.1-4.9s-1-3.8-1-5.9c0-4.1,1.4-7.5,4.1-10.1s6.2-3.9,10.6-3.9c2.4,0,5,0.5,7.8,1.4
		c1.3,0.4,2.2,0.6,2.8,0.6c0.4,0,0.7-0.1,0.9-0.3C148.4,340.3,148.6,339.9,148.8,339.3z"/>
	<path class="st0" d="M178,340.1v1.6c-2.3,0-3.9,0.6-4.8,1.9c-0.9,1.3-1.3,3.5-1.3,6.7v33.6c0,3.2,0.4,5.5,1.3,6.7
		c0.9,1.2,2.5,1.9,4.8,1.9v1.6h-19.4v-1.6c2.4,0,4-0.6,4.8-1.8c0.9-1.2,1.3-3.5,1.3-6.7v-33.6c0-3.3-0.4-5.6-1.3-6.8
		c-0.8-1.2-2.5-1.8-4.9-1.8v-1.6H178V340.1z"/>
	<path class="st0" d="M184.2,394v-1.6c2.4,0,4-0.6,4.8-1.9c0.9-1.3,1.3-3.5,1.3-6.6v-33.6c0-3.2-0.4-5.5-1.3-6.7
		c-0.8-1.2-2.5-1.9-4.9-1.9v-1.6h19.4v1.6c-2.3,0-3.8,0.6-4.7,1.9s-1.3,3.5-1.3,6.7v16.3l17.6-17.3c1.9-1.9,2.8-3.4,2.8-4.5
		c0-1.6-1.1-2.6-3.4-3v-1.6h20.4v1.6h-2.7c-1.6,0-3.5,0.5-5.6,1.6s-4,2.5-5.8,4.3L204,364.3l22.3,22.6c2.2,2.3,3.9,3.8,5.1,4.4
		c1.2,0.7,2.9,1.1,5,1.3v1.6h-12.8l-26.1-26.6v16.3c0,3.2,0.4,5.4,1.3,6.7c0.8,1.3,2.4,1.9,4.8,1.9v1.6h-19.4V394z"/>
	<path class="st0" d="M284.3,382.7v-32.4c0-3.2-0.4-5.4-1.3-6.6c-0.8-1.2-2.3-1.9-4.5-2v-1.6h19v1.6c-2.3,0-3.9,0.6-4.8,1.9
		s-1.3,3.5-1.3,6.7v33.6c0,3.2,0.4,5.4,1.3,6.6c0.9,1.3,2.5,1.9,4.8,1.9v1.6h-13.3v-7.5c-5.1,5.9-11,8.9-18,8.9
		c-5.7,0-10.2-1.7-13.4-5.1c-3.3-3.4-4.9-7.9-4.9-13.5v-26.5c0-3.2-0.4-5.5-1.3-6.7c-0.8-1.3-2.5-1.9-4.9-1.9v-1.6h19.5v1.6
		c-2.4,0-4.1,0.6-4.9,1.8c-0.9,1.2-1.3,3.4-1.3,6.7v27.3c0,4.4,1.2,7.9,3.6,10.4s5.8,3.8,10.1,3.8
		C275.3,391.6,280.5,388.6,284.3,382.7z"/>
	<path class="st0" d="M304.1,394v-1.6c2.3,0,3.9-0.6,4.8-1.9s1.3-3.5,1.3-6.6v-33.6c0-3.2-0.4-5.5-1.3-6.7c-0.9-1.3-2.5-1.9-4.8-1.9
		v-1.6H329c9.2,0,16.6,2.6,22.1,7.9c5.5,5.2,8.3,11.9,8.3,20c0,7.9-2.6,14.3-7.9,19c-5.2,4.7-12.5,7.1-21.9,7.1L304.1,394L304.1,394
		z M327.6,342.1h-10.2v39.8c0,3.8,0.5,6.4,1.4,7.9c0.9,1.4,2.8,2.1,5.5,2.1h5.6c6.6,0,11.8-2.1,15.6-6.4c3.8-4.3,5.7-10.1,5.7-17.5
		c0-7.8-2.1-14.1-6.2-18.8C340.8,344.5,335,342.1,327.6,342.1z"/>
	<path class="st0" d="M394.6,394v-1.6c3.1,0,4.6-1.1,4.6-3.2c0-0.6-0.1-1.3-0.4-2.1l-5-15h-17.3l-3.7,10.8c-0.9,2.7-1.4,4.7-1.4,5.9
		c0,2.3,1.4,3.4,4.3,3.5v1.6h-13.9v-1.6c2-0.3,3.5-0.9,4.6-2c1.1-1,2.2-3.2,3.4-6.5l14.9-44.5h5.6l15.6,46.4
		c0.9,2.7,1.9,4.5,2.9,5.3s2.6,1.2,4.8,1.2v1.6h-19V394z M377.5,368.8h15.2l-7.6-22.8L377.5,368.8z"/>
	<path class="st0" d="M461.6,383.8v-15.7h-29.4v15.7c0,3.2,0.4,5.4,1.4,6.7c0.9,1.3,2.5,1.9,4.9,1.9v1.6H419v-1.6
		c2.4,0,4-0.6,4.8-1.9c0.9-1.3,1.3-3.5,1.3-6.6v-33.6c0-3.3-0.4-5.6-1.3-6.8c-0.9-1.2-2.5-1.8-4.8-1.8v-1.6h19.5v1.6
		c-2.4,0-4,0.7-4.9,2s-1.4,3.5-1.4,6.6v15.3h29.4v-15.3c0-3.3-0.4-5.6-1.3-6.8c-0.8-1.2-2.4-1.8-4.8-1.8v-1.6h19.3v1.6
		c-2.3,0-3.9,0.6-4.8,1.9s-1.3,3.5-1.3,6.7v33.6c0,3.2,0.4,5.5,1.3,6.7s2.5,1.9,4.8,1.9v1.6h-19.3v-1.6c2.4,0,4-0.6,4.8-1.9
		C461.2,389.3,461.6,387.1,461.6,383.8z"/>
</g>
<g>
	<path class="st0" d="M343.5,81.2c-5.8-2.1-12.3-0.5-18.1,0.7c-5.7,1.2-11.7,2.8-17.6,1.4c-5.5-1.3-9.9-6.8-10.1-12.5
		c-0.2-5.5,2.7-10.5,7.3-13.4c0.9-0.5,2.9-1.7,4.3-2c0,0-3.7,2.7-3.8,8c-0.1,2.9,1.7,6,4.2,7.4c0.3,0.2,0.6,0.3,0.9,0.4
		c6.1,3.2,12.2-1.7,15.3-7.2c1-1.8,1.9-3.7,2.5-5.6c1.9-5.1,2.7-10.5,1.9-16c-1.7-11.9-13.4-20.7-25.6-16.2
		c-5.8,2.1-9.7,7.5-13.4,12.2c-3.6,4.6-7.2,9.6-12.6,12.3c-5.1,2.5-12,1.2-15.8-3.1c-3.7-4.1-4.7-9.8-3-15c0.3-1,1.1-3.1,2-4.3
		c0,0-1.2,4.4,2.2,8.6c1.8,2.2,5.2,3.5,8,3c0.3-0.1,0.7-0.1,1-0.2c6.7-1.5,8.2-9.2,7-15.4c-0.4-2-1-4-1.7-5.9
		c-1.9-5.1-4.7-9.8-8.8-13.5c-8.9-8-23.5-7.2-30,4.1c-3.1,5.3-2.6,12-2.4,17.9c0.2,5.8,0.7,12-1.7,17.5c-2.2,5.2-8.4,8.6-14,7.8
		c-5.5-0.8-9.9-4.5-11.9-9.5c-0.4-0.9-1.1-3.1-1.2-4.6c0,0,2,4.1,7.2,5.2c2.8,0.6,6.2-0.7,8-2.8c0.2-0.3,0.4-0.5,0.6-0.8
		c4.2-5.5,0.4-12.3-4.5-16.3c-1.6-1.3-3.3-2.5-5.1-3.5c-4.7-2.7-9.9-4.5-15.4-4.7c-12-0.4-22.7,9.6-20.4,22.4
		c1.1,6.1,5.7,10.9,9.7,15.3c3.9,4.3,8.2,8.8,10,14.5c1.6,5.4-0.9,12-5.7,15c-4.7,2.9-10.4,2.9-15.3,0.4c-0.9-0.5-2.9-1.6-3.9-2.7
		c0,0,4.2,1.9,8.8-0.6c2.5-1.4,4.3-4.5,4.3-7.3c0-0.3,0-0.7-0.1-1c-0.3-6.9-7.6-9.7-13.9-9.6c-2.1,0-4.1,0.3-6.1,0.6
		c-5.4,1-10.5,2.9-14.8,6.3c-9.4,7.4-11.2,21.9-1.2,30.3c4.7,3.9,11.4,4.7,17.2,5.5c6.4,0.9,13.3,1.5,18.6,5.9
		c2.7,2.3,4.7,7.2,4.4,10.7c-0.7,7-5.7,12-12.2,13.4c-1,0.2-3.3,0.6-4.8,0.4c0,0,4.4-1.2,6.3-6.2c1-2.7,0.4-6.2-1.4-8.4
		c-0.2-0.3-0.4-0.5-0.7-0.7c-4.7-5.1-12.1-2.5-16.8,1.6c-1.5,1.3-3,2.8-4.3,4.4c-3.5,4.2-6.1,9-7.3,14.3c-2.5,11.7,5.5,24,18.6,24
		c6.1,0,11.7-3.7,16.7-6.8c5.5-3.4,11.2-7.4,18-7.4c3.5,0,8.2,2.4,10.2,5.3c4,5.8,3.4,12.9-0.7,18.2c-0.6,0.8-2.1,2.5-3.4,3.4
		c0,0,2.6-3.8,0.9-8.8c-0.9-2.7-3.7-5-6.5-5.5c-0.3-0.1-0.7-0.1-1-0.1c-6.8-0.9-10.9,5.8-11.9,12c-0.3,2-0.5,4.1-0.5,6.2
		c0,5.5,1.1,10.8,3.7,15.7c5.6,10.6,19.6,14.8,29.6,6.4c4.7-3.9,6.6-10.4,8.4-16c1.6-5,3.1-10.3,6.4-14.5c4.1-5.2,12.4-7,18-3.4
		c4.3,2.7,6.8,7.4,7,12.5c0,1,0,3.3-0.4,4.8c0,0-0.4-4.6-5-7.3c-2.4-1.5-6-1.5-8.5-0.1c-0.3,0.2-0.6,0.4-0.9,0.6
		c-5.8,3.7-4.6,11.4-1.3,16.8c1.1,1.8,2.3,3.4,3.6,5c3.5,4.2,7.8,7.6,12.9,9.6c11.1,4.5,24.6-1.3,26.8-14.1
		c1.1-6.1-1.6-12.2-3.8-17.7c-1.9-4.8-4.2-9.9-4.4-15.1c-0.3-6.6,5-13.3,11.6-14.2c5-0.7,10,1.3,13.4,5.1c0.7,0.8,2.1,2.5,2.7,3.9
		c0,0-3.3-3.2-8.5-2.4c-2.8,0.4-5.6,2.7-6.6,5.4c-1.1,3.1-0.5,6.7,1.8,9.1c1.9,2,4.6,3.7,7.5,3.7c2.4,0,5.1-0.9,6.8-2.6
		c0.9-1,1.9-2.3,2.3-3.6c2.2-6.6-2.2-13.3-7.2-17.3c-1.5-1.2-3.1-2.3-4.8-3.1c-4.1-2.1-8.8-3-13.4-2.4c-3.7,0.5-7.4,2-10.2,4.4
		c-11.9,10.4-3.8,24.1,0.6,35.8c2.3,6.1,2.1,12.9-3,17.7c-8.7,8.1-20.7,1.7-25.4-7.5c1.6,0.9,3.4,1.3,5.1,1.1
		c1.3-0.1,2.9-0.6,4.1-1.3c5.9-3.6,6.9-11.6,5.6-17.9c-0.4-1.8-0.9-3.8-1.6-5.5c-1.8-4.3-4.8-7.9-8.7-10.4c-3.1-2-6.9-3.3-10.7-3.2
		c-15.8,0.3-18.4,16.1-22.5,27.8c-2.2,6.2-6.7,11.3-13.7,11.6c-11.9,0.6-17-12-14.6-22.1c0.7,1.7,1.8,3.2,3.2,4.2
		c1.1,0.7,2.6,1.4,3.9,1.6c6.9,1,12.7-4.5,15.8-10.1c0.9-1.6,1.7-3.5,2.3-5.3c1.4-4.4,1.5-9.2,0-13.6c-1.2-3.5-3.2-7-6.1-9.3
		c-12.3-10-24.4,0.5-35.1,6.8c-5.6,3.4-12.3,4.3-17.9,0.1c-9.5-7.1-5.3-20.1,3-26.3c-0.6,1.7-0.7,3.6-0.2,5.3c0.4,1.3,1.1,2.8,2,3.8
		c4.6,5.2,12.6,4.8,18.6,2.5c1.7-0.7,3.5-1.5,5.1-2.6c3.9-2.5,7-6.1,8.7-10.4c1.4-3.4,2-7.4,1.3-11.1c-3-15.5-19-15.3-31.3-17.3
		c-6.5-1.1-12.2-4.6-13.8-11.4c-2.7-11.6,8.8-18.8,19.2-18.2c-1.5,0.9-2.8,2.3-3.5,3.9c-0.5,1.2-0.9,2.8-0.9,4.2
		c0.2,6.9,6.6,11.8,12.7,13.8c1.8,0.6,3.7,1.1,5.6,1.3c4.6,0.6,9.3-0.1,13.4-2.3c3.3-1.8,6.3-4.4,8.1-7.6c7.7-13.8-4.7-24-12.8-33.4
		c-4.3-5-6.4-11.4-3.2-17.7c5.4-10.6,18.9-8.7,26.4-1.6c-1.8-0.3-3.6-0.1-5.2,0.7c-1.2,0.6-2.5,1.6-3.4,2.6
		c-4.3,5.4-2.5,13.3,0.8,18.7c1,1.6,2.1,3.2,3.4,4.6c3.2,3.4,7.2,5.8,11.7,6.8c3.6,0.8,7.6,0.7,11.1-0.7
		c14.8-5.7,11.8-21.4,11.6-33.8c-0.1-6.6,2.4-12.8,8.9-15.6c11-4.7,20,5.5,21.3,15.7c-1.2-1.3-2.7-2.4-4.4-2.8
		c-1.3-0.3-3-0.4-4.3-0.2c-6.8,1.4-10.4,8.6-11.4,14.9c-0.3,1.9-0.4,3.8-0.3,5.7c0.3,4.6,1.8,9.1,4.6,12.8c2.3,2.9,5.4,5.4,8.9,6.6
		c15,5.1,22.8-8.8,30.6-18.4c4.2-5.1,10.1-8.3,16.8-6.3c11.4,3.5,11.8,17.1,6.2,25.8c0-1.8-0.6-3.6-1.6-5c-0.8-1.1-2-2.2-3.2-2.9
		c-6.1-3.3-13.5-0.1-18.3,4.1c-1.4,1.2-2.8,2.7-3.9,4.2c-2.8,3.7-4.5,8.1-4.6,12.7c-0.1,3.7,0.6,7.6,2.6,10.8
		c8.2,13.6,23.1,7.9,35.3,5.6c6.4-1.2,13.1,0.1,16.9,6c6.5,10-2,20.8-12,23.8c0.3-0.4,0.5-0.8,0.7-1.2c0.7-1.5,1.1-3.2,1-4.8
		c-0.1-1.7-0.8-3.2-1.9-4.6c-1.6-2.5-4.5-3.5-7.3-3.5c-5.4-0.1-10.7,5.6-9.4,11c1.9,7.9,10.5,8.3,16.9,5.9c1.9-0.7,3.8-1.6,5.6-2.7
		c4.7-2.7,8.8-6.3,11.7-11C359,99.9,355.7,85.6,343.5,81.2"/>
	<path class="st1" d="M337.8,148.3c-3.1-5.3-9.1-8.3-14.3-11.1c-5.2-2.7-10.7-5.4-14.3-10.2c-3.4-4.5-3.2-11.6,0.3-16.1
		c2.7-3.4,6.9-5.6,11.2-5.7c1.8,0,3.6,0.2,5.3,0.6c0.5,0.1,1.4,0.4,1.6,0.5c-5.4,0-9.8,4.2-9.8,9.3c0,5.1,4.4,9.3,9.8,9.3
		s9.8-4.2,9.8-9.3c0-0.4,0-0.8-0.1-1.1l0,0c0-0.3-0.1-0.6-0.1-1l-0.1-0.4l-0.1-0.3c0-0.2-0.1-0.5-0.2-0.8c-0.9-3.1-3.4-5.3-6.2-6.6
		c-1.5-0.7-3.1-1.4-4.7-1.7c-6.4-1.4-13.8-0.3-19.2,3.5c-1.4,1-2.8,2.2-3.9,3.4c-2.5,2.8-4.4,6.3-5,9.9c-2.5,15.6,12.6,20.9,23.4,27
		c2.7,1.5,5.1,3.6,6.9,6.1c1.1,1.7,2,3.5,2.2,5.5c0.4,3.1-0.1,6.2-1.5,8.9c-2,3.8-6,6.1-10.1,6.9c-2.2,0.4-4.6,0.5-6.8,0.2
		c-1.9-0.2-3.9-0.7-5.7-1.5c4.2-1.1,7.3-4.7,7.3-9.1c0-5.2-4.4-9.4-9.8-9.4s-9.8,4.2-9.8,9.4c0,2.9,1.5,5.4,3.5,7.3
		c2.3,2.2,5.3,3.5,8.3,4.4c4,1.2,8.3,1.8,12.5,1.6c1.3-0.1,2.6-0.2,3.8-0.4c1.4-0.2,2.8-0.6,4.1-1
		C337.7,172.6,344.3,159.6,337.8,148.3"/>
</g>
<g>
	<path class="st0" d="M60.5,312.9c-2.2,0-4.2-0.2-5.9-0.7c-1.7-0.5-3.4-1.1-5.2-2c-0.8-0.3-1.1-0.3-1.1-0.3c-0.3,0-0.3,0.1-0.3,0.1
		c-0.1,0.2-0.3,0.8-0.6,2.2l-0.1,0.6h-1.9v-14.6h1.9l0.1,0.6c0.8,3.7,2.4,6.4,4.7,8.3s5.2,2.8,8.5,2.8c2.5,0,4.5-0.5,6-1.4
		s2.5-2,3-3.3c0.6-1.3,0.9-2.7,0.9-4c0-2.7-0.8-5-2.5-6.7c-1.7-1.8-4.4-3.7-8-5.6c-2.6-1.4-4.4-2.5-5.6-3.2c-1.3-0.8-2.5-1.8-3.8-3
		c-1.3-1.3-2.4-2.8-3.1-4.5c-0.8-1.7-1.2-3.7-1.2-6c0-2.6,0.7-5.1,2.1-7.5c1.4-2.4,3.3-4.3,5.8-5.7c4.4-2.5,10.1-2.8,15.8-0.9
		c0.4,0.2,0.8,0.2,1.3,0.2c0.2,0,0.6,0,0.9-1l0.1-0.6h1.9v12.7h-2l-0.1-0.7c-0.3-2.4-1.4-4.5-3.1-6.2c-1.8-1.8-4-2.6-6.9-2.6
		c-1.9,0-3.6,0.4-5,1.3c-1.4,0.9-2.6,2.1-3.4,3.6s-1.2,3.3-1.2,5.3c0,1.5,0.2,2.9,0.7,4.1s1.2,2.2,2.1,3.1c1,0.9,2.1,1.8,3.4,2.6
		c1.3,0.8,3.2,1.9,5.4,3.2c3.9,2.1,7,4.3,9.1,6.4c2.3,2.2,3.4,5.3,3.4,9.2c0,2.3-0.6,4.6-1.8,6.8c-1.2,2.2-3.1,4-5.5,5.4
		C67.1,312.2,64.1,312.9,60.5,312.9"/>
	<path class="st0" d="M109,313.2c-3.8,0-7.4-0.9-10.4-2.8c-3.1-1.8-5.4-4.2-6.8-6.9c-1-1.9-1.7-4-2-6s-0.4-4.2-0.4-6.3v-26.1
		c0-1.4-0.3-2.6-0.8-3.6c-0.5-0.8-1.9-1.4-3.9-1.5l-0.7-0.1v-2h18v2l-0.7,0.1c-2.2,0.3-3.5,0.8-4.1,1.7c-0.6,1-0.9,2.1-0.9,3.4v25.7
		c0,5.1,0.5,8.9,1.5,11.3c1.1,2.5,2.7,4.5,4.8,5.9c2.1,1.4,4.6,2.1,7.3,2.1c1.1,0,2.5-0.2,4.1-0.6s3.1-1.1,4.4-2
		c4.1-2.8,6.2-7.4,6.2-13.7v-28.6c0-1.3-0.3-2.5-0.9-3.5c-0.5-0.9-2-1.4-4.1-1.6l-0.7-0.1v-2h18.2v2.1h-0.7c-2.1,0.1-3.5,0.7-4,1.6
		c-0.6,1.1-0.9,2.2-0.9,3.4v39.7c0,1.2,0.2,2.2,0.6,2.9c0.4,0.7,0.9,1.1,1.6,1.4c0.8,0.3,1.7,0.6,2.9,0.8l0.6,0.1v1.9h-12.4l0,0
		v-6.8c-1.5,2.5-3.5,4.4-5.9,5.7C115.7,312.3,112.4,313.2,109,313.2"/>
	<path class="st0" d="M195,313.1h-1.4l-0.2-0.2l-38.9-43.4h-0.1v30.2c0,2.6,0.1,4.6,0.3,5.9c0.2,1.5,0.6,2.2,0.8,2.5
		c0.7,1,2.1,1.6,4,1.7h0.7v2h-14.6v-2h0.7c1.3-0.1,2.4-0.3,3-0.8c0.7-0.4,1.1-1.3,1.4-2.6c0.3-1.4,0.5-3.6,0.5-6.5V266l-1.5-1.7
		c-1.5-1.7-2.6-2.7-3.5-3.2c-0.9-0.4-1.9-0.8-3.2-1l-0.6-0.1v-2h10.9l0,0l38.5,43.1h0.1v-31.8c0-2.5-0.1-4.4-0.3-5.6
		c-0.2-1.1-0.6-1.9-1.4-2.6c-0.7-0.6-1.9-1-3.6-1.1h-0.7v-2.1h14.6v2l-0.6,0.1c-1.3,0.2-2.2,0.4-2.9,0.7c-0.6,0.3-1.1,0.8-1.4,1.6
		c-0.4,0.9-0.6,2.3-0.6,4.1L195,313.1L195,313.1z"/>
	<path class="st0" d="M242.6,312.9c-2.2,0-4.2-0.2-5.9-0.7s-3.4-1.1-5.2-2c-0.8-0.3-1.1-0.3-1.1-0.3c-0.3,0-0.3,0.1-0.3,0.1
		c-0.1,0.2-0.3,0.8-0.6,2.2l-0.1,0.6h-1.9v-14.6h1.9l0.1,0.6c0.8,3.7,2.4,6.4,4.7,8.3s5.2,2.8,8.5,2.8c2.5,0,4.5-0.5,6-1.4
		s2.5-2,3-3.3c0.6-1.3,0.9-2.7,0.9-4c0-2.7-0.8-5-2.5-6.7c-1.7-1.8-4.4-3.7-8-5.6c-2.6-1.4-4.4-2.5-5.6-3.2c-1.3-0.8-2.5-1.8-3.8-3
		c-1.3-1.3-2.4-2.8-3.1-4.5c-0.8-1.7-1.2-3.7-1.2-6c0-2.6,0.7-5.1,2.1-7.5c1.4-2.4,3.3-4.3,5.8-5.7c4.4-2.5,10.1-2.8,15.8-0.9
		c0.4,0.2,0.8,0.2,1.3,0.2c0.2,0,0.6,0,0.9-1l0.1-0.6h1.9v12.7h-2l-0.1-0.7c-0.3-2.4-1.4-4.5-3.1-6.2c-1.7-1.8-4.1-2.6-6.9-2.6
		c-1.9,0-3.5,0.4-5,1.3c-1.4,0.9-2.6,2.1-3.4,3.6c-0.8,1.5-1.2,3.3-1.2,5.3c0,1.5,0.2,2.9,0.7,4.1s1.2,2.2,2.1,3.1
		c0.9,0.9,2.1,1.8,3.4,2.6c1.3,0.8,3.2,1.9,5.4,3.2c3.9,2.1,6.9,4.3,9.1,6.4c2.3,2.2,3.4,5.3,3.4,9.2c0,2.4-0.6,4.6-1.8,6.8
		c-1.2,2.2-3.1,4-5.5,5.4C249.2,312.2,246.1,312.9,242.6,312.9"/>
	<path class="st0" d="M284.2,311.8h-18.1v-2.1h0.7c1.4,0,2.5-0.4,3.5-1.2c0.9-0.7,1.4-2,1.4-3.9v-39.8c0-1.9-0.4-3.2-1.3-3.9
		c-1-0.7-2.1-1.1-3.5-1.1h-0.7v-2.1h18.1v2.1h-0.8c-1.4,0-2.6,0.4-3.5,1.2c-0.9,0.7-1.4,2-1.4,3.8v39.8c0,1.8,0.5,3,1.5,3.8
		s2.2,1.2,3.4,1.2h0.7V311.8z"/>
	<path class="st0" d="M324.4,311.8h-18.1v-2h0.7c1.5,0,2.7-0.5,3.5-1.2c0.8-0.8,1.2-2,1.2-3.7V285l0,0l-13.2-19.8
		c-1.4-2.1-2.6-3.4-3.6-4.1c-1-0.6-2.4-1-4.2-1H290V258h20.1v2.1h-0.7c-1.6,0.1-2.7,0.4-3.1,0.9c-0.4,0.6-0.7,1.2-0.7,1.7
		c0,0.4,0.2,1.2,1.3,2.8l10.3,15.2c0,0,0,0,0.1,0l9-13.6c1.7-2.6,2.1-3.9,2.1-4.6c0-0.6-0.1-1.1-0.4-1.4s-0.6-0.6-0.9-0.7
		c-0.4-0.1-0.8-0.2-1.2-0.3l-0.6-0.1v-2H340v2.1h-0.7c-1.4,0-2.7,0.4-3.8,1c-1.2,0.7-2.1,1.4-2.7,2.1c-0.7,0.7-1.4,1.7-2.2,2.7
		l-12,18.1l0,0v20.8c0,1.7,0.5,2.8,1.4,3.7c1,0.8,2.2,1.3,3.6,1.3h0.7L324.4,311.8L324.4,311.8z"/>
	<path class="st0" d="M354.4,287h14.5c0,0,0,0,0-0.1l-7.5-21.8h-0.1L354.4,287C354.3,287,354.3,287,354.4,287z M388.7,311.8h-18.6
		v-2.1h0.7c1.7,0,2.9-0.2,3.8-0.5c0.2-0.1,0.9-0.3,0.9-2c0-0.7-0.2-1.7-0.6-3c-0.1-0.2-0.2-0.3-0.2-0.5l-4.5-13.3l0,0h-17l0,0
		l-4,12.3c-0.5,1.7-0.8,3-0.8,4c0,1.2,0.3,2,0.8,2.3c0.6,0.4,1.5,0.6,2.7,0.6h0.7v2.1h-13.8v-2l0.7-0.1c1.6-0.1,2.8-0.7,3.7-1.8
		c1-1.1,1.9-2.8,2.6-5.1l15-45.6l0,0h4.8l0,0l15.9,45.4c0.8,2.2,1.6,3.9,2.3,4.9c0.8,1.1,1.4,1.6,1.8,1.7c0.6,0.2,1.4,0.4,2.4,0.5
		l0.7,0.1V311.8z"/>
	<path class="st0" d="M421.4,313l-17-44.5h-0.1l-1.7,33.8c-0.1,1.9,0,3.5,0.3,4.5s0.7,1.6,1.3,2c0.7,0.4,1.7,0.8,3.1,1l0.6,0.1v1.9
		h-14.7v-2h0.7c1.5,0,2.6-0.4,3.4-1c0.8-0.7,1.3-1.5,1.5-2.6c0.3-1.1,0.5-2.7,0.6-4.7l2.1-38.3c0,0-0.1-0.1-0.3-0.3
		c-0.3-0.3-0.6-0.7-1-1s-0.7-0.6-1.1-0.8c-0.7-0.5-1.4-0.7-1.8-0.8c-0.6-0.1-1.4-0.2-2.4-0.2h-0.7v-2h13.4l0,0l15.7,41.4h0.1
		l15.9-41.4l0,0h12.2v2l-0.7,0.1c-1,0.1-1.7,0.2-2.1,0.3c-0.3,0.1-0.7,0.3-1.1,0.6c-0.9,0.7-1.2,1.1-1.3,1.4c-0.1,0.3-0.3,1-0.3,2.6
		v0.2v0.2v0.2l1.8,38.9c0,1.5,0.4,2.8,1.1,3.9c0.6,1,2,1.4,4.2,1.5h0.7v2h-18.5v-2l0.7-0.1c2-0.2,3.4-0.8,4-1.6
		c0.7-0.9,1-2.4,0.9-4.4l-1.7-36.9c0,0-0.1-0.1-0.1,0L421.4,313L421.4,313z"/>
</g>
<g>
	<path class="st0" d="M147.5,428.9h-0.9c-0.5-4.4-3.6-6.2-6.6-6.2c-3.1,0-5.4,1.7-5.4,4.5c0,5.5,7.6,7,11.9,11.3
		c2.1,2.1,2.6,4,2.6,6c0,4.7-3.8,8.5-8.5,8.5c-3.2,0-5.9-1.6-6.9-1.6c-0.5,0-0.9,0.4-1.1,1.1h-0.9v-8.1h0.9c0.1,5.5,4.6,7.4,7.2,7.4
		c3.6,0,6-2.1,6-5.3c0-5.2-8.1-7.6-11.4-10.9c-1.8-1.8-2.6-3.9-2.6-6.3c0-4.6,3.3-7.7,8.2-7.7c3.2,0,4.7,1.1,5.9,1.1
		c0.5,0,0.6-0.1,0.8-0.8h0.8V428.9z"/>
	<path class="st0" d="M159.5,446.6c0,3.7,0.9,4.8,3.4,4.8v0.9h-10.8v-0.9c2.3,0,3.4-0.7,3.4-4.8v-18.8c0-3.9-1-4.7-3.4-4.7v-0.9
		h12.3c6.7,0,10,3.9,10,7.8c0,3.3-1.8,6.1-6.2,7.4c5.6,3.6,7.5,13.5,12.4,13.9v0.9h-6.1c-5.6-6.8-7.2-13.9-12.7-13.9h-2.3V446.6z
		 M159.5,437.1h3.7c5.1,0,7.1-3.5,7.1-6.9c0-4-3-6.8-7.6-6.8h-3.2V437.1z"/>
	<path class="st0" d="M191.1,446.6c0,3.7,0.9,4.8,3.4,4.8v0.9h-10.8v-0.9c2.5,0,3.4-0.9,3.4-4.8v-18.7c0-3.8-0.8-4.8-3.4-4.8v-0.9
		h10.8v0.9c-2.5,0-3.4,1.2-3.4,4.8V446.6z"/>
	<path class="st0" d="M235.3,452.2h-21.7v-0.9c2.4,0,3.4-1.3,3.4-5v-18.8c0-3.5-1-4.3-3.4-4.3v-0.9h10.7v0.9c-2.5,0-3.3,1.5-3.3,4.7
		v20c0,2.4,0.9,2.9,3.4,2.9h6c3.6,0,4.6-0.8,5.9-5.1h0.9L235.3,452.2z"/>
	<path class="st0" d="M258,440.1h-9.7l-2,6c-1,2.9-1.5,5.2,1.6,5.2v0.9h-7.7v-0.9c2.8-0.4,3.5-1.9,4.4-4.7l8.3-24.7h3.1l8.7,25.8
		c0.9,2.8,1.6,3.6,4.3,3.6v0.9h-10.6v-0.9c2,0,3-0.9,2.4-2.9L258,440.1z M253.2,425.6h-0.1l-4.2,12.7h8.4L253.2,425.6z"/>
	<path class="st0" d="M300,452.2h-0.9l-21.1-26h-0.1v21c0,3,1.2,4.1,3.9,4.1v0.9h-9.1v-0.9c2.5,0,3.7-0.8,3.7-5.1v-17.5
		c0-3.3-0.9-5.2-4.4-5.5v-0.9h7.7l18.7,23.3h0.1v-17.5c0-3.9-1-4.9-3.7-4.9v-0.9h9v0.9c-2.9,0-3.9,1.2-3.9,4.7v24.3H300z"/>
	<path class="st0" d="M310.3,427.9c0-3.9-0.9-4.8-3.4-4.8v-0.9h10.7v0.9c-2.4,0-3.3,1-3.3,4.8v9l9.8-9.6c1-1,1.6-1.7,1.6-2.5
		c0-0.9-0.5-1.4-1.9-1.7v-0.9h11.3v0.9h-1.5c-1.8,0-4.3,1.3-6.3,3.3l-9.3,9.2l12.4,12.6c2.6,2.6,3.3,3,5.6,3.1v0.9h-7.1l-14.5-14.7
		v9c0,3.9,1,4.8,3.3,4.8v0.9H307v-0.9c2.3,0,3.4-0.8,3.4-4.8v-18.6H310.3z"/>
	<path class="st0" d="M356.8,440.1h-9.7l-2,6c-1,2.9-1.5,5.2,1.6,5.2v0.9H339v-0.9c2.8-0.4,3.5-1.9,4.4-4.7l8.3-24.7h3.1l8.7,25.8
		c0.9,2.8,1.6,3.6,4.3,3.6v0.9h-10.6v-0.9c2,0,3-0.9,2.4-2.9L356.8,440.1z M351.9,425.6h-0.1l-4.2,12.7h8.4L351.9,425.6z"/>
</g>
</svg>
