<?xml version="1.0" encoding="utf-8"?>
<!-- Generator: Adobe Illustrator 25.0.0, SVG Export Plug-In . SVG Version: 6.00 Build 0)  -->
<svg version="1.1" id="Layer_1" xmlns="http://www.w3.org/2000/svg" xmlns:xlink="http://www.w3.org/1999/xlink" x="0px" y="0px"
	 viewBox="0 0 499.3 453.5" style="enable-background:new 0 0 499.3 453.5;" xml:space="preserve">
<style type="text/css">
	.st0{fill:#FFFFFF;}
	.st1{fill:#FF5000;}
</style>
<g>
	<path class="st0" d="M101.6,340.6v1.7c-4,0-7.2,3.5-9.8,10.5l-15.9,42.5h-1.5l-16.7-43.7c-1.6-4-2.9-6.6-4-7.6
		c-1.1-1.1-2.8-1.6-4.9-1.7v-1.6h19.6v1.6c-3.1,0-4.7,1.2-4.7,3.6c0,0.8,0.2,1.7,0.6,2.7l13.2,34.8L90,349.8
		c0.5-1.4,0.8-2.7,0.8-3.7c0-2.5-1.6-3.8-4.8-3.8v-1.6L101.6,340.6L101.6,340.6z"/>
	<path class="st0" d="M124.8,340.6v1.6c-2.3,0-3.9,0.6-4.8,1.9s-1.3,3.5-1.3,6.7v33.6c0,3.2,0.4,5.5,1.3,6.7s2.5,1.9,4.8,1.9v1.6
		h-19.4V393c2.4,0,4-0.6,4.8-1.8c0.9-1.2,1.3-3.5,1.3-6.7v-33.6c0-3.3-0.4-5.6-1.3-6.8c-0.8-1.2-2.5-1.8-4.8-1.8v-1.6h19.4V340.6z"
		/>
	<path class="st0" d="M172.2,382.8h1.6l-3.3,11.8h-39.1V393c2.2,0,3.8-0.7,4.7-2.1c0.9-1.4,1.4-3.7,1.4-6.9v-34
		c0-2.9-0.4-4.9-1.3-6.1c-0.9-1.1-2.5-1.7-4.8-1.7v-1.6h19.3v1.6c-2.1,0-3.7,0.7-4.6,2c-0.9,1.3-1.4,3.5-1.4,6.5v36
		c0,2,0.4,3.4,1.3,4.1c0.8,0.7,2.5,1.1,4.8,1.1h10.7c3.3,0,5.6-0.6,6.9-1.7C169.8,389.1,171,386.6,172.2,382.8z"/>
	<path class="st0" d="M220.3,383.2v-32.4c0-3.2-0.4-5.4-1.3-6.6c-0.8-1.2-2.3-1.9-4.5-2v-1.6h19v1.6c-2.3,0-3.9,0.6-4.8,1.9
		c-0.9,1.3-1.3,3.5-1.3,6.7v33.6c0,3.2,0.4,5.4,1.3,6.6c0.9,1.3,2.5,1.9,4.8,1.9v1.6h-13.2V387c-5.1,5.9-11,8.9-18,8.9
		c-5.7,0-10.2-1.7-13.4-5.1c-3.3-3.4-4.9-7.9-4.9-13.5v-26.5c0-3.2-0.4-5.5-1.3-6.7c-0.8-1.3-2.5-1.9-4.9-1.9v-1.6h19.5v1.6
		c-2.4,0-4.1,0.6-4.9,1.8c-0.9,1.2-1.3,3.4-1.3,6.7V378c0,4.4,1.2,7.9,3.6,10.4c2.4,2.5,5.8,3.8,10.1,3.8
		C211.3,392.2,216.5,389.2,220.3,383.2z"/>
	<path class="st0" d="M279.2,369.6h-4.4v14.8c0,3.2,0.5,5.4,1.4,6.7c0.9,1.3,2.5,1.9,4.8,1.9v1.6h-19.4V393c2.4,0,4-0.6,4.8-1.9
		c0.8-1.3,1.3-3.5,1.3-6.7v-33.8c0-3.2-0.4-5.4-1.2-6.6c-0.8-1.2-2.5-1.8-4.9-1.8v-1.6h22.1c5.5,0,9.8,1.3,13.1,4
		c3.3,2.6,4.9,6,4.9,10.1c0,6.6-3.7,11-11.1,13.2c1.6,1,3.2,2.5,4.8,4.3s3.6,4.9,6.1,9.1c2.8,4.7,5,7.8,6.6,9.2
		c1.6,1.5,3.2,2.3,4.9,2.4v1.6h-11c-2.3-2.7-5-6.7-8.2-12c-3.4-5.6-6.1-9.1-8.1-10.6C283.7,370.4,281.6,369.6,279.2,369.6z
		 M280.5,342.7h-5.7v24.6h6.6c4,0,7.1-1.1,9.3-3.4c2.2-2.3,3.4-5.3,3.4-9c0-3.6-1.2-6.6-3.7-8.8
		C287.9,343.8,284.6,342.7,280.5,342.7z"/>
	<path class="st0" d="M351.7,361h1.6v13.1h-1.6c-0.6-2.3-1.3-3.7-2.1-4.3c-0.8-0.6-2.6-0.9-5.4-0.9h-13.4v19.3
		c0,1.3,0.3,2.3,0.9,2.8c0.6,0.6,1.6,0.8,3.1,0.8h9.4c3.4,0,5.7-0.2,7-0.6s2.4-1.1,3.3-2c0.9-1,1.8-2.6,2.8-4.8h1.6l-2.5,10.1h-38.8
		V393c2.4,0,4-0.6,4.9-1.9c0.8-1.2,1.2-3.4,1.2-6.6v-33.7c0-3.3-0.4-5.5-1.3-6.8c-0.9-1.2-2.5-1.8-4.8-1.8v-1.6h38.7v9h-1
		c-0.6-2.6-1.3-4.3-2.4-5.1c-1-0.8-3.3-1.3-6.7-1.3h-15.5v23.1h15.1c2.1,0,3.5-0.4,4.2-1.1C350.8,364.5,351.3,363.1,351.7,361z"/>
	<path class="st0" d="M399.6,361h1.6v13.1h-1.6c-0.6-2.3-1.3-3.7-2.1-4.3c-0.8-0.6-2.6-0.9-5.4-0.9h-13.4v19.3
		c0,1.3,0.3,2.3,0.9,2.8c0.6,0.6,1.6,0.8,3.1,0.8h9.4c3.4,0,5.7-0.2,7-0.6s2.4-1.1,3.3-2c0.9-1,1.8-2.6,2.8-4.8h1.6l-2.5,10.1h-38.8
		V393c2.4,0,4-0.6,4.9-1.9c0.8-1.2,1.2-3.4,1.2-6.6v-33.7c0-3.3-0.4-5.5-1.3-6.8c-0.9-1.2-2.5-1.8-4.8-1.8v-1.6h38.8v9h-1
		c-0.6-2.6-1.3-4.3-2.4-5.1c-1-0.8-3.3-1.3-6.7-1.3h-15.5v23.1h15.1c2.1,0,3.5-0.4,4.2-1.1C398.8,364.5,399.3,363.1,399.6,361z"/>
	<path class="st0" d="M441,368.5h-14.2v15.9c0,3.2,0.4,5.5,1.3,6.7s2.5,1.9,4.8,1.9v1.6h-19.4V393c2.3,0,3.9-0.6,4.8-1.9
		c0.9-1.2,1.3-3.5,1.3-6.7v-33.6c0-3.2-0.4-5.5-1.3-6.7s-2.5-1.9-4.8-1.9v-1.6h37v9.6h-1.2c-0.6-2.8-1.3-4.7-2.3-5.6
		s-3.1-1.3-6.5-1.3h-13.7v22.6h14.1c1.9,0,3.3-0.5,4.2-1.4c0.9-1,1.5-2.6,1.8-4.9h1.5v15.2h-1.5C446.7,370.5,444.7,368.5,441,368.5z
		"/>
</g>
<g>
	<path class="st0" d="M343.4,81.8c-5.8-2.1-12.3-0.5-18.1,0.7c-5.7,1.2-11.7,2.8-17.6,1.4c-5.5-1.3-9.9-6.8-10.1-12.5
		c-0.2-5.5,2.7-10.5,7.3-13.4c0.9-0.5,2.9-1.7,4.3-2c0,0-3.7,2.7-3.8,8c-0.1,2.9,1.7,6,4.2,7.4c0.3,0.2,0.6,0.3,0.9,0.4
		c6.1,3.2,12.2-1.7,15.3-7.2c1-1.8,1.9-3.7,2.5-5.6c1.9-5.1,2.7-10.5,1.9-16c-1.7-11.9-13.4-20.7-25.6-16.2
		c-5.8,2.1-9.7,7.5-13.4,12.2c-3.6,4.6-7.2,9.6-12.6,12.3c-5.1,2.5-12,1.2-15.8-3.1c-3.7-4.1-4.7-9.8-3-15c0.3-1,1.1-3.1,2-4.3
		c0,0-1.2,4.4,2.2,8.6c1.8,2.2,5.2,3.5,8,3c0.3-0.1,0.7-0.1,1-0.2c6.7-1.5,8.2-9.2,7-15.4c-0.4-2-1-4-1.7-5.9
		c-1.9-5.1-4.7-9.8-8.8-13.5c-8.9-8-23.5-7.2-30,4.1c-3.1,5.3-2.6,12-2.4,17.9c0.2,5.8,0.7,12-1.7,17.5c-2.2,5.2-8.4,8.6-14,7.8
		c-5.5-0.8-9.9-4.5-11.9-9.5c-0.4-0.9-1.1-3.1-1.2-4.6c0,0,2,4.1,7.2,5.2c2.8,0.6,6.2-0.7,8-2.8c0.2-0.3,0.4-0.5,0.6-0.8
		c4.2-5.5,0.4-12.3-4.5-16.3c-1.6-1.3-3.3-2.5-5.1-3.5c-4.7-2.7-9.9-4.5-15.4-4.7c-12-0.4-22.7,9.6-20.4,22.4
		c1.1,6.1,5.7,10.9,9.7,15.3c3.9,4.3,8.2,8.8,10,14.5c1.6,5.4-0.9,12-5.7,15c-4.7,2.9-10.4,2.9-15.3,0.4c-0.9-0.5-2.9-1.6-3.9-2.7
		c0,0,4.2,1.9,8.8-0.6c2.5-1.4,4.3-4.5,4.3-7.3c0-0.3,0-0.7-0.1-1c-0.3-6.9-7.6-9.7-13.9-9.6c-2.1,0-4.1,0.3-6.1,0.6
		c-5.4,1-10.5,2.9-14.8,6.3c-9.7,7.1-11.4,21.7-1.4,30c4.7,3.9,11.4,4.7,17.2,5.5c6.4,0.9,13.3,1.5,18.6,5.9
		c2.7,2.3,4.7,7.2,4.4,10.7c-0.7,7-5.7,12-12.2,13.4c-1,0.2-3.3,0.6-4.8,0.4c0,0,4.4-1.2,6.3-6.2c1-2.7,0.4-6.2-1.4-8.4
		c-0.2-0.3-0.4-0.5-0.7-0.7c-4.7-5.1-12.1-2.5-16.8,1.6c-1.5,1.3-3,2.8-4.3,4.4c-3.5,4.2-6.1,9-7.3,14.3c-2.5,11.7,5.5,24,18.6,24
		c6.1,0,11.7-3.7,16.7-6.8c5.5-3.4,11.2-7.4,18-7.4c3.5,0,8.2,2.4,10.2,5.3c4,5.8,3.4,12.9-0.7,18.2c-0.6,0.8-2.1,2.5-3.4,3.4
		c0,0,2.6-3.8,0.9-8.8c-0.9-2.7-3.7-5-6.5-5.5c-0.3-0.1-0.7-0.1-1-0.1c-6.8-0.9-10.9,5.8-11.9,12c-0.3,2-0.5,4.1-0.5,6.2
		c0,5.5,1.1,10.8,3.7,15.7c5.6,10.6,19.6,14.8,29.6,6.4c4.7-3.9,6.6-10.4,8.4-16c1.6-5,3.1-10.3,6.4-14.5c4.1-5.2,12.4-7,18-3.4
		c4.3,2.7,6.8,7.4,7,12.5c0,1,0,3.3-0.4,4.8c0,0-0.4-4.6-5-7.3c-2.4-1.5-6-1.5-8.5-0.1c-0.3,0.2-0.6,0.4-0.9,0.6
		c-5.8,3.7-4.6,11.4-1.3,16.8c1.1,1.8,2.3,3.4,3.6,5c3.5,4.2,7.8,7.6,12.9,9.6c11.1,4.5,24.6-1.3,26.8-14.1
		c1.1-6.1-1.6-12.2-3.8-17.7c-1.9-4.8-4.2-9.9-4.4-15.1c-0.3-6.6,5-13.3,11.6-14.2c5-0.7,10,1.3,13.4,5.1c0.7,0.8,2.1,2.5,2.7,3.9
		c0,0-3.3-3.2-8.5-2.4c-2.8,0.4-5.6,2.7-6.6,5.4c-1.1,3.1-0.5,6.7,1.8,9.1c1.9,2,4.6,3.7,7.5,3.7c2.4,0,5.1-0.9,6.8-2.6
		c0.9-1,1.9-2.3,2.3-3.6c2.2-6.6-2.2-13.3-7.2-17.3c-1.5-1.2-3.1-2.3-4.8-3.1c-4.1-2.1-8.8-3-13.4-2.4c-3.7,0.5-7.4,2-10.2,4.4
		c-11.9,10.4-3.8,24.1,0.6,35.8c2.3,6.1,2.1,12.9-3,17.7c-8.7,8.1-20.7,1.7-25.4-7.5c1.6,0.9,3.4,1.3,5.1,1.1
		c1.3-0.1,2.9-0.6,4.1-1.3c5.9-3.6,6.9-11.6,5.6-17.9c-0.4-1.8-0.9-3.8-1.6-5.5c-1.8-4.3-4.8-7.9-8.7-10.4c-3.1-2-6.9-3.3-10.7-3.2
		c-15.8,0.3-18.4,16.1-22.5,27.8c-2.2,6.2-6.7,11.3-13.7,11.6c-11.9,0.6-17-12-14.6-22.1c0.7,1.7,1.8,3.2,3.2,4.2
		c1.1,0.7,2.6,1.4,3.9,1.6c6.9,1,12.7-4.5,15.8-10.1c0.9-1.6,1.7-3.5,2.3-5.3c1.4-4.4,1.5-9.2,0-13.6c-1.2-3.5-3.2-7-6.1-9.3
		c-12.3-10-24.4,0.5-35.1,6.8c-5.6,3.4-12.3,4.3-17.9,0.1c-9.5-7.1-5.3-20.1,3-26.3c-0.6,1.7-0.7,3.6-0.2,5.3c0.4,1.3,1.1,2.8,2,3.8
		c4.6,5.2,12.6,4.8,18.6,2.5c1.7-0.7,3.5-1.5,5.1-2.6c3.9-2.5,7-6.1,8.7-10.4c1.4-3.4,2-7.4,1.3-11.1c-3-15.5-19-15.3-31.3-17.3
		c-6.5-1.1-12.2-4.6-13.8-11.4c-2.7-11.6,8.8-18.8,19.2-18.2c-1.5,0.9-2.8,2.3-3.5,3.9c-0.5,1.2-0.9,2.8-0.9,4.2
		c0.2,6.9,6.6,11.8,12.7,13.8c1.8,0.6,3.7,1.1,5.6,1.3c4.6,0.6,9.3-0.1,13.4-2.3c3.3-1.8,6.3-4.4,8.1-7.6c7.7-13.8-4.7-24-12.8-33.4
		c-4.3-5-6.4-11.4-3.2-17.7c5.4-10.6,18.9-8.7,26.4-1.6c-1.8-0.3-3.6-0.1-5.2,0.7c-1.2,0.6-2.5,1.6-3.4,2.6
		c-4.3,5.4-2.5,13.3,0.8,18.7c1,1.6,2.1,3.2,3.4,4.6c3.2,3.4,7.2,5.8,11.7,6.8c3.6,0.8,7.6,0.7,11.1-0.7
		c14.8-5.7,11.8-21.4,11.6-33.8c-0.1-6.6,2.4-12.8,8.9-15.6c11-4.7,20,5.5,21.3,15.7c-1.2-1.3-2.7-2.4-4.4-2.8
		c-1.3-0.3-3-0.4-4.3-0.2C261.6,22.5,258,29.7,257,36c-0.3,1.9-0.4,3.8-0.3,5.7c0.3,4.6,1.8,9.1,4.6,12.8c2.3,2.9,5.4,5.4,8.9,6.6
		c15,5.1,22.8-8.8,30.6-18.4c4.2-5.1,10.1-8.3,16.8-6.3c11.4,3.5,11.8,17.1,6.2,25.8c0-1.8-0.6-3.6-1.6-5c-0.8-1.1-2-2.2-3.2-2.9
		c-6.1-3.3-13.5-0.1-18.3,4.1c-1.4,1.2-2.8,2.7-3.9,4.2c-2.8,3.7-4.5,8.1-4.6,12.7c-0.1,3.7,0.6,7.6,2.6,10.8
		c8.2,13.6,23.1,7.9,35.3,5.6c6.4-1.2,13.1,0.1,16.9,6c6.5,10-2,20.8-12,23.8c0.3-0.4,0.5-0.8,0.7-1.2c0.7-1.5,1.1-3.2,1-4.8
		c-0.1-1.7-0.8-3.2-1.9-4.6c-1.6-2.5-4.5-3.5-7.3-3.5c-5.4-0.1-10.7,5.6-9.4,11c1.9,7.9,10.5,8.3,16.9,5.9c1.9-0.7,3.8-1.6,5.6-2.7
		c4.7-2.7,8.8-6.3,11.7-11C359,100.5,355.7,86.2,343.4,81.8"/>
	<path class="st1" d="M337.7,148.9c-3.1-5.3-9.1-8.3-14.3-11.1c-5.2-2.7-10.7-5.4-14.3-10.2c-3.4-4.5-3.2-11.6,0.3-16.1
		c2.7-3.4,6.9-5.6,11.2-5.7c1.8,0,3.6,0.2,5.3,0.6c0.5,0.1,1.4,0.4,1.6,0.5c-5.4,0-9.8,4.2-9.8,9.3c0,5.1,4.4,9.3,9.8,9.3
		s9.8-4.2,9.8-9.3c0-0.4,0-0.8-0.1-1.1l0,0c0-0.3-0.1-0.6-0.1-1l-0.1-0.4l-0.1-0.3c0-0.2-0.1-0.5-0.2-0.8c-0.9-3.1-3.4-5.3-6.2-6.6
		c-1.5-0.7-3.1-1.4-4.7-1.7c-6.4-1.4-13.8-0.3-19.2,3.5c-1.4,1-2.8,2.2-3.9,3.4c-2.5,2.8-4.4,6.3-5,9.9c-2.5,15.6,12.6,20.9,23.4,27
		c2.7,1.5,5.1,3.6,6.9,6.1c1.1,1.7,2,3.5,2.2,5.5c0.4,3.1-0.1,6.2-1.5,8.9c-2,3.8-6,6.1-10.1,6.9c-2.2,0.4-4.6,0.5-6.8,0.2
		c-1.9-0.2-3.9-0.7-5.7-1.5c4.2-1.1,7.3-4.7,7.3-9.1c0-5.2-4.4-9.4-9.8-9.4s-9.8,4.2-9.8,9.4c0,2.9,1.5,5.4,3.5,7.3
		c2.3,2.2,5.3,3.5,8.3,4.4c4,1.2,8.3,1.8,12.5,1.6c1.3-0.1,2.6-0.2,3.8-0.4c1.4-0.2,2.8-0.6,4.1-1
		C337.6,173.2,344.2,160.2,337.7,148.9"/>
</g>
<g>
	<path class="st0" d="M60.5,313.5c-2.2,0-4.2-0.2-5.9-0.7s-3.4-1.1-5.2-2c-0.8-0.3-1.1-0.3-1.1-0.3c-0.3,0-0.3,0.1-0.3,0.1
		c-0.1,0.2-0.3,0.8-0.6,2.2l-0.1,0.6h-2v-14.6h1.9l0.1,0.6c0.8,3.7,2.4,6.4,4.7,8.3s5.2,2.8,8.5,2.8c2.5,0,4.5-0.5,6-1.4
		s2.5-2,3-3.3c0.6-1.3,0.9-2.7,0.9-4c0-2.7-0.8-5-2.5-6.7c-1.7-1.8-4.4-3.7-8-5.6c-2.6-1.4-4.4-2.5-5.6-3.2c-1.3-0.8-2.5-1.8-3.8-3
		c-1.2-1.3-2.2-2.9-3-4.6c-0.8-1.7-1.2-3.7-1.2-6c0-2.6,0.7-5.1,2.1-7.5c1.4-2.4,3.3-4.3,5.8-5.7c4.4-2.5,10.1-2.8,15.8-0.9
		c0.4,0.2,0.8,0.2,1.3,0.2c0.2,0,0.6,0,0.9-1l0.1-0.6h2V270h-2l-0.1-0.7c-0.3-2.4-1.4-4.5-3.1-6.2c-1.8-1.8-4-2.6-6.9-2.6
		c-1.9,0-3.6,0.4-5,1.3c-1.4,0.9-2.6,2.1-3.4,3.6s-1.2,3.3-1.2,5.3c0,1.5,0.2,2.9,0.7,4.1s1.2,2.2,2.1,3.1c1,0.9,2.1,1.8,3.4,2.6
		c1.3,0.8,3.2,1.9,5.4,3.2c3.9,2.1,7,4.3,9.1,6.4c2.3,2.2,3.4,5.3,3.4,9.2c0,2.3-0.6,4.6-1.8,6.8c-1.2,2.2-3.1,4-5.5,5.4
		C67.1,312.8,64,313.5,60.5,313.5"/>
	<path class="st0" d="M109,313.7c-3.8,0-7.4-0.9-10.4-2.8c-3.1-1.8-5.4-4.2-6.8-6.9c-1-1.9-1.7-4-2-6c-0.3-2-0.4-4.2-0.4-6.3v-26.1
		c0-1.4-0.3-2.6-0.8-3.6c-0.5-0.8-1.9-1.4-3.9-1.5l-0.7-0.1v-2h18v2l-0.7,0.1c-2.2,0.3-3.5,0.8-4.1,1.7c-0.6,1-0.9,2.1-0.9,3.4v25.7
		c0,5.1,0.5,8.9,1.5,11.3c1.1,2.5,2.7,4.5,4.8,5.9s4.6,2.1,7.3,2.1c1.1,0,2.5-0.2,4.1-0.6s3.1-1.1,4.4-2c4.1-2.8,6.2-7.4,6.2-13.7
		v-28.6c0-1.3-0.3-2.5-0.9-3.5c-0.5-0.9-2-1.4-4.1-1.6l-0.7-0.1v-2h18.4v2.1h-0.7c-2.1,0.1-3.5,0.7-4,1.6c-0.6,1.1-0.9,2.2-0.9,3.4
		v39.7c0,1.2,0.2,2.2,0.6,2.9c0.4,0.7,0.9,1.1,1.6,1.4c0.8,0.3,1.7,0.6,2.9,0.8l0.6,0.1v1.9h-12.6l0,0v-6.8
		c-1.5,2.5-3.5,4.4-5.9,5.7C115.7,312.9,112.4,313.7,109,313.7"/>
	<path class="st0" d="M195,313.7h-1.4l-0.2-0.2l-39-43.5h-0.1v30.2c0,2.6,0.1,4.6,0.3,5.9c0.2,1.5,0.6,2.2,0.8,2.5
		c0.7,1,2.1,1.6,4,1.7h0.7v2h-14.6v-2h0.7c1.3-0.1,2.4-0.3,3-0.8c0.7-0.4,1.1-1.3,1.4-2.6c0.3-1.4,0.5-3.6,0.5-6.5v-33.9l-1.5-1.7
		c-1.5-1.7-2.6-2.7-3.5-3.2c-0.9-0.4-1.9-0.8-3.2-1l-0.6-0.1v-2h11l0,0l38.5,43.1h0.1v-31.8c0-2.5-0.1-4.4-0.3-5.6
		c-0.2-1.1-0.6-1.9-1.4-2.6c-0.7-0.6-1.9-1-3.6-1.1h-0.7v-2.1h14.6v2l-0.6,0.1c-1.3,0.2-2.2,0.4-2.9,0.7c-0.6,0.3-1.1,0.8-1.4,1.6
		c-0.4,0.9-0.6,2.3-0.6,4.1L195,313.7L195,313.7z"/>
	<path class="st0" d="M242.5,313.5c-2.2,0-4.2-0.2-5.9-0.7s-3.4-1.1-5.2-2c-0.8-0.3-1.1-0.3-1.1-0.3c-0.3,0-0.3,0.1-0.3,0.1
		c-0.1,0.2-0.3,0.8-0.6,2.2l-0.1,0.6h-1.9v-14.6h1.9l0.1,0.6c0.8,3.7,2.4,6.4,4.7,8.3s5.2,2.8,8.5,2.8c2.5,0,4.5-0.5,6-1.4
		s2.5-2,3-3.3c0.6-1.3,0.9-2.7,0.9-4c0-2.7-0.8-5-2.5-6.7c-1.7-1.8-4.4-3.7-8-5.6c-2.6-1.4-4.4-2.5-5.6-3.2c-1.3-0.8-2.5-1.8-3.8-3
		c-1.3-1.3-2.4-2.8-3.1-4.5c-0.8-1.7-1.2-3.7-1.2-6c0-2.6,0.7-5.1,2.1-7.5c1.4-2.4,3.3-4.3,5.8-5.7c4.4-2.5,10.1-2.8,15.8-0.9
		c0.4,0.2,0.8,0.2,1.3,0.2c0.2,0,0.6,0,0.9-1l0.1-0.6h1.9V270h-2l-0.1-0.7c-0.3-2.4-1.4-4.5-3.1-6.2c-1.7-1.8-4.1-2.6-6.9-2.6
		c-1.9,0-3.5,0.4-5,1.3c-1.4,0.9-2.6,2.1-3.4,3.6c-0.8,1.5-1.2,3.3-1.2,5.3c0,1.5,0.2,2.9,0.7,4.1s1.2,2.2,2.1,3.1
		c0.9,0.9,2.1,1.8,3.4,2.6c1.3,0.8,3.2,1.9,5.4,3.2c3.9,2.1,6.9,4.3,9.1,6.4c2.3,2.2,3.4,5.3,3.4,9.2c0,2.4-0.6,4.6-1.8,6.8
		c-1.2,2.2-3.1,4-5.5,5.4C249.1,312.8,246.1,313.5,242.5,313.5"/>
	<path class="st0" d="M284.2,312.3h-18.1v-2.1h0.7c1.4,0,2.5-0.4,3.5-1.2c0.9-0.7,1.4-2,1.4-3.9v-39.8c0-1.9-0.4-3.2-1.3-3.9
		c-1-0.7-2.1-1.1-3.5-1.1h-0.7v-2.1h18.1v2.1h-0.7c-1.4,0-2.6,0.4-3.5,1.2c-0.9,0.7-1.4,2-1.4,3.8v39.8c0,1.8,0.5,3,1.5,3.8
		s2.2,1.2,3.4,1.2h0.7L284.2,312.3L284.2,312.3z"/>
	<path class="st0" d="M324.4,312.3h-18.1v-2h0.7c1.5,0,2.7-0.5,3.5-1.2c0.8-0.8,1.2-2,1.2-3.7v-19.9l0,0l-13.2-19.8
		c-1.4-2.1-2.6-3.4-3.6-4.1c-1-0.6-2.4-1-4.2-1H290v-2.1h20.1v2.1h-0.7c-1.6,0.1-2.7,0.4-3.1,0.9c-0.4,0.6-0.7,1.2-0.7,1.7
		c0,0.4,0.2,1.2,1.3,2.8l10.3,15.2c0,0,0,0,0.1,0l9-13.6c1.7-2.6,2.1-3.9,2.1-4.6c0-0.6-0.1-1.1-0.4-1.4s-0.6-0.6-0.9-0.7
		c-0.4-0.1-0.8-0.2-1.2-0.3l-0.6-0.1v-2h14.8v2.1h-0.7c-1.4,0-2.7,0.4-3.8,1c-1.2,0.7-2.1,1.4-2.7,2.1c-0.7,0.7-1.4,1.7-2.2,2.7
		l-12.1,18.2l0,0v20.8c0,1.7,0.5,2.8,1.4,3.7c1,0.8,2.2,1.3,3.6,1.3h0.7v1.9H324.4z"/>
	<path class="st0" d="M354.3,287.6h14.5c0,0,0,0,0-0.1l-7.5-21.8h-0.1L354.3,287.6L354.3,287.6z M388.6,312.3H370v-2.1h0.7
		c1.7,0,2.9-0.2,3.8-0.5c0.2-0.1,0.9-0.3,0.9-2c0-0.7-0.2-1.7-0.6-3c-0.1-0.2-0.2-0.3-0.2-0.5l-4.3-13.2l0,0h-17l0,0l-4,12.3
		c-0.5,1.7-0.8,3-0.8,4c0,1.2,0.3,2,0.8,2.3c0.6,0.4,1.5,0.6,2.7,0.6h0.7v2.1h-13.8v-2l0.7-0.1c1.6-0.1,2.8-0.7,3.7-1.8
		c1-1.1,1.9-2.8,2.6-5.1l15-45.6l0,0h4.8l0,0l15.9,45.4c0.8,2.2,1.6,3.9,2.3,4.9c0.8,1.1,1.4,1.6,1.8,1.7c0.6,0.2,1.4,0.4,2.4,0.5
		l0.7,0.1v2H388.6z"/>
	<path class="st0" d="M421.3,313.6l-17-44.5h-0.1l-1.7,33.8c-0.1,1.9,0,3.5,0.3,4.5s0.7,1.6,1.3,2c0.7,0.4,1.7,0.8,3.1,1l0.6,0.1
		v1.9h-14.5v-2h0.7c1.5,0,2.6-0.4,3.4-1c0.8-0.7,1.3-1.5,1.5-2.6c0.3-1.1,0.5-2.7,0.6-4.7l2.1-38.3c0,0-0.1-0.1-0.3-0.3
		c-0.3-0.3-0.6-0.7-1-1s-0.7-0.6-1.1-0.8c-0.7-0.5-1.4-0.7-1.8-0.8c-0.6-0.1-1.4-0.2-2.4-0.2h-0.7v-2h13.4l0,0l15.7,41.4h0.1
		l15.9-41.4l0,0h12.2v2l-0.7,0.1c-1,0.1-1.7,0.2-2.1,0.3c-0.3,0.1-0.7,0.3-1.1,0.6c-0.9,0.7-1.2,1.1-1.3,1.4c-0.1,0.3-0.3,1-0.3,2.6
		v0.2v0.2v0.2l1.8,38.9c0,1.5,0.4,2.8,1.1,3.9c0.6,1,2,1.4,4.2,1.5h0.7v2h-18.5v-2l0.7-0.1c2-0.2,3.4-0.8,4-1.6
		c0.7-0.9,1-2.4,0.9-4.4l-1.7-36.9c0,0-0.1-0.1-0.1,0L421.3,313.6C421.4,313.6,421.3,313.6,421.3,313.6z"/>
</g>
<g>
	<path class="st0" d="M172.1,423.7c-2.6,0.1-3.6,1.8-3.3,4.7l1.5,18.5c0.3,3.7,0.9,4.8,3.7,5.1v0.9h-10.8V452
		c2.5-0.4,3.3-1.5,3.1-4.5l-1.5-19.4h-0.1l-10.3,24.7h-0.8l-10-24.7h-0.1l-1.7,18.5c-0.3,3,0.8,4.8,3.9,5.4v0.9h-9.3V452
		c3-0.4,3.5-2.2,3.8-5.5l1.8-20.6c-1.1-1.3-2.2-1.8-3.9-2.1v-0.9h7.6l9.6,23.6l9.7-23.6h7.1L172.1,423.7L172.1,423.7z"/>
	<path class="st0" d="M195,440.7h-9.7l-2,6c-1,2.9-1.5,5.2,1.6,5.2v0.9h-7.7v-0.9c2.8-0.4,3.5-1.9,4.4-4.7l8.3-24.7h3.1l8.7,25.8
		c0.9,2.8,1.6,3.6,4.3,3.6v0.9h-10.6v-0.9c2,0,3-0.9,2.4-2.9L195,440.7z M190.2,426.1h-0.1l-4.2,12.7h8.4L190.2,426.1z"/>
	<path class="st0" d="M231.6,452.8h-21.7v-0.9c2.4,0,3.4-1.3,3.4-5v-18.8c0-3.5-1-4.3-3.4-4.3v-0.9h10.7v0.9c-2.5,0-3.3,1.5-3.3,4.7
		v20c0,2.4,0.9,2.9,3.4,2.9h6c3.6,0,4.6-0.8,5.9-5.1h0.9L231.6,452.8z"/>
	<path class="st0" d="M239.3,428.5c0-3.6-0.9-4.8-3.4-4.8v-0.9h13.9c11.5,0,16.9,7.7,16.9,15.5c0,7.5-4.8,14.5-16.5,14.5H236v-0.9
		c2.4,0,3.4-1,3.4-4.8L239.3,428.5L239.3,428.5z M243.3,446.1c0,4.7,1,5.5,3.8,5.5h3.1c7.4,0,11.9-5.1,11.9-13.3
		c0-7.2-3.6-14.4-13.1-14.4h-5.7V446.1z"/>
	<path class="st0" d="M278.5,447.2c0,3.7,0.9,4.8,3.4,4.8v0.9h-10.8V452c2.5,0,3.4-0.9,3.4-4.8v-18.7c0-3.8-0.8-4.8-3.4-4.8v-0.9
		h10.8v0.9c-2.5,0-3.4,1.2-3.4,4.8V447.2z"/>
	<path class="st0" d="M299.9,453.2h-0.8l-9.3-24.3c-1.4-3.7-2.1-5.1-5-5.2v-0.9h10.9v0.9c-2.1,0-3.2,1.2-2.3,3.5l7.3,19.4l7-18.7
		c0.9-2.6,0.5-4.2-2.2-4.2v-0.9h8.7v0.9c-2.2,0-3.9,1.7-5.4,5.8L299.9,453.2z"/>
	<path class="st0" d="M337.1,441.5h-0.9c-0.6-2.6-1.1-2.9-4.2-2.9h-7.4v10.7c0,1.5,0.5,2,2.2,2h5.2c4.4,0,5.5-0.2,7.3-4.1h0.9
		l-1.4,5.6h-21.6v-0.9c2.4,0,3.4-0.7,3.4-4.7v-18.7c0-3.7-0.8-4.8-3.4-4.8v-0.9h21.6v5h-0.6c-0.7-3.3-1.7-3.6-5-3.6h-8.6V437h8.4
		c2,0,2.8-0.4,3.2-2.9h0.9V441.5z"/>
	<path class="st0" d="M361.3,429.4h-0.9c-0.5-4.4-3.6-6.2-6.6-6.2c-3.1,0-5.4,1.7-5.4,4.5c0,5.5,7.6,7,11.9,11.3
		c2.1,2.1,2.6,4,2.6,6c0,4.7-3.8,8.5-8.5,8.5c-3.2,0-5.9-1.6-6.9-1.6c-0.5,0-0.9,0.4-1.1,1.1h-0.9v-8h0.9c0.1,5.5,4.6,7.4,7.2,7.4
		c3.6,0,6-2.1,6-5.3c0-5.2-8.1-7.6-11.4-10.9c-1.8-1.8-2.6-3.9-2.6-6.3c0-4.6,3.3-7.7,8.2-7.7c3.2,0,4.7,1.1,5.9,1.1
		c0.5,0,0.6-0.1,0.8-0.8h0.8V429.4z"/>
</g>
</svg>
