<svg xmlns="http://www.w3.org/2000/svg" width="30.528" height="25.521" viewBox="0 0 30.528 25.521">
  <g id="noun_Wallet_252297" transform="translate(-9.5 -16.1)">
    <path id="Path_48" data-name="Path 48" d="M71.707,76.8h-1.43a.376.376,0,0,0,0,.753h1.43a.377.377,0,0,0,.376-.376A.356.356,0,0,0,71.707,76.8Z" transform="translate(-37.664 -37.851)" fill="#ff5000"/>
    <path id="Path_49" data-name="Path 49" d="M41.407,76.8h-1.43a.376.376,0,0,0,0,.753h1.43a.377.377,0,0,0,.376-.376A.356.356,0,0,0,41.407,76.8Z" transform="translate(-18.77 -37.851)" fill="#ff5000"/>
    <path id="Path_50" data-name="Path 50" d="M26.307,76.8h-1.43a.376.376,0,1,0,0,.753h1.43a.377.377,0,0,0,.376-.376A.4.4,0,0,0,26.307,76.8Z" transform="translate(-9.354 -37.851)" fill="#ff5000"/>
    <path id="Path_51" data-name="Path 51" d="M18.707,76.8h-1.43a.376.376,0,1,0,0,.753h1.43a.376.376,0,1,0,0-.753Z" transform="translate(-4.614 -37.851)" fill="#ff5000"/>
    <path id="Path_52" data-name="Path 52" d="M33.807,76.8h-1.43a.376.376,0,1,0,0,.753h1.43a.377.377,0,0,0,.376-.376A.356.356,0,0,0,33.807,76.8Z" transform="translate(-14.031 -37.851)" fill="#ff5000"/>
    <path id="Path_53" data-name="Path 53" d="M56.607,76.8h-1.43a.376.376,0,1,0,0,.753h1.43a.377.377,0,0,0,.376-.376A.4.4,0,0,0,56.607,76.8Z" transform="translate(-28.248 -37.851)" fill="#ff5000"/>
    <path id="Path_54" data-name="Path 54" d="M64.107,76.8h-1.43a.376.376,0,0,0,0,.753h1.43a.377.377,0,0,0,.376-.376A.356.356,0,0,0,64.107,76.8Z" transform="translate(-32.925 -37.851)" fill="#ff5000"/>
    <path id="Path_55" data-name="Path 55" d="M49.007,76.8h-1.43a.376.376,0,1,0,0,.753h1.43a.376.376,0,0,0,0-.753Z" transform="translate(-23.509 -37.851)" fill="#ff5000"/>
    <path id="Path_56" data-name="Path 56" d="M78.629,74.8a.377.377,0,0,0-.376.376v.376h-.376a.376.376,0,0,0,0,.753h.753a.377.377,0,0,0,.376-.376v-.753A.439.439,0,0,0,78.629,74.8Z" transform="translate(-42.403 -36.604)" fill="#ff5000"/>
    <path id="Path_57" data-name="Path 57" d="M79.876,66.6a.377.377,0,0,0-.376.376V68.52a.377.377,0,0,0,.376.376.356.356,0,0,0,.376-.376V66.976A.439.439,0,0,0,79.876,66.6Z" transform="translate(-43.651 -31.491)" fill="#ff5000"/>
    <path id="Path_58" data-name="Path 58" d="M79.876,33.8a.377.377,0,0,0-.376.376V35.72a.377.377,0,0,0,.376.376.356.356,0,0,0,.376-.376V34.176A.439.439,0,0,0,79.876,33.8Z" transform="translate(-43.651 -11.037)" fill="#ff5000"/>
    <path id="Path_59" data-name="Path 59" d="M77.876,28.453h.376v.376a.377.377,0,0,0,.376.376.356.356,0,0,0,.376-.376v-.753a.377.377,0,0,0-.376-.376h-.753a.376.376,0,0,0,0,.753Z" transform="translate(-42.403 -7.234)" fill="#ff5000"/>
    <path id="Path_60" data-name="Path 60" d="M41.407,27.8h-1.43a.377.377,0,0,0-.376.376.356.356,0,0,0,.376.376h1.43a.377.377,0,0,0,.376-.376A.356.356,0,0,0,41.407,27.8Z" transform="translate(-18.77 -7.296)" fill="#ff5000"/>
    <path id="Path_61" data-name="Path 61" d="M70.276,28.453h1.43a.377.377,0,0,0,.376-.376.356.356,0,0,0-.376-.376h-1.43a.376.376,0,0,0,0,.753Z" transform="translate(-37.664 -7.234)" fill="#ff5000"/>
    <path id="Path_62" data-name="Path 62" d="M56.607,27.8h-1.43a.377.377,0,0,0-.376.376.356.356,0,0,0,.376.376h1.43a.376.376,0,0,0,0-.753Z" transform="translate(-28.248 -7.296)" fill="#ff5000"/>
    <path id="Path_63" data-name="Path 63" d="M49.007,27.8h-1.43a.377.377,0,0,0-.376.376.356.356,0,0,0,.376.376h1.43a.376.376,0,0,0,0-.753Z" transform="translate(-23.509 -7.296)" fill="#ff5000"/>
    <path id="Path_64" data-name="Path 64" d="M62.776,28.453h1.43a.377.377,0,0,0,.376-.376.356.356,0,0,0-.376-.376h-1.43a.377.377,0,0,0-.376.376A.356.356,0,0,0,62.776,28.453Z" transform="translate(-32.987 -7.234)" fill="#ff5000"/>
    <path id="Path_65" data-name="Path 65" d="M18.707,27.8h-1.43a.377.377,0,0,0-.376.376.356.356,0,0,0,.376.376h1.43a.376.376,0,1,0,0-.753Z" transform="translate(-4.614 -7.296)" fill="#ff5000"/>
    <path id="Path_66" data-name="Path 66" d="M26.307,27.8h-1.43a.377.377,0,0,0-.376.376.356.356,0,0,0,.376.376h1.43a.376.376,0,1,0,0-.753Z" transform="translate(-9.354 -7.296)" fill="#ff5000"/>
    <path id="Path_67" data-name="Path 67" d="M33.807,27.8h-1.43a.377.377,0,0,0-.376.376.356.356,0,0,0,.376.376h1.43a.377.377,0,0,0,.376-.376A.356.356,0,0,0,33.807,27.8Z" transform="translate(-14.031 -7.296)" fill="#ff5000"/>
    <path id="Path_68" data-name="Path 68" d="M38.522,26.64V18.923a.377.377,0,0,0-.376-.376H36.64l-.075-2.108a.348.348,0,0,0-.376-.339H11.081A1.591,1.591,0,0,0,9.5,17.681v22.1a1.847,1.847,0,0,0,1.844,1.844H38.183a.377.377,0,0,0,.376-.376V33.528a1.857,1.857,0,0,0,1.468-1.807V28.447A1.924,1.924,0,0,0,38.522,26.64ZM11.081,16.815H35.849l.075,1.732H11.081a.9.9,0,0,1-.866-.828h0A.861.861,0,0,1,11.081,16.815ZM37.807,40.906h-26.5a1.092,1.092,0,0,1-1.092-1.092v-.263a.391.391,0,0,0,.3.151h.753a.376.376,0,1,0,0-.753h-.753a.465.465,0,0,0-.3.151V21.069a.391.391,0,0,0,.3.151h.753a.377.377,0,0,0,.376-.376.356.356,0,0,0-.376-.376h-.753a.465.465,0,0,0-.3.151V19a1.675,1.675,0,0,0,.866.263H37.807V26.6H36.565v-.376a.377.377,0,0,0-.376-.376.356.356,0,0,0-.376.376V26.6h-4.1a2.346,2.346,0,0,0-2.334,2.334v2.3a2.346,2.346,0,0,0,2.334,2.334h4.1v.376a.377.377,0,0,0,.376.376.356.356,0,0,0,.376-.376v-.376h1.242v7.34Zm1.468-9.185a1.092,1.092,0,0,1-1.092,1.092H31.709a1.591,1.591,0,0,1-1.581-1.581v-2.3a1.591,1.591,0,0,1,1.581-1.581h6.437a1.092,1.092,0,0,1,1.092,1.092v3.275Z" fill="#ff5000"/>
    <path id="Path_69" data-name="Path 69" d="M68.633,47.8a2.033,2.033,0,1,0,2.033,2.033A2.048,2.048,0,0,0,68.633,47.8Zm0,3.35a1.317,1.317,0,1,1,1.317-1.317A1.309,1.309,0,0,1,68.633,51.15Z" transform="translate(-35.606 -19.767)" fill="#ff5000"/>
  </g>
</svg>
