<svg xmlns="http://www.w3.org/2000/svg" width="31.496" height="25.493" viewBox="0 0 31.496 25.493">
  <g id="noun_Boat_1425030" transform="translate(-16.9 -22.974)">
    <path id="Path_34" data-name="Path 34" d="M26,42.1H36.662a.452.452,0,0,0,.478-.478V23.465a.52.52,0,0,0-.335-.478.48.48,0,0,0-.526.239L25.622,41.387a.434.434,0,0,0,0,.478A.378.378,0,0,0,26,42.1ZM36.136,25.185V41.148h-9.32Z" transform="translate(-4.516)" fill="#ff5000"/>
    <path id="Path_35" data-name="Path 35" d="M51.778,46.693l9.989.191h0a.5.5,0,0,0,.43-.239.368.368,0,0,0-.048-.478L52.16,31.972a.469.469,0,0,0-.86.287V46.215A.479.479,0,0,0,51.778,46.693Zm.478-12.952L60.811,45.88l-8.555-.143Z" transform="translate(-17.959 -4.589)" fill="#ff5000"/>
    <path id="Path_36" data-name="Path 36" d="M48.4,69.814a.452.452,0,0,0-.478-.478,2.029,2.029,0,0,1-1.529-.717,2.943,2.943,0,0,0-4.588,0,1.947,1.947,0,0,1-1.529.717,1.689,1.689,0,0,1-.812-.191c3.871-1.243,4.732-3.68,4.779-3.823a.675.675,0,0,0-.048-.43.435.435,0,0,0-.382-.191H21.488a.59.59,0,0,0-.382.191.465.465,0,0,0-.048.43c.048.143.956,2.676,4.588,3.871a2.8,2.8,0,0,1-.621.1,2.029,2.029,0,0,1-1.529-.717,2.943,2.943,0,0,0-4.588,0,1.947,1.947,0,0,1-1.529.717.478.478,0,0,0,0,.956,2.875,2.875,0,0,0,2.294-1.1,1.947,1.947,0,0,1,1.529-.717,2.109,2.109,0,0,1,1.529.717,2.943,2.943,0,0,0,4.588,0,1.947,1.947,0,0,1,1.529-.717,2.109,2.109,0,0,1,1.529.717,2.943,2.943,0,0,0,4.588,0,1.947,1.947,0,0,1,1.529-.717,2.109,2.109,0,0,1,1.529.717,2.943,2.943,0,0,0,4.588,0,1.947,1.947,0,0,1,1.529-.717,2.109,2.109,0,0,1,1.529.717,2.875,2.875,0,0,0,2.294,1.1C48.2,70.292,48.4,70.1,48.4,69.814ZM34.153,68.619a1.947,1.947,0,0,1-1.529.717,2.109,2.109,0,0,1-1.529-.717,2.927,2.927,0,0,0-4.493-.1,7.081,7.081,0,0,1-4.349-2.82H42.995a7.33,7.33,0,0,1-4.4,2.772,3.04,3.04,0,0,0-2.151-.908A2.7,2.7,0,0,0,34.153,68.619Z" transform="translate(0 -21.784)" fill="#ff5000"/>
  </g>
</svg>
