<svg xmlns="http://www.w3.org/2000/svg" width="24.638" height="27.184" viewBox="0 0 24.638 27.184">
  <g id="Group_1692" data-name="Group 1692" transform="translate(0.15 0.15)">
    <g id="Group_1365" data-name="Group 1365">
      <path id="Path_22" data-name="Path 22" d="M5248.366,1337.645a4.357,4.357,0,0,0-4.352-4.352h-.794a8.986,8.986,0,0,0-3.564-2.7v-2.839a3.445,3.445,0,1,0-6.89,0v2.839a8.994,8.994,0,0,0-3.565,2.7h-.821a4.357,4.357,0,0,0-4.352,4.352v.44h3.271c-.021.25-.033.5-.033.757v3.4a8.907,8.907,0,0,0,.143,1.6l-.7.7a4.356,4.356,0,0,0,0,6.154l.311.312,2.659-2.659a8.93,8.93,0,0,0,13.05.015l2.644,2.644.312-.312a4.353,4.353,0,0,0,0-6.154l-.677-.677a8.89,8.89,0,0,0,.147-1.619v-3.4c0-.255-.011-.508-.032-.757h3.243Zm-14.72-9.9a2.564,2.564,0,1,1,5.129,0v2.524a8.956,8.956,0,0,0-5.129,0Zm-8.709,9.455a3.476,3.476,0,0,1,3.443-3.031h.205a8.88,8.88,0,0,0-1.168,3.031Zm2.1,12.537a3.477,3.477,0,0,1,.292-4.578l.32-.32a8.922,8.922,0,0,0,1.456,2.83Zm15.634-2.68a8.123,8.123,0,0,1-.567.678,8.063,8.063,0,0,1-13.96-5.495v-3.4c0-.255.013-.508.036-.757a8.136,8.136,0,0,1,.131-.881,8.1,8.1,0,0,1,4.452-5.651,7.658,7.658,0,0,1,.88-.356,8.056,8.056,0,0,1,5.129,0,7.708,7.708,0,0,1,.881.356,8.108,8.108,0,0,1,3.233,2.775,8.008,8.008,0,0,1,1.218,2.876,7.9,7.9,0,0,1,.132.881c.023.249.036.5.036.757v3.4a8.133,8.133,0,0,1-.054.924,8.011,8.011,0,0,1-1.547,3.893Zm2.388-1.9a3.471,3.471,0,0,1,.292,4.578l-2.052-2.052a8.94,8.94,0,0,0,1.461-2.825ZM5245,1337.2a8.9,8.9,0,0,0-1.167-3.031h.177a3.476,3.476,0,0,1,3.443,3.031Z" transform="translate(-5224.028 -1324.304)" fill="#ff5000" stroke="#ff5000" stroke-width="0.3"/>
      <path id="Path_23" data-name="Path 23" d="M5242.009,1335.411a6.851,6.851,0,0,0-1.038-1.329,6.709,6.709,0,0,0-9.521,0,6.854,6.854,0,0,0-1.065,1.378,6.757,6.757,0,0,0-.917,3.382v3.4a6.671,6.671,0,0,0,.639,2.858,6.755,6.755,0,0,0,1.134,1.683c.068.074.138.148.209.22a6.708,6.708,0,0,0,9.521,0c.068-.067.132-.136.2-.206a6.787,6.787,0,0,0,1.17-1.747,6.667,6.667,0,0,0,.617-2.808v-3.4a6.833,6.833,0,0,0-.044-.757A6.658,6.658,0,0,0,5242.009,1335.411Zm-5.8-2.431a5.789,5.789,0,0,1,3.06.871l-1.536,2.8h-3.219l-1.492-2.724A5.8,5.8,0,0,1,5236.211,1332.98Zm1.9,4.831,1.578,2.732-1.56,2.7-.177.306h-3.473l-.264-.458-1.472-2.55,1.49-2.58.246-.427h3.473Zm-6.033,8.571a5.818,5.818,0,0,1-1.724-4.138v-3.4a5.818,5.818,0,0,1,1.724-4.138c.08-.079.162-.156.245-.23l1.415,2.585-1.885,3.264a.442.442,0,0,0,0,.44l1.867,3.234-1.42,2.6C5232.219,1346.524,5232.145,1346.454,5232.073,1346.382Zm4.138,1.724a5.791,5.791,0,0,1-3.212-.967l1.483-2.708h3.287l1.527,2.789A5.794,5.794,0,0,1,5236.211,1348.106Zm5.862-5.862a5.82,5.82,0,0,1-1.724,4.138c-.109.109-.222.211-.338.311l-1.392-2.544,1.954-3.386a.44.44,0,0,0,0-.44l-1.972-3.416,1.387-2.533c.124.1.245.214.361.33a5.839,5.839,0,0,1,1.66,3.271v.11h.013a5.73,5.73,0,0,1,.051.757v3.4Z" transform="translate(-5224.028 -1324.304)" fill="#ff5000" stroke="#ff5000" stroke-width="0.3"/>
    </g>
    <rect id="Rectangle_16" data-name="Rectangle 16" width="0.881" height="1.025" transform="translate(13.186 2.905)" fill="#ff5000" stroke="#ff5000" stroke-width="0.3"/>
    <rect id="Rectangle_17" data-name="Rectangle 17" width="0.881" height="1.025" transform="translate(10.25 2.905)" fill="#ff5000" stroke="#ff5000" stroke-width="0.3"/>
  </g>
</svg>
